<svg xmlns="http://www.w3.org/2000/svg" xmlns:xlink="http://www.w3.org/1999/xlink" width="402.5478515625" height="368.7099609375" viewBox="0 0 402.5478515625 368.7099609375" fill="none"><g opacity="1"  transform="translate(0 0)  rotate(0)"><path id="路径 133" fill-rule="evenodd" style="fill:#FFFFFF" opacity="1" d="M217.84,368.71zM78.1,32.71c1.41,-0.55 2.86,-0.82 4.3,-0.82c4.37,0 8.56,2.48 10.53,6.69l1.22,2.61c0.9,-0.22 1.82,-0.32 2.72,-0.32c0.42,0 0.83,0.02 1.24,0.06c6.2,-4.15 12.66,-7.9 19.29,-11.2c11.01,-5.5 22.63,-9.83 34.57,-12.89c12.76,-10.82 28.86,-16.77 45.66,-16.84h0.3c2.27,0 4.6,0.11 6.94,0.33c0.13,0.01 0.26,0.02 0.38,0.03c15.24,1.57 29.65,8.1 40.92,18.49c8.03,2.43 15.93,5.46 23.52,9.02c13.96,6.53 26.99,14.88 38.7,24.78c7.65,6.45 14.79,13.62 21.31,21.4c0.28,-0.02 0.56,-0.03 0.84,-0.03c4.14,0 8.15,2.22 10.25,6.13l60.37,112.43c3.04,5.66 0.92,12.71 -4.74,15.75l-29.88,16.05c-3.26,14.82 -8.4,29.07 -15.35,42.52c1.05,2.75 1.71,5.64 1.96,8.58l0.12,1.42c1.47,17.51 -11.57,32.93 -29.07,34.4l-6.27,0.53c-19.14,18.7 -42.45,32.9 -67.68,41.2c-6.74,2.24 -13.72,4.07 -20.79,5.46l-0.31,1.3c-1.24,5.16 -5.8,8.82 -11.1,8.92c-0.07,0 -0.14,0 -0.21,0c-4.78,0 -9.04,-2.93 -10.79,-7.3c-1.6,0.11 -3.18,0.19 -4.76,0.25c-2.29,0.09 -4.55,0.13 -6.82,0.13c-1.06,0 -2.11,0 -3.17,-0.04c-3.89,-0.07 -7.89,-0.27 -11.87,-0.6c-11.23,-0.96 -22.43,-3.02 -33.35,-6.15c-0.53,0.07 -1.05,0.1 -1.58,0.1c-2.92,0 -5.77,-1.1 -7.93,-3.11c-0.25,-0.09 -0.51,-0.18 -0.76,-0.27c-64.94,-23.07 -109.91,-81.46 -115.85,-149.72l-8.25,-5.96c-13.13,-9.49 -16.62,-27.65 -7.95,-41.33c0.37,-0.57 0.7,-1.07 1.05,-1.55c4.79,-6.64 11.91,-11.01 20.04,-12.29c0.17,-0.03 0.33,-0.06 0.51,-0.08c4.53,-16.83 11.53,-32.77 20.87,-47.55l-0.88,-1.63c-1.52,-2.81 -1.82,-6.12 -0.82,-9.16c0.91,-2.79 2.85,-5.12 5.4,-6.54l-0.94,-2.55c-1.74,-4.77 -0.17,-10 3.64,-13.06l-1.38,-2.9c-1.33,-2.82 -1.48,-6.06 -0.41,-8.99c0.72,-1.97 1.96,-3.68 3.55,-4.99l-10.39,-18.36c-1.65,-2.89 -2.07,-6.27 -1.18,-9.5c0.9,-3.23 2.99,-5.91 5.91,-7.56c1.85,-1.06 3.99,-1.63 6.16,-1.63c4.49,0 8.66,2.43 10.88,6.33z"></path><g opacity="1"  transform="translate(13.6094970703125 11.624755859375)  rotate(0)"><path id="路径 134" fill-rule="evenodd" style="fill:#4EBCF7" opacity="1" d="M347.399,174.956zM346.689,159.565c0.48,5.061 0.71,10.19 0.71,15.391c0,72.48 -47.12,133.94 -112.41,155.41c-8.01,2.65 -16.3,4.69 -24.8,6.06c-6.55,1.069 -13.22,1.729 -20,2c-2.11,0.069 -4.22,0.109 -6.35,0.109c-0.95,0 -1.9,0 -2.85,-0.04c-3.78,-0.05 -7.52,-0.25 -11.22,-0.56c-14.16,-1.199 -27.8,-4.22 -40.71,-8.789c-63.4102,-22.541 -108.8102,-83.07 -108.8102,-154.19c0,-4.811 0.21,-9.571 0.62,-14.261c3.84,-44.49 25.5,-83.8995 57.82,-111.0195c9.82,-8.26 20.65,-15.39 32.2602,-21.16c21.95,-10.97 46.69,-17.13 72.89,-17.13c24.76,0 48.24,5.5 69.28,15.38c13.08,6.13 25.23,13.92 36.14,23.14c31.89,26.89 53.34,65.7595 57.43,109.6595z"></path><g opacity="1"  transform="translate(62.42462158203125 74.0260009765625)  rotate(0)"><g opacity="1"  transform="translate(78.29571533203125 0)  rotate(0)"><g opacity="1"  transform="translate(0 0)  rotate(0)"><g opacity="1"  transform="translate(0 0)  rotate(0)"><path id="路径 135" fill-rule="evenodd" style="fill:#E7D8DD" opacity="1" d="M238.57,112.44zM60.39,208.13l-60.39,-112.44l101.22,-54.36l20.34,-10.91l56.64,-30.42l60.37,112.44l-55.3,29.7l-18.29,9.82z"></path><path  id="路径 136" style="fill:#FAEDDC; opacity:1;" d="M41.7529,152.047l157.9001,-84.8005c0.49933,-0.2678 0.92533,-0.62137 1.278,-1.0607c0.34133,-0.42427 0.591,-0.8987 0.749,-1.4233c0.158,-0.52427 0.21233,-1.05697 0.163,-1.5981c-0.052,-0.55987 -0.21167,-1.08823 -0.479,-1.5851c-0.268,-0.49967 -0.62167,-0.92597 -1.061,-1.2789c-0.42467,-0.341 -0.89967,-0.59053 -1.425,-0.7486c-0.52467,-0.15807 -1.05833,-0.21227 -1.601,-0.1626c-0.56133,0.05147 -1.09167,0.21113 -1.591,0.479l-157.9,84.7998c-0.4994,0.268 -0.92557,0.62167 -1.2785,1.061c-0.341,0.42467 -0.59053,0.89933 -0.7486,1.424c-0.15807,0.52533 -0.21227,1.05933 -0.1626,1.602c0.05147,0.56133 0.21113,1.09167 0.479,1.591c0.2678,0.49667 0.62133,0.92133 1.0606,1.274c0.42493,0.34067 0.89977,0.59 1.4245,0.748c0.5254,0.158 1.05907,0.212 1.601,0.162c0.56153,-0.052 1.09173,-0.213 1.5906,-0.483zM42.0769,152.648c-0.58073,0.314 -1.19823,0.50133 -1.8525,0.562c-0.63027,0.058 -1.25057,-0.00467 -1.8609,-0.188c-0.60933,-0.18333 -1.16097,-0.47333 -1.6549,-0.87c-0.51133,-0.41 -0.92303,-0.90433 -1.2351,-1.483c-0.3116,-0.58133 -0.49733,-1.19867 -0.5572,-1.852c-0.0578,-0.63067 0.0051,-1.251 0.1887,-1.861c0.1836,-0.60933 0.47363,-1.161 0.8701,-1.655c0.411,-0.51133 0.90693,-0.92267 1.4878,-1.234l157.9001,-84.8006c0.58067,-0.3116 1.198,-0.49733 1.852,-0.5572c0.63067,-0.0578 1.25067,0.0051 1.86,0.1887c0.61,0.1836 1.16167,0.47363 1.655,0.8701c0.512,0.411 0.92367,0.9068 1.235,1.4874c0.312,0.5786 0.498,1.1941 0.558,1.8465c0.05733,0.6294 -0.00567,1.24863 -0.189,1.8577c-0.184,0.60933 -0.474,1.16067 -0.87,1.654c-0.41133,0.5116 -0.90733,0.92313 -1.488,1.2346l-157.9,84.7998z"></path></g><g opacity="1"  transform="translate(34.62432861328125 27.07244873046875)  rotate(0)"><g opacity="1"  transform="translate(115.20550537109375 0)  rotate(0)"><path id="路径 137" fill-rule="evenodd" style="fill:#AD8B96" opacity="1" d="M20.21,27.7718zM20.21,27.7718c-6.68,3.59 -14.99,1.08 -18.58,-5.59c-3.58,-6.67 -1.07,-14.99 5.6,-18.57c6.67,-3.59 14.99,-1.08 18.57,5.59c3.59,6.67 1.08,14.99 -5.59,18.57z"></path><path id="路径 138" fill-rule="evenodd" style="fill:#FAEDDC" opacity="1" d="M20.9334,25.8zM20.9334,25.8c-6.68,3.59 -14.99001,1.08 -18.58001,-5.59c-3.58,-6.67 -1.07,-14.99 5.6,-18.58c6.67001,-3.58 14.99001,-1.07 18.57001,5.6c3.59,6.67 1.08,14.99 -5.59,18.57z"></path></g><g opacity="1"  transform="translate(78.34051513671875 19.79827880859375)  rotate(0)"><path id="路径 139" fill-rule="evenodd" style="fill:#AD8B96" opacity="1" d="M20.21,27.7718zM20.21,27.7718c-6.68,3.59 -14.99,1.08 -18.58,-5.59c-3.58,-6.67 -1.07,-14.99 5.6,-18.57c6.67,-3.59 14.99,-1.08 18.57,5.59c3.59,6.67 1.08,14.99 -5.59,18.57z"></path><path id="路径 140" fill-rule="evenodd" style="fill:#FAEDDC" opacity="1" d="M20.9316,25.8zM20.9316,25.8c-6.68,3.59 -14.99004,1.08 -18.58004,-5.59c-3.58,-6.68 -1.07,-14.99 5.6,-18.58c6.67004,-3.58 14.99004,-1.07 18.57004,5.6c3.59,6.67 1.08,14.99 -5.59,18.57z"></path></g><g opacity="1"  transform="translate(40.5521240234375 40.09161376953125)  rotate(0)"><path id="路径 141" fill-rule="evenodd" style="fill:#AD8B96" opacity="1" d="M20.21,27.7712zM20.21,27.7712c-6.67,3.59 -14.99,1.08 -18.57,-5.59c-3.59,-6.67 -1.08,-14.99001 5.59,-18.57001c6.67,-3.59 14.99,-1.08 18.57,5.59c3.59,6.67001 1.08,14.99001 -5.59,18.57001z"></path><path id="路径 142" fill-rule="evenodd" style="fill:#FAEDDC" opacity="1" d="M20.9328,25.8zM20.9328,25.8c-6.68,3.59 -14.99002,1.08 -18.58002,-5.59c-3.58,-6.67 -1.07,-14.99 5.6,-18.57c6.67002,-3.59 14.99002,-1.08 18.57002,5.59c3.59,6.67 1.08,14.99 -5.59,18.57z"></path></g><g opacity="1"  transform="translate(0 61.86932373046875)  rotate(0)"><path id="路径 143" fill-rule="evenodd" style="fill:#AD8B96" opacity="1" d="M20.21,27.7712zM20.21,27.7712c-6.67,3.59 -14.99,1.08 -18.57,-5.59c-3.59,-6.68 -1.08,-14.99001 5.59,-18.58001c6.67,-3.58 14.99,-1.07 18.57,5.6c3.59,6.67001 1.08,14.99001 -5.59,18.57001z"></path><path id="路径 144" fill-rule="evenodd" style="fill:#FAEDDC" opacity="1" d="M20.9328,25.8zM20.9328,25.8c-6.68,3.59 -14.99002,1.08 -18.58002,-5.59c-3.58,-6.68 -1.07,-14.99 5.6,-18.58c6.67002,-3.58 14.99002,-1.07 18.57002,5.6c3.59,6.67 1.08,14.99 -5.59,18.57z"></path></g></g><g opacity="1"  transform="translate(67.126220703125 87.594482421875)  rotate(0)"><g opacity="1"  transform="translate(115.20556640625 0)  rotate(0)"><path id="路径 145" fill-rule="evenodd" style="fill:#AD8B96" opacity="1" d="M20.21,27.7708zM20.21,27.7708c-6.68,3.59 -14.99,1.08 -18.58,-5.59c-3.58,-6.67 -1.07,-14.98998 5.6,-18.56997c6.67,-3.59 14.99,-1.08 18.57,5.58999c3.59,6.66998 1.08,14.98998 -5.59,18.56998z"></path><path id="路径 146" fill-rule="evenodd" style="fill:#FAEDDC" opacity="1" d="M20.9334,25.8zM20.9334,25.8c-6.68,3.59 -14.99001,1.08 -18.58001,-5.59c-3.58,-6.68 -1.07,-14.99 5.6,-18.57c6.67001,-3.59 14.99001,-1.08 18.57001,5.59c3.59,6.67 1.08,14.99 -5.59,18.57z"></path></g><g opacity="1"  transform="translate(78.3397216796875 19.7978515625)  rotate(0)"><path id="路径 147" fill-rule="evenodd" style="fill:#AD8B96" opacity="1" d="M20.21,27.7712zM20.21,27.7712c-6.68,3.59 -14.99,1.08 -18.57,-5.59c-3.59,-6.67 -1.08,-14.99001 5.59,-18.57001c6.67,-3.59 14.99,-1.08 18.57,5.59c3.59,6.67001 1.08,14.99001 -5.59,18.57001z"></path><path id="路径 148" fill-rule="evenodd" style="fill:#FAEDDC" opacity="1" d="M20.9324,25.8zM20.9324,25.8c-6.68,3.59 -14.98999,1.08 -18.57999,-5.59c-3.58,-6.67 -1.07,-14.99 5.6,-18.57c6.66999,-3.59 14.98999,-1.08 18.56999,5.59c3.59,6.67 1.08,14.99 -5.59,18.57z"></path></g><g opacity="1"  transform="translate(40.55218505859375 40.0906982421875)  rotate(0)"><path id="路径 149" fill-rule="evenodd" style="fill:#AD8B96" opacity="1" d="M20.21,27.7716zM20.21,27.7716c-6.67,3.59 -14.99,1.08 -18.57,-5.59c-3.59,-6.68 -1.08,-14.99004 5.59,-18.57004c6.67,-3.59 14.99,-1.08 18.57,5.59c3.59,6.67004 1.08,14.99004 -5.59,18.57004z"></path><path id="路径 150" fill-rule="evenodd" style="fill:#FAEDDC" opacity="1" d="M20.9328,25.8zM20.9328,25.8c-6.68,3.59 -14.99002,1.08 -18.58002,-5.59c-3.58,-6.67 -1.07,-14.99 5.6,-18.57c6.67002,-3.59 14.99002,-1.08 18.57002,5.59c3.59,6.67 1.08,14.99 -5.59,18.57z"></path></g><g opacity="1"  transform="translate(0 61.868896484375)  rotate(0)"><path id="路径 151" fill-rule="evenodd" style="fill:#AD8B96" opacity="1" d="M20.21,27.7712zM20.21,27.7712c-6.67,3.59 -14.99,1.08 -18.57,-5.59c-3.59,-6.67 -1.08,-14.99001 5.59,-18.57001c6.67,-3.59 14.99,-1.08 18.57,5.59c3.59,6.67001 1.08,14.99001 -5.59,18.57001z"></path><path id="路径 152" fill-rule="evenodd" style="fill:#FAEDDC" opacity="1" d="M20.9328,25.8zM20.9328,25.8c-6.68,3.59 -14.99002,1.08 -18.58002,-5.59c-3.58,-6.67 -1.07,-14.99 5.6,-18.57c6.67002,-3.59 14.99002,-1.08 18.57002,5.59c3.59,6.67 1.08,14.99 -5.59,18.57z"></path></g></g></g><path id="路径 153" fill-rule="evenodd" style="fill:#AD8B96" opacity="0.27" d="M183.267,142.139zM146.067,119.119l-9.99,-17.34l-4.54,-7.8497l-11.02,-19.12l-2.37,-4.09l-0.02,-0.04l-4.1,-7.11v-0.02l-1.01,-1.76l-11.8,-20.46l20.34,-10.91l9.36,16.91l1.53,2.79l7.83,14.19l0.19,0.35v0.02l10.43,18.85l4.38,7.94l9.26,16.7397l1.72,3.12v0.02l6.63,12.01v0.02l0.41,0.7l9.97,18.06l-18.29,9.82l-8.95,-15.54v-0.02l-1.57,-2.71l-8.17,-14.18z"></path></g><g opacity="1"  transform="translate(0 22.08795166015625)  rotate(0)"><path id="路径 154" fill-rule="evenodd" style="fill:#FAEDDC" opacity="1" d="M261.74,135.18zM261.74,135.18l-190.3,100.56l-33.95,-64.25l-37.49,-70.93l190.3,-100.56l42.77,80.91z"></path><path id="路径 155" fill-rule="evenodd" style="fill:#E7D8DD" opacity="0.46" d="M261.74,135.18zM261.74,135.18l-190.3,100.56l-33.95,-64.25l-37.49,-70.93l190.3,-100.56l42.77,80.91z"></path><path id="路径 156" fill-rule="evenodd" style="fill:#AD8B96" opacity="1" d="M261.741,135.178zM261.741,135.178l-190.2996,100.56l-33.95,-64.25l190.5996,-101.0496z"></path><path id="矩形 17" fill-rule="evenodd" style="fill:#E7D8DD" opacity="1" d="M71.4375 235.733L98.0241 221.685L26.5956 86.5058L0.00897217 100.554L71.4375 235.733Z"></path><g opacity="1"  transform="translate(164.17425537109375 39.83587646484375)  rotate(0)"><path id="椭圆 24" fill-rule="evenodd" style="fill:#AD8B96" opacity="1" d="M-5.70483 10.3106C-8.85731 20.7029 -2.99073 31.6785 7.40165 34.831C17.7845 37.9806 28.76 32.114 31.9125 21.7216C35.0621 11.3388 29.1955 0.363228 18.8127 -2.78635C8.42031 -5.93882 -2.55526 -0.072237 -5.70483 10.3106Z"></path><path id="椭圆 25" fill-rule="evenodd" style="fill:#FAEDDC" opacity="1" d="M-4.6906 7.55561C-7.80445 17.9596 -1.89713 28.9133 8.50689 32.0272C18.9013 35.1381 29.855 29.2308 32.9689 18.8268C36.0799 8.43238 30.1725 -2.52133 19.7781 -5.63231C9.37408 -8.74615 -1.57962 -2.83883 -4.6906 7.55561Z"></path><path id="椭圆 26" fill-rule="evenodd" style="fill:#E7D8DD" opacity="1" d="M-4.6906 7.55561C-7.80445 17.9596 -1.89713 28.9133 8.50689 32.0272C18.9013 35.1381 29.855 29.2308 32.9689 18.8268C36.0799 8.43238 30.1725 -2.52133 19.7781 -5.63231C9.37408 -8.74615 -1.57962 -2.83883 -4.6906 7.55561Z"></path></g><g opacity="1"  transform="translate(54.0804443359375 66.85870361328125)  rotate(0)"><path id="矩形 18" fill-rule="evenodd" style="fill:#E7D8DD" opacity="1" d="M-0.00233603 49.1738L92.6908 -0.00234604L88.9837 -6.98988L-3.70941 42.1863L-0.00233603 49.1738Z"></path><path id="矩形 19" fill-rule="evenodd" style="fill:#E7D8DD" opacity="1" d="M7.1872 62.7256L70.0308 29.3853L66.0894 21.9561L3.24579 55.2964L7.1872 62.7256Z"></path></g></g></g><g opacity="1"  transform="translate(44.2603759765625 7.27044677734375)  rotate(0)"><g opacity="1"  transform="translate(122.0911865234375 243.53509521484375)  rotate(0)"><path id="路径 157" fill-rule="evenodd" style="fill:#FAEDDC" opacity="1" d="M38.63,48.83zM6.65,4.07l6.49,-4.07l0.31,0.6l1.08,2.07l24.1,46.16l-13.19,6.27l-21.8,-40.12l-3.64,-6.73z"></path><path id="路径 158" fill-rule="evenodd" style="fill:#E7D8DD" opacity="1" d="M14.53,2.67071zM14.53,2.67071l-10.89,12.30999l-3.64,-6.72999l6.65,-4.18l6.8,-3.47z"></path></g><g opacity="1"  transform="translate(0 0)  rotate(0)"><path  id="直线 8" style="fill:#AD8B96; opacity:1;" d="M17.9039,33.446l-18.68312,-33.0049c-0.02896,-0.05116 -0.05266,-0.10466 -0.07108,-0.16049c-0.01842,-0.05583 -0.03123,-0.11292 -0.0384,-0.17128c-0.00718,-0.05835 -0.0086,-0.11685 -0.00425,-0.17548c0.00434,-0.05863 0.01437,-0.11628 0.03006,-0.17294c0.0157,-0.05666 0.03677,-0.11124 0.06323,-0.16375c0.02645,-0.05251 0.05777,-0.10193 0.09396,-0.14827c0.03619,-0.04634 0.07655,-0.0887 0.12108,-0.12709c0.04453,-0.03839 0.09238,-0.07206 0.14354,-0.10103c0.05116,-0.02896 0.10466,-0.05266 0.16049,-0.07108c0.05583,-0.01842 0.11293,-0.03123 0.17128,-0.0384c0.05835,-0.00718 0.11685,-0.0086 0.17548,-0.00425c0.05863,0.00434 0.11628,0.01437 0.17294,0.03006c0.05666,0.0157 0.11124,0.03677 0.16375,0.06323c0.05251,0.02645 0.10193,0.05777 0.14827,0.09396c0.04634,0.03619 0.0887,0.07655 0.12709,0.12108c0.03839,0.04453 0.07206,0.09238 0.10103,0.14354l18.68308,33.0049c0.029,0.0512 0.0527,0.1047 0.0711,0.1605c0.0184,0.05587 0.0312,0.11297 0.0384,0.1713c0.0072,0.05833 0.00863,0.11683 0.0043,0.1755c-0.0044,0.0586 -0.01443,0.11623 -0.0301,0.1729c-0.01573,0.05667 -0.0368,0.11127 -0.0632,0.1638c-0.02647,0.05247 -0.0578,0.10187 -0.094,0.1482c-0.0362,0.0464 -0.07657,0.08877 -0.1211,0.1271c-0.04453,0.0384 -0.09237,0.0721 -0.1435,0.1011c-0.05113,0.02893 -0.10463,0.0526 -0.1605,0.071c-0.0558,0.01847 -0.1129,0.0313 -0.1713,0.0385c-0.05833,0.00713 -0.11683,0.00853 -0.1755,0.0042c-0.0586,-0.00433 -0.11623,-0.01437 -0.1729,-0.0301c-0.05667,-0.01567 -0.11123,-0.03673 -0.1637,-0.0632c-0.05253,-0.02647 -0.10197,-0.05777 -0.1483,-0.0939c-0.04633,-0.0362 -0.0887,-0.07657 -0.1271,-0.1211c-0.0384,-0.04453 -0.07207,-0.0924 -0.101,-0.1436z"></path><path id="路径 159" fill-rule="evenodd" style="fill:#FAEDDC" opacity="1" d="M53.5304,42.2936zM53.5304,42.2936l103.9296,192.9604l-51.59,26.22l-105.18958,-194.2904z"></path><path id="路径 160" fill-rule="evenodd" style="fill:#FAEDDC" opacity="1" d="M33.9855,40.5313zM12.5455,45.5013l-5.67996,-11.98l19.64996,-8.9l3.66,7.83l2.28,4.84l1.53,3.24l-19.93,8.18l-1.08,-2.28z"></path><path id="路径 161" fill-rule="evenodd" style="fill:#B0D8E4" opacity="1" d="M150.012,232.025zM150.012,232.025l-41.68,21.84l-90.5496,-164.3702l-9.97997,-18.1201l42.58997,-20.8799l0.05,0.0999z"></path><g opacity="1"  transform="translate(22.7879638671875 94.86907958984375)  rotate(0)"><path  id="直线 9" style="fill:#FAEDDC; opacity:1;" d="M-0.76988,6.6507l17.36328,-8.26758c0.05293,-0.02521 0.107,-0.04777 0.1622,-0.06768c0.05513,-0.0199 0.11113,-0.03705 0.168,-0.05145c0.05687,-0.0144 0.1143,-0.02598 0.1723,-0.03474c0.058,-0.00875 0.1163,-0.01465 0.1749,-0.01768c0.05853,-0.00303 0.1171,-0.00318 0.1757,-0.00045c0.0586,0.00272 0.1169,0.00831 0.1749,0.01677c0.05807,0.00845 0.11557,0.01973 0.1725,0.03383c0.05693,0.01411 0.11303,0.03097 0.1683,0.05058c0.05527,0.01961 0.10943,0.04189 0.1625,0.06683c0.05313,0.02494 0.10487,0.05242 0.1552,0.08244c0.0504,0.03003 0.0992,0.06245 0.1464,0.09726c0.0472,0.03481 0.0926,0.07186 0.1362,0.11114c0.04353,0.03927 0.08507,0.08059 0.1246,0.12394c0.03947,0.04335 0.07673,0.08854 0.1118,0.13556c0.03507,0.04702 0.06773,0.09564 0.098,0.14587c0.03027,0.05023 0.05803,0.10182 0.0833,0.15478c0.0252,0.05295 0.04773,0.10702 0.0676,0.16219c0.01993,0.05517 0.0371,0.11119 0.0515,0.16804c0.0144,0.05686 0.02597,0.11428 0.0347,0.17228c0.0088,0.05799 0.0147,0.11628 0.0177,0.17485c0.003,0.05857 0.00317,0.11715 0.0005,0.17574c-0.00273,0.05859 -0.00833,0.1169 -0.0168,0.17494c-0.00847,0.05804 -0.01973,0.11552 -0.0338,0.17245c-0.01413,0.05693 -0.031,0.11303 -0.0506,0.16831c-0.0196,0.05527 -0.0419,0.10945 -0.0669,0.16254c-0.02493,0.05309 -0.0524,0.10482 -0.0824,0.15521c-0.03,0.05039 -0.06243,0.09918 -0.0973,0.14638c-0.0348,0.0472 -0.07183,0.09258 -0.1111,0.13614c-0.03927,0.04356 -0.08057,0.08509 -0.1239,0.12459c-0.0434,0.03951 -0.0886,0.07679 -0.1356,0.11185c-0.047,0.03506 -0.09563,0.06773 -0.1459,0.09801c-0.0502,0.03029 -0.10177,0.05804 -0.1547,0.08325l-17.36332,8.26758c-0.05295,0.02521 -0.10702,0.04777 -0.16219,0.06768c-0.05517,0.0199 -0.11119,0.03705 -0.16804,0.05146c-0.05686,0.0144 -0.11428,0.02597 -0.17228,0.0347c-0.05799,0.0088 -0.11628,0.0147 -0.17485,0.0177c-0.05857,0.003 -0.11715,0.00317 -0.17574,0.0005c-0.05859,-0.00273 -0.1169,-0.00833 -0.17494,-0.0168c-0.05804,-0.00847 -0.11552,-0.01973 -0.17245,-0.0338c-0.05693,-0.01413 -0.11303,-0.03101 -0.16831,-0.05063c-0.05527,-0.01961 -0.10945,-0.04189 -0.16254,-0.06683c-0.05309,-0.02493 -0.10482,-0.05241 -0.15521,-0.08244c-0.05039,-0.03002 -0.09918,-0.06244 -0.14638,-0.09725c-0.0472,-0.03482 -0.09258,-0.07187 -0.13614,-0.11114c-0.04356,-0.03927 -0.08509,-0.08059 -0.12459,-0.12394c-0.03951,-0.04336 -0.07679,-0.08855 -0.11185,-0.13556c-0.03506,-0.04702 -0.06773,-0.09564 -0.09801,-0.14587c-0.03029,-0.05023 -0.05804,-0.10183 -0.08325,-0.15478c-0.02521,-0.05295 -0.04777,-0.10702 -0.06768,-0.16219c-0.0199,-0.05517 -0.03705,-0.11119 -0.05145,-0.16804c-0.0144,-0.05685 -0.02598,-0.11428 -0.03474,-0.17228c-0.00875,-0.05799 -0.01465,-0.11628 -0.01768,-0.17485c-0.00303,-0.05857 -0.00318,-0.11715 -0.00045,-0.17574c0.00272,-0.05859 0.00831,-0.1169 0.01677,-0.17494c0.00845,-0.05804 0.01973,-0.11552 0.03383,-0.17245c0.01411,-0.05693 0.03097,-0.11304 0.05058,-0.16831c0.01961,-0.05527 0.04189,-0.10945 0.06683,-0.16254c0.02494,-0.05309 0.05242,-0.10482 0.08244,-0.15521c0.03003,-0.05038 0.06245,-0.09917 0.09726,-0.14637c0.03481,-0.0472 0.07186,-0.09258 0.11114,-0.13615c0.03927,-0.04355 0.08059,-0.08508 0.12394,-0.12459c0.04335,-0.0395 0.08854,-0.07678 0.13556,-0.11184c0.04702,-0.03506 0.09564,-0.06773 0.14587,-0.09802c0.05023,-0.03028 0.10182,-0.05803 0.15478,-0.08324z"></path><path  id="直线 10" style="fill:#FAEDDC; opacity:1;" d="M9.47525,26.654l17.36295,-8.2672c0.053,-0.02527 0.10707,-0.04783 0.1622,-0.0677c0.0552,-0.01993 0.11123,-0.0371 0.1681,-0.0515c0.0568,-0.0144 0.1142,-0.02597 0.1722,-0.0347c0.058,-0.00873 0.1163,-0.01463 0.1749,-0.0177c0.05853,-0.003 0.1171,-0.00313 0.1757,-0.0004c0.0586,0.00273 0.11693,0.00833 0.175,0.0168c0.058,0.0084 0.11547,0.01967 0.1724,0.0338c0.05693,0.01407 0.11303,0.03093 0.1683,0.0506c0.05527,0.0196 0.10947,0.04187 0.1626,0.0668c0.05307,0.02493 0.1048,0.0524 0.1552,0.0824c0.05033,0.03007 0.0991,0.0625 0.1463,0.0973c0.0472,0.0348 0.0926,0.07183 0.1362,0.1111c0.04353,0.03933 0.08507,0.08067 0.1246,0.124c0.03947,0.04333 0.07673,0.0885 0.1118,0.1355c0.03507,0.04707 0.06773,0.0957 0.098,0.1459c0.03033,0.05027 0.0581,0.10187 0.0833,0.1548c0.0252,0.05293 0.04777,0.107 0.0677,0.1622c0.01987,0.05513 0.037,0.11113 0.0514,0.168c0.0144,0.05687 0.02597,0.1143 0.0347,0.1723c0.0088,0.058 0.0147,0.1163 0.0177,0.1749c0.00307,0.05853 0.00323,0.1171 0.0005,0.1757c-0.00273,0.0586 -0.00833,0.1169 -0.0168,0.1749c-0.00847,0.05807 -0.01973,0.11557 -0.0338,0.1725c-0.01413,0.05693 -0.031,0.11303 -0.0506,0.1683c-0.0196,0.05527 -0.04187,0.10943 -0.0668,0.1625c-0.025,0.05313 -0.0525,0.10487 -0.0825,0.1552c-0.03,0.0504 -0.0624,0.0992 -0.0972,0.1464c-0.03487,0.0472 -0.07193,0.0926 -0.1112,0.1362c-0.03927,0.04353 -0.08057,0.08503 -0.1239,0.1245c-0.0434,0.03953 -0.0886,0.07683 -0.1356,0.1119c-0.047,0.03507 -0.09563,0.06773 -0.1459,0.098c-0.0502,0.03027 -0.10177,0.05803 -0.1547,0.0833l-17.363,8.2672c-0.05293,0.0252 -0.107,0.04773 -0.1622,0.0676c-0.0552,0.01993 -0.11123,0.0371 -0.1681,0.0515c-0.0568,0.0144 -0.1142,0.02597 -0.1722,0.0347c-0.058,0.0088 -0.1163,0.0147 -0.1749,0.0177c-0.05853,0.003 -0.1171,0.00317 -0.1757,0.0005c-0.0586,-0.00273 -0.11692,-0.00833 -0.17496,-0.0168c-0.05804,-0.00847 -0.11552,-0.01977 -0.17245,-0.0339c-0.05693,-0.01407 -0.11304,-0.0309 -0.16831,-0.0505c-0.05527,-0.01967 -0.10945,-0.04197 -0.16254,-0.0669c-0.05309,-0.02493 -0.10482,-0.0524 -0.1552,-0.0824c-0.05039,-0.03 -0.09918,-0.06243 -0.14638,-0.0973c-0.0472,-0.0348 -0.09258,-0.07183 -0.13614,-0.1111c-0.04356,-0.03927 -0.08509,-0.0806 -0.12459,-0.124c-0.0395,-0.04333 -0.07678,-0.0885 -0.11184,-0.1355c-0.03506,-0.047 -0.06773,-0.09563 -0.09802,-0.1459c-0.03028,-0.0502 -0.05803,-0.1018 -0.08324,-0.1548c-0.02521,-0.05293 -0.04777,-0.107 -0.06768,-0.1622c-0.0199,-0.05513 -0.03705,-0.11113 -0.05145,-0.168c-0.0144,-0.05687 -0.02598,-0.1143 -0.03473,-0.1723c-0.00875,-0.058 -0.01465,-0.11627 -0.01768,-0.1748c-0.00303,-0.0586 -0.00318,-0.1172 -0.00046,-0.1758c0.00273,-0.05853 0.00832,-0.11683 0.01678,-0.1749c0.00845,-0.05807 0.01973,-0.11557 0.03384,-0.1725c0.0141,-0.05693 0.03096,-0.11303 0.05057,-0.1683c0.01962,-0.05527 0.0419,-0.10943 0.06684,-0.1625c0.02494,-0.05307 0.05242,-0.1048 0.08244,-0.1552c0.03002,-0.0504 0.06244,-0.0992 0.09726,-0.1464c0.03481,-0.0472 0.07186,-0.09257 0.11113,-0.1361c0.03928,-0.0436 0.0806,-0.08513 0.12395,-0.1246c0.04336,-0.03953 0.08855,-0.07683 0.13556,-0.1119c0.04702,-0.035 0.09564,-0.06767 0.14587,-0.098c0.05023,-0.03027 0.10183,-0.058 0.15478,-0.0832z"></path><path  id="直线 11" style="fill:#FAEDDC; opacity:1;" d="M20.229,43.7602l17.3631,-8.2671c0.053,-0.0252 0.10707,-0.04777 0.1622,-0.0677c0.0552,-0.01987 0.11123,-0.037 0.1681,-0.0514c0.05687,-0.0144 0.1143,-0.026 0.1723,-0.0348c0.05793,-0.00873 0.1162,-0.0146 0.1748,-0.0176c0.0586,-0.00307 0.11717,-0.00323 0.1757,-0.0005c0.0586,0.00273 0.11693,0.00833 0.175,0.0168c0.058,0.00847 0.11547,0.01973 0.1724,0.0338c0.05693,0.01413 0.11303,0.031 0.1683,0.0506c0.05533,0.0196 0.10953,0.04187 0.1626,0.0668c0.05307,0.02493 0.1048,0.05243 0.1552,0.0825c0.0504,0.03 0.0992,0.0624 0.1464,0.0972c0.0472,0.03487 0.09257,0.07193 0.1361,0.1112c0.04353,0.03927 0.08507,0.08057 0.1246,0.1239c0.03947,0.0434 0.07673,0.0886 0.1118,0.1356c0.03507,0.047 0.06777,0.09563 0.0981,0.1459c0.03027,0.0502 0.058,0.10177 0.0832,0.1547c0.0252,0.053 0.04777,0.10707 0.0677,0.1622c0.01987,0.0552 0.037,0.11123 0.0514,0.1681c0.0144,0.0568 0.02597,0.1142 0.0347,0.1722c0.0088,0.058 0.0147,0.1163 0.0177,0.1749c0.00307,0.0586 0.00323,0.11717 0.0005,0.1757c-0.00273,0.0586 -0.00833,0.11693 -0.0168,0.175c-0.00847,0.058 -0.01973,0.11547 -0.0338,0.1724c-0.01413,0.05693 -0.031,0.11303 -0.0506,0.1683c-0.0196,0.05527 -0.04187,0.10947 -0.0668,0.1626c-0.025,0.05307 -0.0525,0.1048 -0.0825,0.1552c-0.03,0.0504 -0.06243,0.09917 -0.0973,0.1463c-0.0348,0.04727 -0.07183,0.09267 -0.1111,0.1362c-0.03927,0.04353 -0.08057,0.08507 -0.1239,0.1246c-0.0434,0.03947 -0.0886,0.07673 -0.1356,0.1118c-0.047,0.03507 -0.09563,0.06773 -0.1459,0.098c-0.0502,0.03033 -0.10177,0.0581 -0.1547,0.0833l-17.3631,8.2671c-0.053,0.0252 -0.10707,0.04773 -0.1622,0.0676c-0.0552,0.01993 -0.11123,0.0371 -0.1681,0.0515c-0.05687,0.0144 -0.1143,0.02597 -0.1723,0.0347c-0.05793,0.0088 -0.1162,0.0147 -0.1748,0.0177c-0.0586,0.003 -0.1172,0.00317 -0.1758,0.0005c-0.05853,-0.00273 -0.11683,-0.00833 -0.1749,-0.0168c-0.058,-0.00847 -0.11547,-0.01977 -0.1724,-0.0339c-0.05693,-0.01407 -0.11303,-0.0309 -0.1683,-0.0505c-0.05533,-0.01967 -0.10953,-0.04197 -0.1626,-0.0669c-0.05307,-0.02493 -0.1048,-0.0524 -0.1552,-0.0824c-0.0504,-0.03007 -0.0992,-0.0625 -0.1464,-0.0973c-0.0472,-0.0348 -0.09257,-0.07183 -0.1361,-0.1111c-0.04353,-0.03927 -0.08507,-0.0806 -0.1246,-0.124c-0.03947,-0.04333 -0.07673,-0.0885 -0.1118,-0.1355c-0.03507,-0.047 -0.06773,-0.09563 -0.098,-0.1459c-0.03033,-0.0502 -0.0581,-0.1018 -0.0833,-0.1548c-0.0252,-0.05293 -0.04777,-0.107 -0.0677,-0.1622c-0.01987,-0.05513 -0.037,-0.11113 -0.0514,-0.168c-0.0144,-0.05687 -0.026,-0.1143 -0.0348,-0.1723c-0.00873,-0.058 -0.0146,-0.11627 -0.0176,-0.1748c-0.00307,-0.0586 -0.00323,-0.1172 -0.0005,-0.1758c0.00273,-0.0586 0.00833,-0.1169 0.0168,-0.1749c0.00847,-0.05807 0.01973,-0.11557 0.0338,-0.1725c0.01413,-0.05693 0.031,-0.11303 0.0506,-0.1683c0.0196,-0.05527 0.04187,-0.10943 0.0668,-0.1625c0.025,-0.05307 0.0525,-0.1048 0.0825,-0.1552c0.03,-0.0504 0.06243,-0.0992 0.0973,-0.1464c0.0348,-0.0472 0.07183,-0.09257 0.1111,-0.1361c0.03927,-0.0436 0.08057,-0.08513 0.1239,-0.1246c0.0434,-0.03953 0.0886,-0.07683 0.1356,-0.1119c0.047,-0.03507 0.09563,-0.06773 0.1459,-0.098c0.0502,-0.03027 0.10177,-0.058 0.1547,-0.0832z"></path><path  id="直线 12" style="fill:#FAEDDC; opacity:1;" d="M28.68,62.3144l17.3633,-8.2676c0.05293,-0.0252 0.107,-0.04777 0.1622,-0.0677c0.05513,-0.01987 0.11113,-0.037 0.168,-0.0514c0.05687,-0.0144 0.1143,-0.026 0.1723,-0.0348c0.058,-0.00873 0.11627,-0.0146 0.1748,-0.0176c0.0586,-0.00307 0.1172,-0.00323 0.1758,-0.0005c0.0586,0.00273 0.1169,0.00833 0.1749,0.0168c0.05807,0.00847 0.11557,0.01973 0.1725,0.0338c0.05693,0.01413 0.11303,0.031 0.1683,0.0506c0.05527,0.0196 0.10943,0.04187 0.1625,0.0668c0.05313,0.02493 0.10487,0.05243 0.1552,0.0825c0.0504,0.03 0.0992,0.0624 0.1464,0.0972c0.0472,0.0348 0.09257,0.07187 0.1361,0.1112c0.0436,0.03927 0.08513,0.08057 0.1246,0.1239c0.03953,0.04333 0.07683,0.08853 0.1119,0.1356c0.03507,0.047 0.06773,0.0956 0.098,0.1458c0.03027,0.05027 0.05803,0.10187 0.0833,0.1548c0.0252,0.05293 0.04773,0.107 0.0676,0.1622c0.01993,0.0552 0.0371,0.1112 0.0515,0.168c0.0144,0.05687 0.02597,0.1143 0.0347,0.1723c0.00873,0.058 0.01463,0.1163 0.0177,0.1749c0.003,0.05853 0.00317,0.1171 0.0005,0.1757c-0.00273,0.0586 -0.00833,0.1169 -0.0168,0.1749c-0.00847,0.05807 -0.01977,0.11557 -0.0339,0.1725c-0.01407,0.05693 -0.0309,0.11303 -0.0505,0.1683c-0.01967,0.05527 -0.04197,0.10947 -0.0669,0.1626c-0.02493,0.05307 -0.0524,0.1048 -0.0824,0.1552c-0.03,0.05033 -0.06243,0.0991 -0.0973,0.1463c-0.0348,0.0472 -0.07183,0.0926 -0.1111,0.1362c-0.03927,0.04353 -0.08057,0.08507 -0.1239,0.1246c-0.0434,0.03947 -0.0886,0.07673 -0.1356,0.1118c-0.047,0.03507 -0.09563,0.06773 -0.1459,0.098c-0.0502,0.03033 -0.10177,0.0581 -0.1547,0.0833l-17.3633,8.2676c-0.053,0.0252 -0.10707,0.04773 -0.1622,0.0676c-0.0552,0.01993 -0.11123,0.0371 -0.1681,0.0515c-0.0568,0.0144 -0.1142,0.02597 -0.1722,0.0347c-0.058,0.0088 -0.1163,0.0147 -0.1749,0.0177c-0.05853,0.003 -0.1171,0.00313 -0.1757,0.0004c-0.0586,-0.00267 -0.11693,-0.00823 -0.175,-0.0167c-0.058,-0.00847 -0.11547,-0.01977 -0.1724,-0.0339c-0.05693,-0.01407 -0.11303,-0.0309 -0.1683,-0.0505c-0.05527,-0.01967 -0.10947,-0.04197 -0.1626,-0.0669c-0.05307,-0.02493 -0.1048,-0.0524 -0.1552,-0.0824c-0.0504,-0.03 -0.0992,-0.06243 -0.1464,-0.0973c-0.0472,-0.0348 -0.09257,-0.07183 -0.1361,-0.1111c-0.04353,-0.03927 -0.08507,-0.08057 -0.1246,-0.1239c-0.03947,-0.0434 -0.07673,-0.0886 -0.1118,-0.1356c-0.03507,-0.047 -0.06773,-0.09563 -0.098,-0.1459c-0.03033,-0.0502 -0.0581,-0.10177 -0.0833,-0.1547c-0.0252,-0.053 -0.04777,-0.10707 -0.0677,-0.1622c-0.01987,-0.0552 -0.037,-0.11123 -0.0514,-0.1681c-0.0144,-0.05687 -0.026,-0.1143 -0.0348,-0.1723c-0.00873,-0.058 -0.0146,-0.11627 -0.0176,-0.1748c-0.00307,-0.0586 -0.00323,-0.11717 -0.0005,-0.1757c0.00273,-0.0586 0.00833,-0.11693 0.0168,-0.175c0.00847,-0.058 0.01973,-0.11547 0.0338,-0.1724c0.01413,-0.05693 0.031,-0.11303 0.0506,-0.1683c0.0196,-0.05533 0.04187,-0.10953 0.0668,-0.1626c0.02493,-0.05307 0.05243,-0.1048 0.0825,-0.1552c0.03,-0.0504 0.0624,-0.0992 0.0972,-0.1464c0.0348,-0.0472 0.07187,-0.09257 0.1112,-0.1361c0.03927,-0.0436 0.08057,-0.08513 0.1239,-0.1246c0.04333,-0.03953 0.08853,-0.0768 0.1356,-0.1118c0.047,-0.03507 0.0956,-0.06777 0.1458,-0.0981c0.05027,-0.03027 0.10187,-0.058 0.1548,-0.0832z"></path><path  id="直线 13" style="fill:#FAEDDC; opacity:1;" d="M41.0998,81.6213l17.3631,-8.2678c0.05293,-0.0252 0.107,-0.04777 0.1622,-0.0677c0.05513,-0.01993 0.11113,-0.0371 0.168,-0.0515c0.05687,-0.0144 0.1143,-0.02597 0.1723,-0.0347c0.058,-0.00873 0.11627,-0.01463 0.1748,-0.0177c0.0586,-0.003 0.1172,-0.00317 0.1758,-0.0005c0.0586,0.00273 0.1169,0.00833 0.1749,0.0168c0.05807,0.00847 0.11557,0.01973 0.1725,0.0338c0.05693,0.01413 0.11303,0.031 0.1683,0.0506c0.05527,0.0196 0.10943,0.0419 0.1625,0.0669c0.05307,0.02493 0.1048,0.0524 0.1552,0.0824c0.0504,0.03 0.0992,0.0624 0.1464,0.0972c0.0472,0.03487 0.09257,0.07193 0.1361,0.1112c0.0436,0.03927 0.08513,0.08057 0.1246,0.1239c0.03953,0.0434 0.07683,0.0886 0.1119,0.1356c0.03507,0.047 0.06773,0.09563 0.098,0.1459c0.03027,0.0502 0.05803,0.10177 0.0833,0.1547c0.0252,0.053 0.04773,0.10707 0.0676,0.1622c0.01993,0.0552 0.0371,0.11123 0.0515,0.1681c0.0144,0.0568 0.02597,0.1142 0.0347,0.1722c0.0088,0.058 0.0147,0.1163 0.0177,0.1749c0.00307,0.05853 0.00323,0.1171 0.0005,0.1757c-0.00273,0.0586 -0.00833,0.11693 -0.0168,0.175c-0.00847,0.058 -0.01973,0.11547 -0.0338,0.1724c-0.01413,0.05693 -0.031,0.11303 -0.0506,0.1683c-0.0196,0.05527 -0.04187,0.10947 -0.0668,0.1626c-0.02493,0.05307 -0.05243,0.1048 -0.0825,0.1552c-0.03,0.05033 -0.0624,0.0991 -0.0972,0.1463c-0.03487,0.0472 -0.07193,0.0926 -0.1112,0.1362c-0.03927,0.04353 -0.08057,0.08507 -0.1239,0.1246c-0.04333,0.03947 -0.08853,0.07673 -0.1356,0.1118c-0.047,0.03507 -0.0956,0.06777 -0.1458,0.0981c-0.05027,0.03027 -0.10187,0.058 -0.1548,0.0832l-17.3631,8.2678c-0.05293,0.0252 -0.107,0.04777 -0.1622,0.0677c-0.05513,0.01993 -0.11113,0.0371 -0.168,0.0515c-0.05687,0.0144 -0.1143,0.02597 -0.1723,0.0347c-0.058,0.00873 -0.1163,0.01463 -0.1749,0.0177c-0.05853,0.003 -0.1171,0.00313 -0.1757,0.0004c-0.0586,-0.00273 -0.1169,-0.0083 -0.1749,-0.0167c-0.05807,-0.00847 -0.11557,-0.01977 -0.1725,-0.0339c-0.05693,-0.01407 -0.11303,-0.0309 -0.1683,-0.0505c-0.05527,-0.0196 -0.10943,-0.0419 -0.1625,-0.0669c-0.05313,-0.02493 -0.1049,-0.0524 -0.1553,-0.0824c-0.05033,-0.03 -0.0991,-0.06243 -0.1463,-0.0973c-0.0472,-0.0348 -0.0926,-0.07183 -0.1362,-0.1111c-0.04353,-0.03927 -0.08507,-0.08057 -0.1246,-0.1239c-0.03947,-0.0434 -0.07673,-0.0886 -0.1118,-0.1356c-0.03507,-0.047 -0.06773,-0.09563 -0.098,-0.1459c-0.03033,-0.0502 -0.0581,-0.10177 -0.0833,-0.1547c-0.0252,-0.053 -0.04777,-0.10707 -0.0677,-0.1622c-0.01987,-0.0552 -0.037,-0.11123 -0.0514,-0.1681c-0.0144,-0.05687 -0.026,-0.11427 -0.0348,-0.1722c-0.00873,-0.058 -0.0146,-0.1163 -0.0176,-0.1749c-0.00307,-0.0586 -0.00323,-0.11717 -0.0005,-0.1757c0.00273,-0.0586 0.00833,-0.11693 0.0168,-0.175c0.00847,-0.058 0.01973,-0.11547 0.0338,-0.1724c0.01413,-0.05693 0.031,-0.11303 0.0506,-0.1683c0.0196,-0.05533 0.04187,-0.10953 0.0668,-0.1626c0.02493,-0.05307 0.0524,-0.1048 0.0824,-0.1552c0.03007,-0.0504 0.0625,-0.0992 0.0973,-0.1464c0.0348,-0.0472 0.07183,-0.09257 0.1111,-0.1361c0.03927,-0.0436 0.0806,-0.08513 0.124,-0.1246c0.04333,-0.03953 0.0885,-0.0768 0.1355,-0.1118c0.04707,-0.03507 0.0957,-0.06777 0.1459,-0.0981c0.05027,-0.03027 0.10187,-0.058 0.1548,-0.0832z"></path><path  id="直线 14" style="fill:#FAEDDC; opacity:1;" d="M51.7498,102.605l17.3633,-8.2667c0.05293,-0.0252 0.107,-0.04777 0.1622,-0.0677c0.05513,-0.01987 0.11113,-0.037 0.168,-0.0514c0.05687,-0.0144 0.1143,-0.026 0.1723,-0.0348c0.058,-0.00873 0.11627,-0.0146 0.1748,-0.0176c0.0586,-0.00307 0.1172,-0.00323 0.1758,-0.0005c0.0586,0.00273 0.1169,0.00833 0.1749,0.0168c0.05807,0.00847 0.11557,0.01973 0.1725,0.0338c0.05693,0.01413 0.11303,0.031 0.1683,0.0506c0.05527,0.0196 0.10943,0.04187 0.1625,0.0668c0.05313,0.025 0.10487,0.0525 0.1552,0.0825c0.0504,0.03 0.0992,0.0624 0.1464,0.0972c0.0472,0.03487 0.09257,0.07193 0.1361,0.1112c0.0436,0.03927 0.08513,0.08057 0.1246,0.1239c0.03953,0.0434 0.07683,0.0886 0.1119,0.1356c0.03507,0.047 0.06773,0.09563 0.098,0.1459c0.03027,0.0502 0.058,0.1018 0.0832,0.1548c0.02527,0.05293 0.04783,0.10697 0.0677,0.1621c0.01993,0.0552 0.03707,0.11123 0.0514,0.1681c0.0144,0.05687 0.026,0.1143 0.0348,0.1723c0.00873,0.058 0.0146,0.11627 0.0176,0.1748c0.00307,0.0586 0.00323,0.11717 0.0005,0.1757c-0.00273,0.0586 -0.00833,0.11693 -0.0168,0.175c-0.0084,0.058 -0.01967,0.11547 -0.0338,0.1724c-0.01413,0.05693 -0.031,0.11303 -0.0506,0.1683c-0.0196,0.05533 -0.04187,0.10953 -0.0668,0.1626c-0.02493,0.05307 -0.05243,0.1048 -0.0825,0.1552c-0.03,0.0504 -0.0624,0.0992 -0.0972,0.1464c-0.0348,0.0472 -0.07187,0.09257 -0.1112,0.1361c-0.03927,0.04353 -0.08057,0.08507 -0.1239,0.1246c-0.04333,0.03947 -0.08853,0.07673 -0.1356,0.1118c-0.047,0.03507 -0.0956,0.06777 -0.1458,0.0981c-0.05027,0.03027 -0.10187,0.058 -0.1548,0.0832l-17.3633,8.2669c-0.05293,0.02533 -0.107,0.048 -0.1622,0.068c-0.0552,0.02 -0.1112,0.037 -0.168,0.051c-0.05687,0.01467 -0.1143,0.02633 -0.1723,0.035c-0.058,0.00867 -0.1163,0.01467 -0.1749,0.018c-0.05853,0.00267 -0.1171,0.00267 -0.1757,0c-0.0586,-0.00267 -0.11693,-0.00833 -0.175,-0.017c-0.058,-0.008 -0.11547,-0.019 -0.1724,-0.033c-0.05693,-0.01467 -0.11303,-0.03167 -0.1683,-0.051c-0.05527,-0.01933 -0.10943,-0.04167 -0.1625,-0.067c-0.05313,-0.02467 -0.1049,-0.052 -0.1553,-0.082c-0.05033,-0.03 -0.0991,-0.06267 -0.1463,-0.098c-0.0472,-0.03467 -0.0926,-0.07167 -0.1362,-0.111c-0.04353,-0.03933 -0.08503,-0.08067 -0.1245,-0.124c-0.03953,-0.04333 -0.07683,-0.08833 -0.1119,-0.135c-0.03507,-0.04733 -0.06773,-0.096 -0.098,-0.146c-0.03027,-0.05 -0.058,-0.10167 -0.0832,-0.155c-0.02527,-0.05267 -0.04783,-0.10667 -0.0677,-0.162c-0.01993,-0.05533 -0.0371,-0.11133 -0.0515,-0.168c-0.0144,-0.05667 -0.02597,-0.114 -0.0347,-0.172c-0.00873,-0.058 -0.01463,-0.11633 -0.0177,-0.175c-0.003,-0.05867 -0.00313,-0.11733 -0.0004,-0.176c0.00273,-0.05867 0.0083,-0.117 0.0167,-0.175c0.00847,-0.058 0.01977,-0.11533 0.0339,-0.172c0.01407,-0.05733 0.03093,-0.11367 0.0506,-0.169c0.0196,-0.05533 0.04187,-0.10933 0.0668,-0.162c0.02493,-0.05333 0.0524,-0.105 0.0824,-0.155c0.03007,-0.05067 0.0625,-0.09967 0.0973,-0.147c0.0348,-0.04733 0.07183,-0.09267 0.1111,-0.136c0.03933,-0.04333 0.08067,-0.085 0.124,-0.125c0.04333,-0.03933 0.08853,-0.07633 0.1356,-0.111c0.047,-0.03533 0.0956,-0.068 0.1458,-0.098c0.05027,-0.03067 0.10187,-0.05867 0.1548,-0.084z"></path></g><path id="路径 162" fill-rule="evenodd" style="fill:#4EBCF7" opacity="1" d="M17.7824,89.4948zM17.7824,89.4948l-9.97997,-18.1201l42.58997,-20.8799l0.05,0.0999z"></path><path id="路径 163" fill-rule="evenodd" style="fill:#AD8B96" opacity="0.47" d="M32.4569,37.2939zM32.4569,37.2939l-19.48,9.13l-0.23,-0.07l18.1,-11.81z"></path><g opacity="1"  transform="translate(5.01824951171875 33.59771728515625)  rotate(0)"><path id="路径 164" fill-rule="evenodd" style="fill:#FAEDDC" opacity="1" d="M43.2,13.72zM39.25,6.22l2.73,5.16l1.22,2.34l-38.41,16.23l-0.59,-1.67l-0.26,-0.64l-3.94,-10.77l35.97,-16.87z"></path><path id="路径 165" fill-rule="evenodd" style="fill:#AD8B96" opacity="0.47" d="M41.9724,11.3867zM41.9724,11.3867l-37.77002,16.9l-0.26,-0.64l36.79002,-18.62003z"></path></g></g><path id="路径 166" fill-rule="evenodd" style="fill:#FAEDDC" opacity="1" d="M171.305,290.839zM171.305,290.839l-31.7,16.77c-1.26,0.67 -2.84,0.18 -3.51,-1.08c-0.67,-1.26 -0.18,-2.84 1.08,-3.51l31.7,-16.77c1.27,-0.67 2.85,-0.18 3.51,1.08c0.67,1.26 0.19,2.84 -1.08,3.51z"></path></g><g opacity="1"  transform="translate(201.59173583984375 207.0001220703125)  rotate(0)"><path id="矩形 20" fill-rule="evenodd" style="fill:#E7D8DD" opacity="1" d="M-0.0023365 49.1738L92.6908 -0.00233841L88.9837 -6.98988L-3.70941 42.1863L-0.0023365 49.1738Z"></path><path id="矩形 21" fill-rule="evenodd" style="fill:#E7D8DD" opacity="1" d="M35.8793 46.4008L98.7229 13.0604L94.7815 5.63122L31.9379 38.9716L35.8793 46.4008Z"></path></g><g opacity="1"  transform="translate(126.767578125 0)  rotate(0)"><g opacity="1"  transform="translate(0 0)  rotate(0)"><path id="路径 167" fill-rule="evenodd" style="fill:#B0D8E4" opacity="1" d="M119.06,59.53zM59.53,119.06h-0.25c-32.76,-0.13 -59.28,-26.73 -59.28,-59.53c0,-32.8 26.52,-59.4 59.28,-59.53h0.25c2.06,0 4.09,0.11 6.09,0.3h0.05c30,3.09 53.39,28.42 53.39,59.23c0,30.81 -23.39,56.14 -53.39,59.23h-0.05c-2,0.19 -4.03,0.3 -6.09,0.3z"></path><path id="路径 168" fill-rule="evenodd" style="fill:#FAEDDC" opacity="1" d="M113.695,59.5263zM59.2945,5.36627h0.24c1.87,0 3.72,0.1 5.53,0.27h0.05c27.29,2.81 48.5805,25.86003 48.5805,53.89003c0,28.04 -21.2905,51.0897 -48.5805,53.8897h-0.05c-1.81,0.18 -3.66,0.28 -5.53,0.28h-0.24c-29.8,-0.12 -53.93,-24.3297 -53.93,-54.1697c0,-29.84 24.13,-54.04003 53.93,-54.16003z"></path><g opacity="1"  transform="translate(56.57958984375 33.4844970703125)  rotate(0)"><path id="椭圆 27" fill-rule="evenodd" style="fill:#3D2929" opacity="1" d="M3.48 22.2573C1.56 22.2573 0 23.8173 0 25.7373C0 27.6673 1.56 29.2273 3.48 29.2273C5.41 29.2273 6.97 27.6673 6.97 25.7373C6.97 23.8173 5.41 22.2573 3.48 22.2573Z"></path><path  id="路径 169" style="fill:#3D2929; opacity:1;" d="M3.34931,0v26.67h-0.48438v-0.4844h35.04997c0.0318,0 0.0633,0.0031 0.0945,0.0093c0.0312,0.0062 0.0615,0.0154 0.0909,0.0276c0.0294,0.01213 0.0573,0.02703 0.0837,0.0447c0.02647,0.01773 0.05093,0.03783 0.0734,0.0603c0.02253,0.02247 0.04263,0.04693 0.0603,0.0734c0.01767,0.02647 0.03257,0.05437 0.0447,0.0837c0.0122,0.0294 0.0214,0.0597 0.0276,0.0909c0.0062,0.0312 0.0093,0.0627 0.0093,0.0945c0,0.0318 -0.0031,0.0633 -0.0093,0.0945c-0.0062,0.0312 -0.0154,0.0615 -0.0276,0.0909c-0.01213,0.02933 -0.02703,0.05723 -0.0447,0.0837c-0.01767,0.02647 -0.03777,0.05093 -0.0603,0.0734c-0.02247,0.02247 -0.04693,0.04257 -0.0734,0.0603c-0.0264,0.01767 -0.0543,0.03257 -0.0837,0.0447c-0.0294,0.0122 -0.0597,0.0214 -0.0909,0.0276c-0.0312,0.0062 -0.0627,0.0093 -0.0945,0.0093h-35.04997c-0.03181,0 -0.06331,-0.0031 -0.0945,-0.0093c-0.03119,-0.0062 -0.06148,-0.0154 -0.09087,-0.0276c-0.02938,-0.01213 -0.05729,-0.02703 -0.08374,-0.0447c-0.02645,-0.01773 -0.05091,-0.03783 -0.0734,-0.0603c-0.02249,-0.02247 -0.04257,-0.04693 -0.06024,-0.0734c-0.01767,-0.02647 -0.03259,-0.05437 -0.04476,-0.0837c-0.01217,-0.0294 -0.02136,-0.0597 -0.02757,-0.0909c-0.0062,-0.0312 -0.0093,-0.0627 -0.0093,-0.0945v-26.67c0,-0.03181 0.0031,-0.0633 0.0093,-0.0945c0.00621,-0.03119 0.0154,-0.06148 0.02757,-0.09087c0.01217,-0.02938 0.02709,-0.0573 0.04476,-0.08374c0.01767,-0.02645 0.03775,-0.05091 0.06024,-0.0734c0.02249,-0.02249 0.04695,-0.04257 0.0734,-0.06024c0.02645,-0.01767 0.05436,-0.03259 0.08374,-0.04476c0.02939,-0.01217 0.05968,-0.02136 0.09087,-0.02756c0.03119,-0.00621 0.06269,-0.00931 0.0945,-0.00931c0.03181,0 0.06331,0.0031 0.0945,0.00931c0.03119,0.0062 0.06148,0.01539 0.09086,0.02756c0.02939,0.01217 0.0573,0.02709 0.08375,0.04476c0.02645,0.01767 0.05091,0.03775 0.0734,0.06024c0.02249,0.02249 0.04257,0.04696 0.06024,0.0734c0.01767,0.02644 0.03259,0.05436 0.04476,0.08374c0.01217,0.02938 0.02136,0.05967 0.02756,0.09087c0.00621,0.03119 0.00931,0.06269 0.00931,0.0945z"></path></g></g><g opacity="1"  transform="translate(59.69677734375 10.395263671875)  rotate(0)"><path  id="直线 15" style="fill:#3D2929; opacity:1;" d="M0.48438,0v7.25543c0,0.03181 -0.0031,0.06331 -0.00931,0.0945c-0.0062,0.03119 -0.01539,0.06148 -0.02756,0.09087c-0.01217,0.02938 -0.02709,0.05729 -0.04476,0.08374c-0.01767,0.02645 -0.03775,0.05091 -0.06024,0.0734c-0.02249,0.02249 -0.04696,0.04257 -0.0734,0.06024c-0.02644,0.01767 -0.05436,0.03259 -0.08374,0.04476c-0.02938,0.01217 -0.05967,0.02136 -0.09087,0.02757c-0.03119,0.0062 -0.06269,0.0093 -0.0945,0.00931c-0.03181,-0.00001 -0.0633,-0.00311 -0.0945,-0.00931c-0.03119,-0.00621 -0.06148,-0.0154 -0.09087,-0.02757c-0.02938,-0.01217 -0.0573,-0.02709 -0.08374,-0.04476c-0.02645,-0.01767 -0.05091,-0.03775 -0.0734,-0.06024c-0.02249,-0.02249 -0.04257,-0.04695 -0.06024,-0.0734c-0.01767,-0.02645 -0.03259,-0.05436 -0.04476,-0.08374c-0.01217,-0.02939 -0.02136,-0.05968 -0.02756,-0.09087c-0.00621,-0.03119 -0.00931,-0.06269 -0.00931,-0.0945v-7.25543c0,-0.03181 0.0031,-0.0633 0.00931,-0.0945c0.0062,-0.03119 0.01539,-0.06148 0.02756,-0.09087c0.01217,-0.02938 0.02709,-0.0573 0.04476,-0.08374c0.01767,-0.02645 0.03775,-0.05091 0.06024,-0.0734c0.02249,-0.02249 0.04696,-0.04257 0.0734,-0.06024c0.02644,-0.01767 0.05436,-0.03259 0.08374,-0.04476c0.02938,-0.01217 0.05967,-0.02136 0.09087,-0.02756c0.03119,-0.00621 0.06269,-0.00931 0.0945,-0.00931c0.03181,0 0.0633,0.0031 0.0945,0.00931c0.03119,0.0062 0.06148,0.01539 0.09087,0.02756c0.02938,0.01217 0.0573,0.02709 0.08374,0.04476c0.02645,0.01767 0.05091,0.03775 0.0734,0.06024c0.02249,0.02249 0.04257,0.04696 0.06024,0.0734c0.01767,0.02644 0.03259,0.05436 0.04476,0.08374c0.01217,0.02938 0.02136,0.05967 0.02756,0.09087c0.00621,0.03119 0.00931,0.06269 0.00931,0.0945z"></path><path  id="直线 16" style="fill:#3D2929; opacity:1;" d="M0.48438,92.3421v7.2554c0,0.0318 -0.0031,0.0633 -0.00931,0.0945c-0.0062,0.0312 -0.01539,0.0615 -0.02756,0.0909c-0.01217,0.0294 -0.02709,0.0573 -0.04476,0.0837c-0.01767,0.02647 -0.03775,0.05093 -0.06024,0.0734c-0.02249,0.02253 -0.04696,0.04253 -0.0734,0.06c-0.02644,0.018 -0.05436,0.033 -0.08374,0.045c-0.02938,0.012 -0.05967,0.02133 -0.09087,0.028c-0.03119,0.006 -0.06269,0.009 -0.0945,0.009c-0.03181,0 -0.0633,-0.003 -0.0945,-0.009c-0.03119,-0.00667 -0.06148,-0.016 -0.09087,-0.028c-0.02938,-0.012 -0.0573,-0.027 -0.08374,-0.045c-0.02645,-0.01747 -0.05091,-0.03747 -0.0734,-0.06c-0.02249,-0.02247 -0.04257,-0.04693 -0.06024,-0.0734c-0.01767,-0.0264 -0.03259,-0.0543 -0.04476,-0.0837c-0.01217,-0.0294 -0.02136,-0.0597 -0.02756,-0.0909c-0.00621,-0.0312 -0.00931,-0.0627 -0.00931,-0.0945v-7.2554c0,-0.0318 0.0031,-0.0633 0.00931,-0.0945c0.0062,-0.0312 0.01539,-0.0615 0.02756,-0.0909c0.01217,-0.0294 0.02709,-0.0573 0.04476,-0.0837c0.01767,-0.02647 0.03775,-0.05093 0.06024,-0.0734c0.02249,-0.02247 0.04696,-0.04257 0.0734,-0.0603c0.02644,-0.01767 0.05436,-0.03257 0.08374,-0.0447c0.02938,-0.0122 0.05967,-0.0214 0.09087,-0.0276c0.03119,-0.0062 0.06269,-0.0093 0.0945,-0.0093c0.03181,0 0.0633,0.0031 0.0945,0.0093c0.03119,0.0062 0.06148,0.0154 0.09087,0.0276c0.02938,0.01213 0.0573,0.02703 0.08374,0.0447c0.02645,0.01773 0.05091,0.03783 0.0734,0.0603c0.02249,0.02247 0.04257,0.04693 0.06024,0.0734c0.01767,0.0264 0.03259,0.0543 0.04476,0.0837c0.01217,0.0294 0.02136,0.0597 0.02756,0.0909c0.00621,0.0312 0.00931,0.0627 0.00931,0.0945z"></path></g><g opacity="1"  transform="translate(9.8980712890625 60.194091796875)  rotate(0)"><path  id="直线 17" style="fill:#3D2929; opacity:1;" d="M99.5975,0.48438h-7.2554c-0.0318,0 -0.0633,-0.0031 -0.0945,-0.00931c-0.0312,-0.0062 -0.0615,-0.01539 -0.0909,-0.02756c-0.0294,-0.01217 -0.0573,-0.02709 -0.0837,-0.04476c-0.02647,-0.01767 -0.05093,-0.03775 -0.0734,-0.06024c-0.02247,-0.02249 -0.04257,-0.04696 -0.0603,-0.0734c-0.01767,-0.02644 -0.03257,-0.05436 -0.0447,-0.08374c-0.0122,-0.02938 -0.0214,-0.05967 -0.0276,-0.09087c-0.0062,-0.03119 -0.0093,-0.06269 -0.0093,-0.0945c0,-0.03181 0.0031,-0.0633 0.0093,-0.0945c0.0062,-0.03119 0.0154,-0.06148 0.0276,-0.09087c0.01213,-0.02938 0.02703,-0.0573 0.0447,-0.08374c0.01773,-0.02645 0.03783,-0.05091 0.0603,-0.0734c0.02247,-0.02249 0.04693,-0.04257 0.0734,-0.06024c0.0264,-0.01767 0.0543,-0.03259 0.0837,-0.04476c0.0294,-0.01217 0.0597,-0.02136 0.0909,-0.02756c0.0312,-0.00621 0.0627,-0.00931 0.0945,-0.00931h7.2554c0.0318,0 0.0633,0.0031 0.0945,0.00931c0.0312,0.0062 0.0615,0.01539 0.0909,0.02756c0.0294,0.01217 0.0573,0.02709 0.0837,0.04476c0.02647,0.01767 0.05093,0.03775 0.0734,0.06024c0.02253,0.02249 0.04253,0.04696 0.06,0.0734c0.018,0.02644 0.033,0.05436 0.045,0.08374c0.012,0.02938 0.02133,0.05967 0.028,0.09087c0.006,0.03119 0.009,0.06269 0.009,0.0945c0,0.03181 -0.003,0.0633 -0.009,0.0945c-0.00667,0.03119 -0.016,0.06148 -0.028,0.09087c-0.012,0.02938 -0.027,0.0573 -0.045,0.08374c-0.01747,0.02645 -0.03747,0.05091 -0.06,0.0734c-0.02247,0.02249 -0.04693,0.04257 -0.0734,0.06024c-0.0264,0.01767 -0.0543,0.03259 -0.0837,0.04476c-0.0294,0.01217 -0.0597,0.02136 -0.0909,0.02756c-0.0312,0.00621 -0.0627,0.00931 -0.0945,0.00931z"></path><path  id="直线 18" style="fill:#3D2929; opacity:1;" d="M7.25543,0.48438h-7.25543c-0.03181,0 -0.0633,-0.0031 -0.0945,-0.00931c-0.03119,-0.0062 -0.06148,-0.01539 -0.09087,-0.02756c-0.02938,-0.01217 -0.0573,-0.02709 -0.08374,-0.04476c-0.02645,-0.01767 -0.05091,-0.03775 -0.0734,-0.06024c-0.02249,-0.02249 -0.04257,-0.04696 -0.06024,-0.0734c-0.01767,-0.02644 -0.03259,-0.05436 -0.04476,-0.08374c-0.01217,-0.02938 -0.02136,-0.05967 -0.02756,-0.09087c-0.00621,-0.03119 -0.00931,-0.06269 -0.00931,-0.0945c0,-0.03181 0.0031,-0.0633 0.00931,-0.0945c0.0062,-0.03119 0.01539,-0.06148 0.02756,-0.09087c0.01217,-0.02938 0.02709,-0.0573 0.04476,-0.08374c0.01767,-0.02645 0.03775,-0.05091 0.06024,-0.0734c0.02249,-0.02249 0.04696,-0.04257 0.0734,-0.06024c0.02644,-0.01767 0.05436,-0.03259 0.08374,-0.04476c0.02938,-0.01217 0.05967,-0.02136 0.09087,-0.02756c0.03119,-0.00621 0.06269,-0.00931 0.0945,-0.00931h7.25543c0.03181,0 0.06331,0.0031 0.0945,0.00931c0.03119,0.0062 0.06148,0.01539 0.09087,0.02756c0.02938,0.01217 0.05729,0.02709 0.08374,0.04476c0.02645,0.01767 0.05091,0.03775 0.0734,0.06024c0.02249,0.02249 0.04257,0.04696 0.06024,0.0734c0.01767,0.02644 0.03259,0.05436 0.04476,0.08374c0.01217,0.02938 0.02136,0.05967 0.02757,0.09087c0.0062,0.03119 0.0093,0.06269 0.00931,0.0945c-0.00001,0.03181 -0.00311,0.0633 -0.00931,0.0945c-0.00621,0.03119 -0.0154,0.06148 -0.02757,0.09087c-0.01217,0.02938 -0.02709,0.0573 -0.04476,0.08374c-0.01767,0.02645 -0.03775,0.05091 -0.06024,0.0734c-0.02249,0.02249 -0.04695,0.04257 -0.0734,0.06024c-0.02645,0.01767 -0.05436,0.03259 -0.08374,0.04476c-0.02939,0.01217 -0.05968,0.02136 -0.09087,0.02756c-0.03119,0.00621 -0.06269,0.00931 -0.0945,0.00931z"></path></g></g><g opacity="1"  transform="translate(0 140.473388671875)  rotate(0)"><path id="路径 170" fill-rule="evenodd" style="fill:#FAEDDC" opacity="1" d="M3.59,7.88zM66.6,29.87c7.91,5.72 10.13,16.47 5.46,24.79c-0.33,0.63 -0.73,1.26 -1.17,1.86c-3.07,4.24 -7.59,6.85 -12.43,7.65c-4.84,0.76 -9.95,-0.3 -14.21,-3.37l-36.36,-26.28c-8.2,-5.93 -10.29,-17.25 -4.94,-25.68c0.21,-0.32 0.41,-0.65 0.64,-0.96c3.08,-4.25 7.6,-6.86 12.44,-7.63c4.83,-0.79 9.95,0.27 14.21,3.34z"></path><path id="路径 171" fill-rule="evenodd" style="fill:#FFA255" opacity="1" d="M22.5245,45.0925zM22.5245,45.0925l22.35,-30.92l21.72,15.7c8.52,6.15 10.45,18.14 4.29,26.65c-3.06,4.24 -7.59,6.85 -12.42,7.64c-4.84,0.77 -9.96,-0.29 -14.22,-3.37z"></path><g opacity="1"  transform="translate(19.6234130859375 37.5255126953125)  rotate(0)"><path id="路径 172" fill-rule="evenodd" style="fill:#FFFFFF" opacity="1" d="M21.1653,13.0374zM21.1653,13.0374l5.5,3.97c1.05,0.76 1.29,2.25 0.53,3.3c-0.76,1.06 -2.25,1.3 -3.3,0.54l-5.5,-3.98c-1.06,-0.76 -1.3,-2.25 -0.53,-3.3c0.76,-1.06 2.24,-1.3 3.3,-0.53z"></path><path id="路径 173" fill-rule="evenodd" style="fill:#FFFFFF" opacity="1" d="M3.75,0.45zM3.75,0.45l11.98,8.66c1.05,0.76 1.29,2.24 0.53,3.3c-0.76,1.05 -2.25,1.29 -3.3,0.53l-11.98,-8.66c-1.06,-0.76 -1.3,-2.25 -0.53,-3.3c0.76,-1.06 2.24,-1.3 3.3,-0.53z"></path></g></g><g opacity="1"  transform="translate(214.5927734375 254.519287109375)  rotate(0)"><path id="矩形 22" fill-rule="evenodd" style="fill:#FF988C" opacity="1" d="M20.1389 40.0228L97.0085 33.5704C108.129 32.6369 116.391 22.8616 115.457 11.7408L115.338 10.3158C114.404 -0.805125 104.628 -9.07638 93.5071 -8.1429L16.6474 -1.69131C5.51658 -0.756993 -2.74472 9.01828 -1.8104 20.1491L-1.69078 21.5741C-0.757297 32.695 9.01798 40.9563 20.1389 40.0228Z"></path><path id="矩形 23" fill-rule="evenodd" style="fill:#3D2929" opacity="0.14" d="M41.3569 33.9247L79.3633 30.7344L76.6774 -1.26307L38.671 1.92725L41.3569 33.9247Z"></path><g opacity="1"  transform="translate(11.22222900390625 6.6890869140625)  rotate(0)"><path id="路径 174" fill-rule="evenodd" style="fill:#FAEDDC" opacity="1" d="M4.08,3.92395zM4.08,3.92395c0.09,1.13001 -0.74,2.11001 -1.87,2.21001c-1.12,0.09 -2.11,-0.74 -2.2,-1.87c-0.1,-1.12 0.74,-2.11001 1.86,-2.2c1.13,-0.1 2.11,0.74 2.21,1.85999z"></path><path id="路径 175" fill-rule="evenodd" style="fill:#FAEDDC" opacity="1" d="M13.1402,11.58zM13.1402,11.58c0.09,1.13 -0.74,2.11 -1.87,2.21c-1.12,0.09 -2.10996,-0.74 -2.19996,-1.87c-0.1,-1.12 0.74,-2.11004 1.85996,-2.20004c1.13,-0.1 2.11,0.74004 2.21,1.86004z"></path><path id="路径 176" fill-rule="evenodd" style="fill:#FAEDDC" opacity="1" d="M19.5539,1.87zM19.5539,1.87c0.09,1.13 -0.74,2.11 -1.87,2.21c-1.12,0.09 -2.11,-0.74 -2.2,-1.87c-0.1,-1.12 0.74,-2.11 1.86,-2.2c1.13,-0.1 2.11,0.74 2.21,1.86z"></path><path id="路径 177" fill-rule="evenodd" style="fill:#FAEDDC" opacity="1" d="M21.0479,19.6566zM21.0479,19.6566c0.09,1.13 -0.74,2.11 -1.87,2.21c-1.12,0.09 -2.11,-0.74 -2.2,-1.87c-0.1,-1.12 0.74,-2.11 1.86,-2.2c1.13,-0.1 2.11,0.74 2.21,1.86z"></path><path id="路径 178" fill-rule="evenodd" style="fill:#FAEDDC" opacity="1" d="M5.38566,20.7551zM5.38566,20.7551c0.09,1.13 -0.74,2.11 -1.87,2.21c-1.12,0.09 -2.11,-0.74 -2.2,-1.87c-0.1,-1.12 0.74,-2.11 1.86,-2.2c1.13,-0.1 2.11,0.74 2.21,1.86z"></path></g><g opacity="1"  transform="translate(84.513671875 0.536376953125)  rotate(0)"><path id="路径 179" fill-rule="evenodd" style="fill:#FAEDDC" opacity="1" d="M4.08,3.92395zM4.08,3.92395c0.09,1.13001 -0.74,2.11001 -1.87,2.21001c-1.12,0.09 -2.11,-0.74 -2.2,-1.87c-0.1,-1.12 0.74,-2.11001 1.86,-2.2c1.13,-0.1 2.11,0.74 2.21,1.85999z"></path><path id="路径 180" fill-rule="evenodd" style="fill:#FAEDDC" opacity="1" d="M13.1387,11.58zM13.1387,11.58c0.09,1.13 -0.74,2.11 -1.87,2.21c-1.12,0.09 -2.10998,-0.74 -2.19998,-1.87c-0.1,-1.12 0.74,-2.11004 1.85998,-2.20004c1.13,-0.1 2.11,0.74004 2.21,1.86004z"></path><path id="路径 181" fill-rule="evenodd" style="fill:#FAEDDC" opacity="1" d="M19.5539,1.87zM19.5539,1.87c0.09,1.13 -0.74,2.11 -1.87,2.21c-1.12,0.09 -2.11,-0.74 -2.2,-1.87c-0.1,-1.12 0.74,-2.11 1.86,-2.2c1.13,-0.1 2.11,0.74 2.21,1.86z"></path><path id="路径 182" fill-rule="evenodd" style="fill:#FAEDDC" opacity="1" d="M21.0464,19.6565zM21.0464,19.6565c0.09,1.13 -0.74,2.11 -1.87,2.21c-1.12,0.09 -2.11,-0.74 -2.2,-1.87c-0.1,-1.12 0.74,-2.11 1.86,-2.2c1.13,-0.1 2.11,0.74 2.21,1.86z"></path><path id="路径 183" fill-rule="evenodd" style="fill:#FAEDDC" opacity="1" d="M5.38444,20.7562zM5.38444,20.7562c0.09,1.13 -0.74,2.11 -1.87,2.21c-1.12,0.09 -2.11,-0.74 -2.2,-1.87c-0.1,-1.12 0.74,-2.11 1.86,-2.2c1.13,-0.1 2.11,0.74 2.21,1.86z"></path></g></g><g opacity="1"  transform="translate(33.140380859375 41.88983154296875)  rotate(0)"><g opacity="1"  transform="translate(8.62628173828125 0)  rotate(0)"><path id="路径 184" fill-rule="evenodd" style="fill:#FFFFFF" opacity="1" d="M73.3863,5.66zM73.3863,5.66c0,3.13 -2.53,5.66 -5.66,5.66c-3.13,0 -5.66,-2.53 -5.66,-5.66c0,-3.12 2.53,-5.66 5.66,-5.66c3.13,0 5.66,2.54 5.66,5.66z"></path><path id="路径 185" fill-rule="evenodd" style="fill:#FFFFFF" opacity="1" d="M118.687,87.0635zM118.687,87.0635c0,3.13 -2.53,5.66 -5.66,5.66c-3.13,0 -5.66,-2.53 -5.66,-5.66c0,-3.13 2.53,-5.66 5.66,-5.66c3.13,0 5.66,2.53 5.66,5.66z"></path><path id="路径 186" fill-rule="evenodd" style="fill:#FFFFFF" opacity="1" d="M239.215,37.3365zM239.215,37.3365c0,3.13 -2.53,5.66 -5.66,5.66c-3.13,0 -5.66,-2.53 -5.66,-5.66c0,-3.13 2.53,-5.66 5.66,-5.66c3.13,0 5.66,2.53 5.66,5.66z"></path><path id="路径 187" fill-rule="evenodd" style="fill:#FFFFFF" opacity="1" d="M207.46,267.199zM207.46,267.199c0,3.13 -2.53,5.66 -5.66,5.66c-3.13,0 -5.66,-2.53 -5.66,-5.66c0,-3.13 2.53,-5.66 5.66,-5.66c3.13,0 5.66,2.53 5.66,5.66z"></path><path id="路径 188" fill-rule="evenodd" style="fill:#FFFFFF" opacity="1" d="M11.33,184.877zM11.33,184.877c0,3.13 -2.54,5.66 -5.67,5.66c-3.12,0 -5.66,-2.53 -5.66,-5.66c0,-3.13 2.54,-5.66 5.66,-5.66c3.13,0 5.67,2.53 5.67,5.66z"></path></g><g opacity="1"  transform="translate(0 70.74090576171875)  rotate(0)"><path id="路径 189" fill-rule="evenodd" style="fill:#FAEDDC" opacity="1" d="M15.8,10.39zM0,13.45l10.39,-2.87l2.53,-10.58l2.88,10.39l10.58,2.53l-10.39,2.88l-2.54,10.58l-2.87,-10.39z"></path></g><g opacity="1"  transform="translate(20.612060546875 202.39398193359375)  rotate(0)"><path id="路径 190" fill-rule="evenodd" style="fill:#FAEDDC" opacity="1" d="M15.8,10.39zM0,13.45l10.39,-2.87l2.53,-10.58l2.88,10.39l10.58,2.53l-10.39,2.88l-2.54,10.58l-2.87,-10.39z"></path></g><g opacity="1"  transform="translate(159.62005615234375 277.19134521484375)  rotate(0)"><path id="路径 191" fill-rule="evenodd" style="fill:#FAEDDC" opacity="1" d="M15.8,10.39zM12.92,0l2.88,10.39l10.58,2.53l-10.39,2.88l-2.54,10.58l-2.87,-10.39l-10.58,-2.54l10.39,-2.87z"></path></g></g></g></g></svg>