<svg xmlns="http://www.w3.org/2000/svg" xmlns:xlink="http://www.w3.org/1999/xlink" width="387.49169921875" height="363.6300354003906" viewBox="0 0 387.49169921875 363.6300354003906" fill="none"><g opacity="1"  transform="translate(0.00079345703125 0)  rotate(0)"><path id="路径 117" fill-rule="evenodd" style="fill:#FFFFFF" opacity="1" d="M192.91,363.63zM272.16,341.54c-0.31,0.24 -0.59,0.44 -0.85,0.61c-18.02,13.15 -39.4,19.9 -67.26,21.23c-0.16,0.01 -0.32,0.01 -0.48,0.01l-0.37,0.02c-3.37,0.15 -6.7,0.22 -10.29,0.22c-4.06,0 -8.4,-0.09 -13.28,-0.28c-32.36,-1.25 -59.21,-4.44 -84.21,-10.03c-4.66,1.1 -9.21,1.65 -13.55,1.65c-0.96,0 -1.92,-0.02 -2.89,-0.08c-1.68,-0.11 -3.25,-0.6 -4.63,-1.38c-5.41,-0.64 -10.2,-2.37 -14.28,-5.15c-7.68,-5.23 -13,-12.3 -15.82,-21.04c-0.21,-0.22 -0.42,-0.44 -0.63,-0.66c-12.06,-12.84 -21.64,-28.36 -27.69,-44.88c-4.42,-12.1 -9.28,-26.45 -11.92,-41.19c-0.46,-2.61 -0.83,-5.18 -1.12,-7.67c-2.85,-5.31 -3.11,-11.55 -0.7,-16.95c0.5,-15.16 4.13,-29.8 10.83,-43.58c1.03,-2.1 2.1,-4.23 3.21,-6.35c-5.81,-12.55 -10.26,-25.51 -13.54,-39.46c-2.87,-12.18 -5.17,-28.06 2.6,-42.98c4.45,-8.53 11.96,-13.68 20.11,-13.78c0.04,0 0.2,0 0.25,0c5.86,0 10.4,2.67 13.31,4.68c2.18,1.5 4.2,3.09 6.1,4.74c3.52,-13.08 17.41,-22.27 35.66,-23.54c18.99,-18.32 42.16,-30.88 67.35,-36.49c12.52,-12.25 30.73,-19.21 50.56,-19.21c2.72,0 5.47,0.14 8.16,0.41c17.59,1.8 33.32,8.93 44.98,20.28c3.41,-2.21 7.48,-3.47 11.82,-3.47c12,0 21.77,9.77 21.77,21.77c0,4.7 -1.53,9.08 -4.11,12.66c2.06,1.94 4.04,3.96 5.93,6.04c0.62,0.69 1.23,1.38 1.81,2.06c0.15,0 0.29,0 0.44,0c9.93,0 19.33,4.64 25.4,12.47c0.26,0.27 0.48,0.53 0.67,0.77c0.39,0.51 0.82,1.16 1.2,1.96c3.02,4.84 4.68,10.36 4.84,16.06c0.2,7.62 -2.31,15 -7.01,20.89c0.72,3.05 1.35,6.16 1.89,9.3c10.69,-8.64 23.09,-15.58 37.73,-17.02c1.24,-0.12 2.5,-0.18 3.76,-0.18c14.06,0 25.29,7.08 28.6,18.04c3.77,12.45 -4.33,23.89 -7.38,28.2c-10.97,15.52 -24.52,30.46 -41.23,45.44c7.06,8.77 10.11,22.46 7.53,37.56c-0.2,1.2 -0.49,2.83 -0.93,4.58c-3.65,15 -12.13,27.14 -22.73,32.94l-0.12,0.35c-9.94,28.94 -27.43,53.9 -49.22,70.24c-0.09,0.07 -0.18,0.13 -0.27,0.19z"></path><g opacity="1"  transform="translate(10.1903076171875 10.2147216796875)  rotate(0)"><path id="路径 118" fill-rule="evenodd" style="fill:#4EBCF7" opacity="1" d="M304.439,249.047zM15.3394,268.057c-4.84,-13.24 -9.11005,-26.33 -11.46005,-39.48c-0.55,-3.1 -0.97,-6.18 -1.26,-9.26c-0.36,-3.64 -0.51,-7.29 -0.46,-10.9c-0.02,0 0,-0.01 0,-0.01c0.14,-14.35 3.34,-28.35 9.86005,-41.76c1.75,-3.59 3.57,-7.12 5.46,-10.59c9.59,-17.79 20.43,-34.41 27.53,-53.61c0.31,-0.83 0.63,-1.67 0.97,-2.5002c0.97,-2.52 2.04,-4.99 3.18,-7.42c0.55,-1.16 1.09,-2.32 1.67,-3.46c5.37,-10.64 12.14,-20.48 20.0199,-29.25c1.3301,-1.46 2.6701,-2.89 4.0501,-4.29c18.41,-18.73 42.1396,-32.02 68.1196,-37.18h0.02c0.68,-0.14 1.34,-0.27 2.04,-0.39h0.01c5.3,-0.97 10.7,-1.58 16.14,-1.86c4.94,-0.24 9.96,-0.27 15.02,-0.07c0,0 0.02,-0.01 0.03,0c5.02,0.17 10.08,0.58 15.12,1.23c0.09,0.02 0.15,0.02 0.24,0.03c6.4,0.82 12.77,2.01 19.05,3.61h0.02c9.53,2.42 18.79,5.76 27.49,10.13c1.57,0.77 3.12,1.59 4.65,2.45c1.38,0.77 2.74,1.55 4.08,2.4c2.28,1.38 4.52,2.86 6.69,4.43c5.72,4.09 11.04,8.77 15.8,14.03c1.74,1.92 3.41,3.91 4.96,5.96c0.46,0.58 0.9,1.17 1.32,1.77c3.66,4.97 6.82,10.3 9.52,15.85c0.09,0.15 0.16,0.31 0.22,0.46c0.09,0.15 0.16,0.29 0.22,0.44c3.03,6.35 5.47,13.02 7.36,19.87c0.03,0.07 0.05,0.12 0.07,0.19v0.01c2.99,10.8602 4.66,22.1802 5.14,33.4602c0.08,1.71 0.13,3.45 0.15,5.17c0.19,14.78 -1.4,29.62 0.15,44.36c0.11,1.04 0.24,2.08 0.41,3.1c0.14,0.97 0.31,1.94 0.5,2.91c0.42,2.25 0.93,4.48 1.5,6.7c2.12,8.56 4.93,16.98 6.06,25.77c0.22,1.69 0.37,3.4 0.45,5.12c0.35,7.95 -0.91,15.87 -3.01,23.57c-0.37,1.36 -0.76,2.72 -1.19,4.06c-0.46,1.48 -0.94,2.97 -1.45,4.45c-8.71,25.38 -24.05,49.18 -45.69,65.4c-0.29,0.21 -0.56,0.43 -0.85,0.62c-18.61,13.63 -39.84,18.33 -61.89,19.39c-0.3,0 -0.61,0.02 -0.91,0.03c-7.48,0.33 -15.04,0.22 -22.63,-0.07c-28.58,-1.1 -56.86,-3.89 -84.7496,-10.33c-0.58,-0.12 -1.14,-0.26 -1.72,-0.41h-0.0101c-0.6499,-0.13 -1.2999,-0.29 -1.9399,-0.46h-0.02c-0.03,0 -0.07,-0.02 -0.1,-0.02c-7.63,-1.85 -16.26,-3.28 -22.98,-7.25c-5.08,-2.99 -9.79,-7.2 -14.05,-11.51c-0.37,-0.39 -0.77,-0.76 -1.12,-1.15c-0.77,-0.79 -1.52,-1.55 -2.25,-2.34c-11.15,-11.86 -19.95,-26.09 -25.55,-41.4z"></path><g opacity="1"  transform="translate(0 0)  rotate(0)"><g opacity="1"  transform="translate(201.0072021484375 104.00015258789062)  rotate(0)"><path id="路径 119" fill-rule="evenodd" style="fill:#AD8B96" opacity="1" d="M3.5,135.05zM143.96,0.13c8.66,-0.85 19.05,2.32 21.58,10.65c2.02,6.7 -1.9,13.64 -5.94,19.35c-20.03,28.32 -46.71,51.28 -74.65,71.82c-27.94,20.54 -57.42,38.97 -84.95,60.06c1.24,-7.69 0.63,-19.73 3.5,-26.96c16.26,-41.03 35.77,-81.65 65.8,-113.99c2.88,-3.11 5.95,-6.19 9.83,-7.89c3.88,-1.7 8.76,-1.73 12.01,0.99c4.96,4.17 3.82,11.97 2.23,18.25c13.99,-14.95 30.21,-30.27 50.59,-32.28z"></path></g><g opacity="1"  transform="translate(0 69.81527709960938)  rotate(0)"><path id="路径 120" fill-rule="evenodd" style="fill:#AD8B96" opacity="1" d="M95.05,223.2zM95.05,223.2c-20.69,-30.36 -55.1,-52.82 -76.55,-82.79c-5.16,-7.21 -9.64,-15.2 -9.08,-23.91c0.18,-2.94 1.28,-6.31 4.53,-7.94c3.47,-1.75 7.77,-0.68 10.87,1c3.09,1.67 5.8,3.94 9.5,4.68c-15.65,-21.88 -25.9,-44.63 -31.88,-70.04c-2.76,-11.69 -4.32,-24.3 1.72,-35.91c2.06,-3.96 6.03,-8.22 11.18,-8.29c2.98,-0.04 5.47,1.38 7.62,2.87c12.77,8.84 20.29,21.59 26.71,34.31c29.45,58.44 43.44,120.95 45.38,186.02z"></path></g><g opacity="1"  transform="translate(41.81439208984375 0)  rotate(0)"><g opacity="1"  transform="translate(57.61163330078125 0)  rotate(0)"><path id="路径 121" fill-rule="evenodd" style="fill:#3D2929" opacity="1" d="M138.83,21.88zM168.2,124.99c3.84,6.97 3.21,15.6 1.01,23.26c-1.96,6.81 -5.22,13.47 -10.58,18.12c-3.36,2.9 -7.41,4.9 -11.58,6.41c-14.55,5.24 -30.59,4.6 -45.83,1.97c-23.09,-3.99 -45.41,-12.43 -65.36,-24.74c-13.05,-8.05 -25.51,-18.26 -31.93,-32.18c-6.43,-13.92 -5.32,-32.2 5.94,-42.61c5.63,-5.2 13.38,-8.24 17.55,-14.68c3.82,-5.91 3.79,-13.41 5.18,-20.32c5.85,-29.18 36.06,-42.66 63.54,-39.86c16.28,1.66 32.03,8.88 42.69,21.52c1.31,1.55 2.55,3.19 3.69,4.91c8.13,12.14 11.69,27.35 9.11,41.8c-2.09,11.68 -7.87,24.08 -2.7,34.77c4.23,8.75 14.58,13.12 19.27,21.63z"></path></g><g opacity="1"  transform="translate(2.44549560546875 2.71533203125)  rotate(0)"><g opacity="1"  transform="translate(0 12.295623779296875)  rotate(0)"><g opacity="1"  transform="translate(0 119.96905517578125)  rotate(0)"><path id="路径 122" fill-rule="evenodd" style="fill:#FAEDDC" opacity="1" d="M227.82,141.18zM39.1,197.21h-0.01c-0.65,-0.14 -1.3,-0.29 -1.94,-0.46h-0.02c-0.03,0 -0.07,-0.02 -0.1,-0.02c-7.63,-1.85 -16.26,-3.28 -22.99,-7.25c-5.07,-3 -9.78,-7.2 -14.04,-11.51c0,-9.82 1.84,-24.63 4.94,-41.04l0.2,-1.08c1.38,-7.16 2.98,-14.62 4.78,-22.08c0.48,-1.96 0.96,-3.91 1.47,-5.87c0.24,-0.95 0.48,-1.91 0.73,-2.84c0.09,-0.4 0.19,-0.79 0.29,-1.18c1.02,-3.83 2.08,-7.64 3.18,-11.37c0.02,-0.07 0.04,-0.15 0.07,-0.22c5.04,-17.15 10.93,-32.79 17.01,-43.18c0.49,-0.85 1.04,-1.7 1.6,-2.52c0.02,-0.03 0.03,-0.05 0.09,-0.08v-0.02c0.44,-0.66 0.91,-1.32 1.39,-1.97c1.96,-2.56 4.21,-5.01 6.71,-7.37c11.37,-10.8 27.65,-19.56 41.84,-25.86c0.19,-0.09 0.39,-0.17 0.6,-0.26c0.12,-0.07 0.24,-0.12 0.37,-0.17c11.68,-5.12 21.81,-8.56 26.44,-10.03c0.14,-0.05 0.28,-0.1 0.41,-0.13c0.14,-0.05 0.27,-0.09 0.41,-0.12c1.19,-0.39 1.86,-0.58 1.86,-0.58l7.54,0.89l21.45,2.51l6.98,0.82l0.46,0.05c0,0 0.13,0.07 0.37,0.21c2.4,1.31 16.14,8.93 30.58,18.91h0.02c0.25,0.17 0.52,0.36 0.78,0.55c3.98,2.75 8,5.68 11.83,8.71c1.62,1.28 3.2,2.57 4.73,3.87c0.65,0.54 1.28,1.1 1.91,1.68c12,11.05 18.66,26.08 22.78,45.54c2.23,10.49 3.71,22.25 4.88,35.36c0.67,7.44 0.24,14.9 -0.88,22.08c-1.12,7.24 -2.95,14.17 -5.09,20.57v0.01c-3.7,11.1 -8.31,20.54 -11.73,26.83c-18.61,13.64 -39.84,18.34 -61.89,19.39c-0.3,0 -0.61,0.02 -0.91,0.04c-7.48,0.32 -15.04,0.22 -22.63,-0.07c-28.58,-1.11 -56.86,-3.9 -84.75,-10.33c-0.58,-0.12 -1.14,-0.26 -1.72,-0.41z"></path></g><g opacity="1"  transform="translate(120.54058837890625 101.08074951171875)  rotate(0)"><g opacity="1"  transform="translate(0 0)  rotate(0)"><path id="路径 123" fill-rule="evenodd" style="fill:#FF988C" opacity="1" d="M24.5,19.05zM4.11,0.1l0.02,-0.1l0.56,0.06l21.4,2.17l-0.56,5.99l-1.03,10.83c0,0 -2.96,9.26 -12.43,8.37c-9.39,-0.87 -12.07,-10.99 -12.07,-10.99l2.7,-9.4z"></path></g><g opacity="1"  transform="translate(2.70159912109375 0.0562744140625)  rotate(0)"><path id="路径 124" fill-rule="evenodd" style="fill:#3D2929" opacity="1" d="M22.82,8.16zM20.04,11.15c-2.36,2.06 -5.41,3.47 -8.51,3.29c-1.36,-0.07 -2.68,-0.43 -3.94,-0.94c-3.13,-1.3 -5.8,-3.65 -7.59,-6.53l1.41,-6.92c0.2,-0.02 0.38,-0.04 0.58,-0.05l21.4,2.17l-0.57,5.99c-0.84,1.09 -1.75,2.11 -2.78,2.99z"></path></g></g><g opacity="1"  transform="translate(89.25689697265625 0)  rotate(0)"><path id="路径 125" fill-rule="evenodd" style="fill:#FF988C" opacity="1" d="M105.4,61.63zM105.4,61.63c-1.07,7.03 -3.44,13.52 -6.82,19.26c-10.72,18.18 -31.62,28.95 -53.61,25.55c-18.02,-2.79 -32.51,-14.43 -39.8,-29.87c-4.44,-9.36 -6.22,-20.11 -4.55,-31.15c4.43,-29.22 31.47,-49.27 60.41,-44.79c28.93,4.47 48.8,31.78 44.37,61z"></path></g><g opacity="1"  transform="translate(74.768310546875 40.06903076171875)  rotate(0)"><path id="路径 126" fill-rule="evenodd" style="fill:#FF988C" opacity="1" d="M6.9,0.48zM0.22,8.88c0.67,-3.7 3.14,-7.2 6.68,-8.4c5.55,-1.88 9.6,2.05 11.1,6.85c2.01,6.49 4.77,12.99 3.59,19.94c-0.24,1.47 -0.79,3.08 -2.13,3.72c-0.62,0.3 -1.32,0.34 -2.01,0.33c-6.71,-0.15 -12.48,-5.37 -15.37,-11.48c-1.61,-3.4 -2.53,-7.25 -1.86,-10.96z"></path></g><g opacity="1"  transform="translate(180.938232421875 56.90924072265625)  rotate(0)"><path id="路径 127" fill-rule="evenodd" style="fill:#FF988C" opacity="1" d="M22.06,1.64zM22.06,1.64c3.02,2.21 4.34,6.29 3.88,10.03c-0.46,3.74 -2.48,7.14 -5.02,9.89c-4.57,4.96 -11.63,8.2 -18.07,6.31c-0.66,-0.19 -1.33,-0.45 -1.83,-0.92c-1.08,-1.01 -1.13,-2.72 -0.93,-4.19c0.94,-6.99 5.5,-12.36 9.35,-17.94c2.85,-4.13 7.88,-6.66 12.62,-3.18z"></path></g><g opacity="1"  transform="translate(121.17938232421875 43.61083984375)  rotate(0)"><g opacity="1"  transform="translate(0 0)  rotate(0)"><path id="路径 128" fill-rule="evenodd" style="fill:#3D2929" opacity="1" d="M8.12,4.75zM8.12,4.75c-0.34,2.25 -2.42,3.8 -4.65,3.45c-2.23,-0.34 -3.76,-2.45 -3.42,-4.7c0.34,-2.25 2.42,-3.8 4.65,-3.45c2.23,0.34 3.76,2.45 3.42,4.7z"></path></g><g opacity="1"  transform="translate(34.92889404296875 5.404937744140625)  rotate(0)"><path id="路径 129" fill-rule="evenodd" style="fill:#3D2929" opacity="1" d="M8.12,4.75zM8.12,4.75c-0.34,2.25 -2.42,3.8 -4.65,3.45c-2.23,-0.34 -3.76,-2.45 -3.42,-4.7c0.34,-2.25 2.42,-3.8 4.65,-3.45c2.23,0.34 3.76,2.45 3.42,4.7z"></path></g><g opacity="1"  transform="translate(12.126708984375 5.245849609375)  rotate(0)"><path id="路径 130" fill-rule="evenodd" style="fill:#FE6963" opacity="1" d="M4,2.55zM11.78,14.89c-0.48,0.13 -1,0 -1.49,0.11c-0.71,0.15 -1.22,0.75 -1.82,1.15c-1.39,0.94 -3.4,0.76 -4.61,-0.39c-0.47,-0.44 -0.86,-1.04 -1.48,-1.19c-0.5,-0.13 -1.04,0.06 -1.52,-0.12c-0.96,-0.34 -0.97,-1.7 -0.73,-2.71c0.75,-3.26 2.07,-6.38 3.87,-9.19c1.09,-1.7 3.9,-3.39 5.87,-2.09c0.71,0.47 1.2,1.22 1.58,2c1.36,2.75 1.56,5.92 1.73,9c0.04,0.67 0.07,1.35 -0.11,2c-0.19,0.64 -0.64,1.25 -1.29,1.43z"></path></g></g><g opacity="1"  transform="translate(118.00213623046875 33.702484130859375)  rotate(0)"><g opacity="1"  transform="translate(0 0)  rotate(0)"><path id="路径 131" fill-rule="evenodd" style="fill:#3D2929" opacity="1" d="M1.18,2.16zM0.05,4.13c-0.24,-0.78 0.46,-1.51 1.13,-1.97c1.58,-1.07 3.77,-2.1 5.72,-2.16c1.27,-0.04 4.5,0.6 4.48,2.32c-0.02,0.9 -1.03,1.42 -1.89,1.68c-2.36,0.71 -4.81,1.09 -7.27,1.11c-0.86,0.02 -1.92,-0.16 -2.17,-0.98z"></path></g><g opacity="1"  transform="translate(40.9208984375 4.60162353515625)  rotate(0)"><path id="路径 132" fill-rule="evenodd" style="fill:#3D2929" opacity="1" d="M10.15,2.88zM10.15,2.88c0.61,0.54 1.22,1.35 0.89,2.09c-0.35,0.78 -1.43,0.83 -2.28,0.72c-2.43,-0.32 -4.83,-0.99 -7.08,-1.98c-0.83,-0.36 -1.77,-0.99 -1.67,-1.89c0.18,-1.71 3.46,-1.96 4.72,-1.76c1.92,0.29 3.98,1.57 5.42,2.82z"></path></g><g opacity="1"  transform="translate(14.92315673828125 34.295135498046875)  rotate(0)"><path id="路径 133" fill-rule="evenodd" style="fill:#3D2929" opacity="1" d="M6.58,4.06zM6.29,4.05c-2.43,-0.09 -4.81,-1.39 -6.21,-3.38c-0.14,-0.19 -0.09,-0.46 0.1,-0.59c0.19,-0.14 0.46,-0.09 0.59,0.1c1.26,1.78 3.38,2.94 5.56,3.02c2.14,0.09 4.38,-0.91 5.77,-2.59c0.14,-0.18 0.41,-0.2 0.6,-0.06c0.18,0.15 0.2,0.42 0.05,0.6c-1.49,1.81 -3.83,2.91 -6.17,2.91c-0.1,0 -0.19,0 -0.29,-0.01z"></path></g></g><g opacity="1"  transform="translate(112.06268310546875 114.90374755859375)  rotate(0)"><path id="路径 134" fill-rule="evenodd" style="fill:#FF988C" opacity="1" d="M38.76,9.35zM38.76,9.35l-9.93,16.36l-21.77,35.9l-5.03,-39.9l-2.03,-16.36l9.42,-5.35l23.91,1.87c2.91,4.34 5.43,7.48 5.43,7.48z"></path></g><g opacity="1"  transform="translate(114.09722900390625 136.60986328125)  rotate(0)"><path id="路径 135" fill-rule="evenodd" style="fill:#FFA255" opacity="1" d="M26.8,4zM26.8,4l-21.78,35.9l-5.02,-39.9c8.17,4.2 17.76,5.65 26.8,4z"></path></g></g><g opacity="1"  transform="translate(87.97027587890625 0)  rotate(0)"><g opacity="1"  transform="translate(58.57318115234375 1.619873046875)  rotate(0)"><path id="路径 136" fill-rule="evenodd" style="fill:#3D2929" opacity="1" d="M0.66,0zM3.57,22.69c-3.08,-7.12 -4.51,-15.09 -2.91,-22.69c16.6,0.22 33.58,7.2 42.96,20.32c9.37,13.11 11.21,31.62 5.56,46.73c-13.46,-4.21 -24.03,-14.23 -32.87,-24.85c-5,-6.01 -9.66,-12.39 -12.74,-19.51z"></path></g><g opacity="1"  transform="translate(1.06756591796875 0)  rotate(0)"><path id="路径 137" fill-rule="evenodd" style="fill:#3D2929" opacity="1" d="M61.2,1.18zM61.2,1.18c0.1,7.61 -2.84,14.94 -7.23,21.13c-4.4,6.19 -10.2,11.34 -16.27,16.07c-10.72,8.36 -23.03,15.79 -37.05,17.05c-2.62,-15.61 2.75,-32.97 14.49,-43.6c11.73,-10.64 29.73,-13.84 46.06,-10.65z"></path></g><g opacity="1"  transform="translate(101.0888671875 63.11676025390625)  rotate(0)"><path id="路径 138" fill-rule="evenodd" style="fill:#3D2929" opacity="1" d="M0,1.11zM0.74,13.73c-0.25,-4.21 -0.49,-8.41 -0.74,-12.62c2.97,0.14 5.57,-1.23 8.54,-1.1c0.43,3.01 -0.41,6.18 -2.26,8.59c-1.59,2.08 -2.94,3.6 -5.54,5.13z"></path></g><g opacity="1"  transform="translate(0 50.52325439453125)  rotate(0)"><path id="路径 139" fill-rule="evenodd" style="fill:#3D2929" opacity="1" d="M8.78,2.63zM8.78,2.63l-3.01,12.27c-2.28,-1.97 -3.33,-3.71 -4.52,-6.05c-1.39,-2.7 -1.63,-5.97 -0.67,-8.85c2.94,0.41 5.26,2.22 8.2,2.63z"></path></g></g></g><g opacity="1"  transform="translate(85.68505859375 138.83358764648438)  rotate(0)"><g opacity="1"  transform="translate(0 6.15106201171875)  rotate(0)"><path id="路径 140" fill-rule="evenodd" style="fill:#3D2929" opacity="1" d="M28.53,84.6zM16.35,9.73l-12.81,11.1l25.16,62.61l41.98,-37.98l-3.16,-27.89c-0.02,-0.23 0.14,-0.44 0.37,-0.47l31.01,-3.77c0.25,-0.02 0.44,0.14 0.47,0.37c0.03,0.24 -0.14,0.45 -0.37,0.48l-30.59,3.71l3.14,27.69c0.02,0.14 -0.03,0.27 -0.13,0.36l-42.6,38.54c-0.08,0.08 -0.18,0.12 -0.29,0.12c-0.03,0 -0.06,-0.01 -0.09,-0.02c-0.14,-0.03 -0.25,-0.12 -0.3,-0.25l-25.5,-63.46c-0.07,-0.17 -0.02,-0.36 0.11,-0.48l12.59,-10.91l-15.13,-8.69c-0.2,-0.11 -0.27,-0.37 -0.15,-0.58c0.11,-0.2 0.37,-0.27 0.58,-0.15l15.64,8.98c0.12,0.07 0.2,0.19 0.22,0.33c0.01,0.13 -0.04,0.27 -0.15,0.36z"></path></g><g opacity="1"  transform="translate(28.10797119140625 0)  rotate(0)"><path id="路径 141" fill-rule="evenodd" style="fill:#3D2929" opacity="1" d="M0.43,90.75zM0,90.3c0.06,-1.05 1.44,-25.87 7.59,-36.99c12.03,-21.78 31.33,-52.8 31.52,-53.11c0.12,-0.2 0.39,-0.26 0.59,-0.13c0.2,0.12 0.26,0.38 0.13,0.58c-0.19,0.31 -19.47,31.31 -31.5,53.07c-6.05,10.95 -7.47,36.37 -7.48,36.62c-0.01,0.23 -0.2,0.41 -0.42,0.41h-0.03c-0.23,-0.02 -0.41,-0.22 -0.4,-0.45z"></path></g></g><g opacity="1"  transform="translate(114.08233642578125 134.84371948242188)  rotate(0)"><path id="路径 142" fill-rule="evenodd" style="fill:#3D2929" opacity="1" d="M7.67,57.93zM7.67,57.93c-0.21,0 -0.39,-0.15 -0.42,-0.37l-7.25,-57.08c-0.03,-0.23 0.14,-0.45 0.37,-0.48c0.25,-0.02 0.45,0.14 0.48,0.37l7.24,57.09c0.03,0.23 -0.13,0.44 -0.37,0.47z"></path></g><g opacity="1"  transform="translate(0 171.69259643554688)  rotate(0)"><g opacity="1"  transform="translate(7.29254150390625 0)  rotate(0)"><g opacity="1"  transform="translate(29.46697998046875 0)  rotate(0)"><path id="路径 143" fill-rule="evenodd" style="fill:#3D2929" opacity="1" d="M0.67,13.71zM0.67,13.71c0,0 -3.19,-10.73 4.35,-12.76c7.53,-2.02 37.96,-0.57 39.12,2.03c1.15,2.61 0.87,11.6 0.87,11.6z"></path></g><g opacity="1"  transform="translate(0 5.8817138671875)  rotate(0)"><path id="路径 144" fill-rule="evenodd" style="fill:#B0D8E4" opacity="1" d="M0,0zM28.25,131.27l-28.25,-131.27l104.32,6.52l19.12,128.22z"></path></g></g><g opacity="1"  transform="translate(51.628662109375 58.1944580078125)  rotate(0)"><g opacity="1"  transform="translate(0 0)  rotate(0)"><path id="路径 145" fill-rule="evenodd" style="fill:#FF988C" opacity="1" d="M0,48.53zM0,48.53c0,0 21.15,-13.62 30.14,-21.44c8.98,-7.83 26.94,-28.98 30.71,-26.95c3.77,2.02 -8.98,25.5 -8.98,25.5l17.39,-17.68c0,0 7.53,2.03 5.5,9.56c0,0 5.51,1.16 5.22,6.09c-0.29,4.92 -3.48,10.14 -3.48,10.14c0,0 3.19,-2.61 3.77,2.9c0.58,5.5 -11.59,20.28 -15.94,23.47c-4.35,3.19 -48.97,21.73 -48.97,21.73z"></path></g><g opacity="1"  transform="translate(64.56927490234375 17.3018798828125)  rotate(0)"><path id="路径 146" fill-rule="evenodd" style="fill:#3D2929" opacity="1" d="M0.43,14.28zM0.43,14.28c-0.09,0 -0.18,-0.03 -0.26,-0.09c-0.19,-0.14 -0.23,-0.4 -0.09,-0.59l9.85,-13.43c0.14,-0.19 0.41,-0.23 0.59,-0.09c0.19,0.14 0.23,0.41 0.09,0.6l-9.84,13.42c-0.09,0.12 -0.21,0.18 -0.34,0.18z"></path></g><g opacity="1"  transform="translate(69.46270751953125 21.34075927734375)  rotate(0)"><path id="路径 147" fill-rule="evenodd" style="fill:#3D2929" opacity="1" d="M0.43,21.5zM0.11,20.78c3.16,-3.4 5.36,-6.37 6.94,-9.31c1.97,-3.68 2.98,-7.49 2.94,-11.04c0,-0.23 0.19,-0.42 0.42,-0.42c0.22,-0.05 0.43,0.18 0.43,0.41c0.05,3.69 -1,7.65 -3.04,11.45c-1.61,3.01 -3.85,6.03 -7.06,9.49c-0.09,0.09 -0.2,0.14 -0.31,0.14c-0.11,0 -0.21,-0.04 -0.29,-0.12c-0.18,-0.16 -0.19,-0.42 -0.03,-0.6z"></path></g></g><g opacity="1"  transform="translate(0 54.12982177734375)  rotate(0)"><g opacity="1"  transform="translate(0 0)  rotate(0)"><path id="路径 148" fill-rule="evenodd" style="fill:#FAEDDC" opacity="1" d="M55.97,35.64zM55.97,35.64l22.61,52.16c0,0 -44.34,29.99 -64.77,16.08c-20.43,-13.91 -13.47,-40.42 -8.69,-65.2c4.78,-24.77 12.6,-38.68 12.6,-38.68l12.75,47.38z"></path></g><g opacity="1"  transform="translate(18.1683349609375 35.21551513671875)  rotate(0)"><path id="路径 149" fill-rule="evenodd" style="fill:#3D2929" opacity="1" d="M11.7,73.5zM8.98,72.99c0.02,-0.23 0.23,-0.42 0.45,-0.4c23.46,1.39 47.82,-18.87 50.46,-21.13l-22.3,-50.47l-36.99,16.2c-0.22,0.09 -0.47,-0.01 -0.56,-0.22c-0.1,-0.22 0,-0.47 0.21,-0.56l37.39,-16.37c0.21,-0.1 0.46,0 0.55,0.21l22.61,51.15c0.07,0.17 0.03,0.37 -0.11,0.49c-0.25,0.22 -24.64,21.61 -48.99,21.61c-0.77,0 -1.55,-0.02 -2.32,-0.06c-0.23,-0.01 -0.41,-0.22 -0.4,-0.45z"></path></g></g></g><g opacity="1"  transform="translate(150.64105224609375 215.44192504882812)  rotate(0)"><path id="路径 150" fill-rule="evenodd" style="fill:#3D2929" opacity="1" d="M38.51,0.52zM38.51,0.52c-2.79,11.54 -5.75,23.07 -8.87,34.56c-8.43,31.14 -18.05,62.09 -28.72,92.44c-0.31,0 -0.61,0.02 -0.92,0.04c10.59,-30.12 20.16,-60.81 28.55,-91.7c3.22,-11.81 6.26,-23.66 9.12,-35.53c0.07,-0.23 0.29,-0.37 0.53,-0.32c0.22,0.05 0.36,0.29 0.31,0.51z"></path></g></g><g opacity="1"  transform="translate(43.26220703125 55.528472900390625)  rotate(0)"><g opacity="1"  transform="translate(0 0)  rotate(0)"><g opacity="1"  transform="translate(0 4.18121337890625)  rotate(0)"><path id="路径 151" fill-rule="evenodd" style="fill:#E7D8DD" opacity="1" d="M0.1,18.28zM37.45,0.42c18.61,2.29 32.56,13.63 31.63,25.53c-0.01,0.18 -0.03,0.38 -0.05,0.58c-1.34,11.32 -15.88,19.06 -33.25,18.2c-1.27,-0.06 -2.55,-0.14 -3.85,-0.31c-19.03,-2.26 -33.28,-13.97 -31.83,-26.14c0.16,-1.26 0.46,-2.45 0.9,-3.62c4,-10.09 19.1,-16.31 36.2,-14.28c0.07,0.02 0.18,0.02 0.25,0.04z"></path></g><g opacity="1"  transform="translate(0.95599365234375 0)  rotate(0)"><path id="路径 152" fill-rule="evenodd" style="fill:#FAEDDC" opacity="1" d="M0.05,18.84zM37.2,0.39c0.12,0 0.27,0.04 0.39,0.07c18.83,2.37 32.87,13.98 31.44,26.05c-0.16,1.26 -0.46,2.46 -0.9,3.62c-3.83,9.66 -17.91,15.81 -34.11,14.52c-0.71,-0.06 -1.39,-0.13 -2.1,-0.22c-18.72,-2.25 -32.84,-13.62 -31.87,-25.59c0.01,-0.17 0.03,-0.38 0.05,-0.55c1.45,-12.17 18.04,-20.19 37.1,-17.9z"></path></g><g opacity="1"  transform="translate(34.47064208984375 0.4556884765625)  rotate(0)"><path id="路径 153" fill-rule="evenodd" style="fill:#FFA255" opacity="1" d="M0.5,44.19zM0.5,44.19c-0.53,-3.89 -0.55,-7.89 -0.46,-11.82c0.17,-9.47 0.8,-19.03 2.94,-28.23c0.32,-1.4 0.68,-2.76 1.1,-4.14c18.83,2.37 32.86,13.99 31.43,26.06c-0.15,1.25 -0.45,2.45 -0.9,3.61c-3.82,9.67 -17.9,15.81 -34.11,14.52z"></path></g></g><g opacity="1"  transform="translate(232.48907470703125 128.73626708984375)  rotate(0)"><g opacity="1"  transform="translate(4.0408935546875 1.45166015625)  rotate(0)"><path id="路径 154" fill-rule="evenodd" style="fill:#E7D8DD" opacity="1" d="M14.85,67.85zM30.71,0.28c0.18,0.04 0.37,0.08 0.57,0.13c11.08,2.68 17.02,18.04 14.1,35.18c-0.21,1.26 -0.45,2.51 -0.77,3.79c-4.52,18.62 -17.86,31.37 -29.76,28.47c-1.23,-0.31 -2.38,-0.74 -3.49,-1.33c-9.54,-5.17 -13.91,-20.91 -9.84,-37.64c0.02,-0.07 0.03,-0.18 0.06,-0.25c4.51,-18.2 17.43,-30.69 29.13,-28.35z"></path></g><g opacity="1"  transform="translate(0 0)  rotate(0)"><path id="路径 155" fill-rule="evenodd" style="fill:#FAEDDC" opacity="1" d="M15.4,67.98zM15.4,67.98c-0.17,-0.04 -0.37,-0.08 -0.54,-0.12c-11.91,-2.9 -17.89,-20.33 -13.33,-38.97c0.02,-0.13 0.07,-0.27 0.11,-0.39c4.61,-18.41 17.82,-30.96 29.63,-28.09c1.23,0.3 2.38,0.74 3.48,1.32c9.14,4.96 13.56,19.67 10.34,35.61c-0.14,0.69 -0.3,1.36 -0.47,2.05c-4.47,18.32 -17.45,30.98 -29.22,28.59z"></path></g><g opacity="1"  transform="translate(1.6400146484375 0)  rotate(0)"><path id="路径 156" fill-rule="evenodd" style="fill:#FF988C" opacity="1" d="M43.45,37.34zM43.45,37.34c-3.93,0.06 -7.91,-0.4 -11.8,-0.96c-9.38,-1.3 -18.8,-3.07 -27.67,-6.3c-1.35,-0.48 -2.66,-1 -3.98,-1.58c4.61,-18.41 17.82,-30.96 29.63,-28.09c1.23,0.3 2.38,0.74 3.48,1.32c9.14,4.96 13.56,19.67 10.34,35.61z"></path></g></g></g><g opacity="1"  transform="translate(14.7803955078125 59.747711181640625)  rotate(0)"><g opacity="1"  transform="translate(240.36846923828125 0)  rotate(0)"><g opacity="1"  transform="translate(0 2.275665283203125)  rotate(0)"><path id="路径 157" fill-rule="evenodd" style="fill:#AD8B96" opacity="1" d="M22.51,43.83zM22.51,43.83c-12.1,0.33 -22.17,-9.21 -22.5,-21.31c-0.33,-12.11 9.21,-22.18 21.31,-22.51c12.11,-0.33 22.18,9.21 22.51,21.32c0.33,12.1 -9.21,22.17 -21.32,22.5z"></path></g><g opacity="1"  transform="translate(2.154296875 0)  rotate(0)"><path id="路径 158" fill-rule="evenodd" style="fill:#E7D8DD" opacity="1" d="M22.52,43.83zM22.52,43.83c-12.11,0.33 -22.18,-9.21 -22.51,-21.31c-0.33,-12.11 9.21,-22.18 21.32,-22.51c12.1,-0.33 22.17,9.21 22.5,21.32c0.33,12.1 -9.21,22.17 -21.31,22.5z"></path></g><g opacity="1"  transform="translate(7.23291015625 9.13214111328125)  rotate(0)"><path id="路径 159" fill-rule="evenodd" style="fill:#FFFFFF" opacity="1" d="M0.48,27.76zM0.48,27.76c-0.14,0 -0.28,-0.06 -0.38,-0.18c-0.16,-0.21 -0.12,-0.52 0.08,-0.68l34.02,-26.8c0.21,-0.16 0.51,-0.12 0.67,0.08c0.17,0.21 0.13,0.52 -0.08,0.68l-34.01,26.79c-0.09,0.08 -0.19,0.11 -0.3,0.11z"></path></g></g><g opacity="1"  transform="translate(0 172.22833251953125)  rotate(0)"><g opacity="1"  transform="translate(0 0)  rotate(0)"><path id="路径 160" fill-rule="evenodd" style="fill:#AD8B96" opacity="1" d="M22.52,43.83zM22.52,43.83c-12.11,0.33 -22.18,-9.21 -22.51,-21.31c-0.33,-12.11 9.21,-22.18 21.32,-22.51c12.1,-0.33 22.17,9.21 22.5,21.32c0.33,12.1 -9.21,22.17 -21.31,22.5z"></path></g><g opacity="1"  transform="translate(22.732177734375 18.30096435546875)  rotate(0)"><path id="椭圆 17" fill-rule="evenodd" style="fill:#E7D8DD" opacity="1" d="M-13.4698 -14.8136C-22.3959 -6.62963 -22.997 7.23078 -14.813 16.1568C-6.62907 25.0829 7.23133 25.6841 16.1574 17.5001C25.0835 9.3161 25.6846 -4.5443 17.5006 -13.4704C9.31666 -22.3964 -4.54374 -22.9976 -13.4698 -14.8136Z"></path></g><g opacity="1"  transform="translate(7.2314453125 6.857177734375)  rotate(0)"><path id="路径 161" fill-rule="evenodd" style="fill:#FFFFFF" opacity="1" d="M0.48,27.76zM0.48,27.76c-0.14,0 -0.28,-0.07 -0.38,-0.19c-0.16,-0.2 -0.12,-0.51 0.08,-0.67l34.02,-26.8c0.21,-0.16 0.51,-0.13 0.68,0.08c0.16,0.21 0.12,0.52 -0.08,0.68l-34.02,26.79c-0.09,0.07 -0.19,0.11 -0.3,0.11z"></path></g></g></g><g opacity="1"  transform="translate(9.45928955078125 17.220184326171875)  rotate(0)"><g opacity="1"  transform="translate(60.59161376953125 115.6654052734375)  rotate(0)"><path id="路径 162" fill-rule="evenodd" style="fill:#3D2929" opacity="1" d="M0,12.09c0,-6.66 5.43,-12.09 12.09,-12.09c6.65,0 12.09,5.43 12.09,12.09c0,6.65 -5.44,12.09 -12.09,12.09c-6.66,0 -12.09,-5.44 -12.09,-12.09zM23.116,12.086c0,-6.08 -4.95,-11.03 -11.03,-11.03c-6.08,0 -11.03,4.95 -11.03,11.03c0,6.08 4.95,11.03 11.03,11.03c6.08,0 11.03,-4.95 11.03,-11.03z"></path></g><g opacity="1"  transform="translate(232.3834228515625 0)  rotate(0)"><path id="椭圆 18" fill-rule="evenodd" style="fill:#FFA255" opacity="1" d="M11.55 0C5.17 0 0 5.17 0 11.55C0 17.94 5.17 23.11 11.55 23.11C17.94 23.11 23.11 17.94 23.11 11.55C23.11 5.17 17.94 0 11.55 0Z"></path></g><g opacity="1"  transform="translate(234.20501708984375 249.98687744140625)  rotate(0)"><g opacity="1"  transform="translate(0 0)  rotate(0)"><path id="路径 163" fill-rule="evenodd" style="fill:#3D2929" opacity="1" d="M12.09,0c6.16,0 11.27,4.65 11.98,10.62c0.07,0.48 0.11,0.97 0.11,1.47c0,4.13 -2.1,7.79 -5.28,9.96c-1.96,1.32 -4.29,2.11 -6.81,2.11c-6.66,0 -12.09,-5.42 -12.09,-12.07c0,-6.68 5.43,-12.09 12.09,-12.09zM23.116,12.086c0,-0.26 -0.01,-0.51 -0.03,-0.77c-0.39,-5.73 -5.18,-10.26 -11,-10.26c-6.08,0 -11.03,4.94 -11.03,11.03c0,6.08 4.95,11.02 11.03,11.02c2.52,0 4.84,-0.84 6.69,-2.29c2.64,-1.99 4.34,-5.15 4.34,-8.73z"></path></g><g opacity="1"  transform="translate(18.75250244140625 8.781494140625)  rotate(0)"><path id="椭圆 19" fill-rule="evenodd" style="fill:#FFA255" opacity="1" d="M11.55 0C5.17 0 0 5.17 0 11.55C0 17.94 5.17 23.11 11.55 23.11C17.94 23.11 23.11 17.94 23.11 11.55C23.11 5.17 17.94 0 11.55 0Z"></path></g></g><g opacity="1"  transform="translate(0 196.37432861328125)  rotate(0)"><path id="椭圆 20" fill-rule="evenodd" style="fill:#FAEDDC" opacity="1" d="M-6.33567 -6.34282C-9.84288 -2.83553 -9.7226 2.95567 -6.08096 6.59723C-2.43932 10.2388 3.34481 10.3519 6.85202 6.84457C10.3522 3.34435 10.239 -2.43978 6.59732 -6.08134C2.95568 -9.72289 -2.83553 -9.84304 -6.33567 -6.34282Z"></path></g></g><g opacity="1"  transform="translate(266.58087158203125 157.75924682617188)  rotate(0)"><path id="路径 164" fill-rule="evenodd" style="fill:#FAEDDC" opacity="1" d="M15.49,2.81zM15.49,2.81c3.64,3.64 3.75,9.43 0.25,12.93c-3.5,3.5 -9.29,3.39 -12.93,-0.25c-3.64,-3.64 -3.76,-9.44 -0.26,-12.94c3.5,-3.5 9.29,-3.38 12.94,0.26z"></path></g></g></g></g></svg>