<svg xmlns="http://www.w3.org/2000/svg" xmlns:xlink="http://www.w3.org/1999/xlink" width="375.2922668457031" height="306.77996826171875" viewBox="0 0 375.2922668457031 306.77996826171875" fill="none"><g opacity="1"  transform="translate(0.0007171630859375 0)  rotate(0)"><path id="路径 26" fill-rule="evenodd" style="fill:#FFFFFF" opacity="1" d="M364.36,73.55zM4.25,162.95c4.35,-10.75 11.38,-19.31 19.43,-24.3c-12.36,-1.1 -22.09,-11.5 -22.09,-24.14c0,-13.37 10.88,-24.25 24.26,-24.25c3.09,0 6.04,0.61 8.77,1.67l-9.26,-37.01c-0.7,-2.76 -0.87,-5.62 -0.47,-8.47c0.06,-0.49 0.13,-0.93 0.23,-1.41c1.26,-6.29 5.16,-11.78 10.7,-15.08c36.71,-21.87 84.53,-27.15 103.39,-28.41c0.5,-0.03 1,-0.05 1.51,-0.05c3.39,0 6.79,0.79 9.85,2.27l0.65,0.33c0.15,0.07 0.3,0.15 0.45,0.23c5.23,2.92 9.03,7.69 10.71,13.42l1.5,5.18c0.09,-0.14 0.18,-0.3 0.26,-0.41c8.95,-13.9 22.35,-22.52 35.08,-22.52c4.83,0 9.46,1.29 13.38,3.73c1.31,0.83 2.51,1.75 3.62,2.76c4.8,3.22 8.15,7.87 10.05,13.38l2.47,-3.93c4.3,-6.85 11.71,-10.94 19.8,-10.94c4.4,0 8.69,1.24 12.42,3.58l11.72,7.37c4.39,-4.26 10.37,-6.85 16.88,-6.85c13.37,0 24.25,10.88 24.25,24.25c0,2.65 -0.42,5.23 -1.24,7.66l51.79,32.54c10.91,6.85 14.21,21.31 7.36,32.22l-48.62,77.4c0.93,1.75 1.45,3.7 1.5,5.75c0.07,2.9 -0.82,5.68 -2.54,7.97c1.82,2.19 2.85,4.93 2.92,7.83c0.08,3.42 -1.17,6.67 -3.54,9.14c-2.39,2.52 -5.77,3.96 -9.25,3.96c-2.79,0 -5.46,-0.89 -7.66,-2.55c-0.82,0.67 -1.71,1.24 -2.66,1.69l-40.62,64.67c-4.31,6.85 -11.71,10.94 -19.81,10.94c-4.39,0 -8.69,-1.24 -12.42,-3.59l-13.86,-8.7c-0.57,0.32 -1.14,0.63 -1.71,0.93c-1.32,11.83 -11.38,21.05 -23.54,21.05c-5.53,0 -10.8,-1.96 -14.96,-5.35c-1.51,0.46 -3.03,0.91 -4.55,1.34c-0.22,0.08 -0.45,0.16 -0.68,0.22l-2.08,0.59c-0.31,0.09 -0.63,0.16 -0.95,0.22c-11.01,2.9 -21.65,4.97 -31.64,6.17c-7.24,0.88 -14.31,1.33 -20.98,1.33c-5.9,0 -11.5,-0.35 -16.62,-1.04c-2.03,-0.3 -3.63,-0.56 -4.92,-0.81c-5.37,-1.09 -9.8,-4.37 -12.34,-9.01h-49.17c-12.25,0 -22.22,-9.96 -22.22,-22.21v-10.1c0,-12.25 9.97,-22.22 22.22,-22.22h6.51c-1.46,-2.38 -2.15,-5.23 -1.8,-8.15c-5.98,-2.23 -9.49,-8.65 -7.96,-14.99c0.02,-0.11 0.07,-0.2 0.1,-0.31c-2.35,-0.19 -4.65,-0.71 -6.84,-1.56c-1.41,-0.55 -2.75,-1.22 -4.01,-2c-6.12,-2.56 -10.91,-7.45 -13.87,-14.17c-4.44,-10.09 -4.17,-23.64 0.7,-36.27c0.12,-0.33 0.25,-0.66 0.4,-0.99z"></path><g opacity="1"  transform="translate(11.240890502929688 13.1832275390625)  rotate(0)"><g opacity="1"  transform="translate(114.69088745117188 4.999176025390625)  rotate(0)"><g opacity="1"  transform="translate(0 0)  rotate(0)"><g opacity="1"  transform="translate(0 0)  rotate(0)"><path id="路径 27" fill-rule="evenodd" style="fill:#4EBCF7" opacity="1" d="M232.43,66.82zM232.43,66.82c5.66,3.56 7.37,11.03 3.81,16.69l-31.84,50.7l-12.66,20.15l-65.97,105.01c-3.55,5.66 -11.03,7.37 -16.69,3.81l-103.41,-64.95c-5.66,-3.56 -7.37,-11.03 -3.81,-16.7l63.63,-101.3l14.09,-22.4l32.77,-52.16c3.55,-5.66 11.03,-7.37 16.69,-3.81z"></path><path  id="路径 28" style="fill:#FAEDDC; opacity:1;" d="M68.9726,224.301l109.3204,-174.0204c0.34467,-0.549 0.568,-1.14267 0.67,-1.781c0.09867,-0.6168 0.07767,-1.2321 -0.063,-1.8459c-0.14067,-0.61373 -0.38933,-1.17703 -0.746,-1.6899c-0.36933,-0.53073 -0.82867,-0.96853 -1.378,-1.3134c-0.54933,-0.34487 -1.14267,-0.5683 -1.78,-0.6703c-0.61533,-0.09853 -1.22933,-0.0776 -1.842,0.0628c-0.612,0.1404 -1.174,0.3891 -1.686,0.7461c-0.53,0.3694 -0.96733,0.82877 -1.312,1.3781l-109.3304,174.0199c-0.3448,0.54933 -0.5682,1.14267 -0.6702,1.78c-0.09853,0.61533 -0.0776,1.22933 0.0628,1.842c0.1404,0.612 0.3891,1.174 0.7461,1.686c0.3694,0.53 0.82877,0.96733 1.3781,1.312c0.54933,0.34533 1.14273,0.56933 1.7802,0.672c0.61613,0.09933 1.23067,0.07967 1.8436,-0.059c0.61307,-0.13933 1.17617,-0.387 1.6893,-0.743c0.53113,-0.36867 0.97037,-0.82767 1.3177,-1.377zM69.635,224.718c-0.40393,0.63867 -0.91497,1.17267 -1.5331,1.602c-0.5964,0.414 -1.2505,0.70167 -1.9623,0.863c-0.71167,0.162 -1.4256,0.185 -2.1418,0.069c-0.74213,-0.11933 -1.43277,-0.38 -2.0719,-0.782c-0.63913,-0.40133 -1.17373,-0.91033 -1.6038,-1.527c-0.415,-0.59533 -0.70403,-1.24833 -0.8671,-1.959c-0.16307,-0.71133 -0.18733,-1.425 -0.0728,-2.141c0.1188,-0.74267 0.37893,-1.43333 0.7804,-2.072l109.3304,-174.0204c0.40133,-0.63913 0.91033,-1.17373 1.527,-1.6038c0.59467,-0.415 1.24767,-0.70403 1.959,-0.8671c0.71133,-0.16307 1.425,-0.1873 2.141,-0.0727c0.74267,0.11873 1.43333,0.37883 2.072,0.7803c0.63933,0.40147 1.174,0.91117 1.604,1.5291c0.41533,0.596 0.70433,1.2502 0.867,1.9626c0.16333,0.71253 0.18767,1.42723 0.073,2.1441c-0.11867,0.74347 -0.37867,1.4348 -0.78,2.074l-109.3204,174.0199z"></path></g><g opacity="1"  transform="translate(32.5396728515625 28.235260009765625)  rotate(0)"><g opacity="1"  transform="translate(79.75967407226562 0)  rotate(0)"><path id="路径 29" fill-rule="evenodd" style="fill:#AD8B96" opacity="1" d="M29.4378,26.4642zM29.4378,26.4642c-4.62,7.36 -14.32,9.57 -21.68003,4.95c-7.35,-4.62 -9.57,-14.32 -4.95,-21.67996c4.62,-7.35 14.33003,-9.57 21.68003,-4.95c7.36,4.62 9.57,14.32996 4.95,21.67996z"></path><path id="路径 30" fill-rule="evenodd" style="fill:#E7D8DD" opacity="1" d="M29.05,24.09zM29.05,24.09c-4.63,7.36 -14.33,9.57 -21.69,4.95c-7.35,-4.62 -9.57,-14.32 -4.95,-21.68c4.62,-7.35 14.33,-9.57 21.69,-4.95c7.35,4.62 9.57,14.33 4.95,21.68z"></path><path  id="路径 30" style="fill:#E7D8DD; opacity:1;" d="M23.6009,3.2051c-1.69993,-1.06709 -3.5317,-1.75963 -5.4953,-2.07762c-1.89693,-0.3072 -3.78663,-0.24587 -5.6691,0.18398c-1.8822,0.42979 -3.61085,1.19457 -5.18594,2.29434c-1.63004,1.13814 -2.97863,2.55607 -4.04577,4.25379c-1.06691,1.69967 -1.75936,3.53081 -2.07733,5.49341c-0.30716,1.89587 -0.24584,3.78433 0.18397,5.6654c0.42973,1.88073 1.19448,3.6082 2.29423,5.1824c1.13807,1.62907 2.55605,2.9772 4.25393,4.0444c1.70007,1.0672 3.53134,1.76013 5.49381,2.0788c1.8964,0.30793 3.78527,0.24733 5.6666,-0.1818c1.88153,-0.42913 3.60993,-1.19373 5.1852,-2.2938c1.63053,-1.1386 2.9806,-2.55803 4.0502,-4.2583c1.0668,-1.6972 1.75917,-3.52683 2.0771,-5.4889c0.3072,-1.89547 0.2459,-3.7841 -0.1839,-5.6659c-0.4298,-1.88165 -1.1946,-3.60994 -2.2944,-5.18487c-1.1382,-1.62999 -2.55613,-2.97853 -4.2538,-4.04564zM24.5996,1.61521c1.91247,1.20215 3.51047,2.72224 4.794,4.56029c1.2394,1.77496 2.10117,3.72219 2.5853,5.8417c0.4842,2.1198 0.5532,4.24793 0.207,6.3844c-0.3586,2.21287 -1.13903,4.27563 -2.3413,6.1883c-1.2046,1.9148 -2.7261,3.5141 -4.5645,4.7979c-1.7754,1.2398 -3.72293,2.10147 -5.8426,2.585c-2.11933,0.4834 -4.24767,0.55157 -6.385,0.2045c-2.21268,-0.35933 -4.27671,-1.14017 -6.19208,-2.3425c-1.91261,-1.2022 -3.51057,-2.72177 -4.79389,-4.5587c-1.23954,-1.77427 -2.10136,-3.72077 -2.58546,-5.8395c-0.48419,-2.11907 -0.55318,-4.24703 -0.20697,-6.3839c0.35854,-2.21301 1.13891,-4.2771 2.34111,-6.19228c1.20219,-1.91259 2.72235,-3.5106 4.56048,-4.79403c1.77515,-1.23946 3.72276,-2.10124 5.84281,-2.58535c2.12033,-0.48417 4.2494,-0.55315 6.3872,-0.20695c2.21407,0.35855 4.27853,1.13882 6.1934,2.34081z"></path></g><g opacity="1"  transform="translate(54.236602783203125 40.6260986328125)  rotate(0)"><path id="路径 31" fill-rule="evenodd" style="fill:#AD8B96" opacity="1" d="M29.4373,26.4643zM29.4373,26.4643c-4.62,7.36 -14.32,9.58 -21.67999,4.95c-7.35,-4.62 -9.57,-14.32 -4.95,-21.68003c4.62,-7.35 14.32999,-9.57 21.68999,-4.95c7.35,4.62 9.57,14.33003 4.94,21.68003z"></path><path id="路径 32" fill-rule="evenodd" style="fill:#E7D8DD" opacity="1" d="M29.05,24.09zM29.05,24.09c-4.62,7.36 -14.33,9.58 -21.69,4.95c-7.35,-4.62 -9.57,-14.32 -4.95,-21.68c4.62,-7.35 14.33,-9.57 21.68,-4.95c7.36,4.62 9.58,14.33 4.96,21.68z"></path><path  id="路径 32" style="fill:#E7D8DD; opacity:1;" d="M23.5904,3.20479c-1.6974,-1.06693 -3.52713,-1.75937 -5.4892,-2.07733c-1.89547,-0.30718 -3.7841,-0.24585 -5.6659,0.18399c-1.88166,0.4298 -3.60995,1.19458 -5.18487,2.29433c-1.62999,1.13821 -2.97853,2.55615 -4.04564,4.25381c-1.06691,1.69967 -1.75936,3.53081 -2.07733,5.49341c-0.30716,1.89587 -0.24584,3.78433 0.18397,5.6654c0.42973,1.88073 1.19448,3.6082 2.29423,5.1824c1.13807,1.62907 2.55605,2.9772 4.25393,4.0444c1.70007,1.06953 3.53188,1.76387 5.49541,2.083c1.89673,0.30833 3.78623,0.2476 5.6685,-0.1822c1.88207,-0.42973 3.6106,-1.19503 5.1856,-2.2959c1.63,-1.13933 2.9786,-2.55907 4.0458,-4.2592c1.0672,-1.6978 1.7597,-3.52767 2.0775,-5.4896c0.307,-1.8956 0.24533,-3.78417 -0.185,-5.6657c-0.4304,-1.88173 -1.1961,-3.60998 -2.2971,-5.18473c-1.13967,-1.63009 -2.55947,-2.97868 -4.2594,-4.04577zM24.5891,1.6149c1.91493,1.20203 3.51493,2.72208 4.8,4.56017c1.24087,1.77485 2.1037,3.72213 2.5885,5.84183c0.48487,2.11973 0.55423,4.24793 0.2081,6.3846c-0.3584,2.2128 -1.1386,4.27533 -2.3406,6.1876c-1.20213,1.91513 -2.72227,3.5151 -4.5604,4.7999c-1.77527,1.2408 -3.723,2.1033 -5.8432,2.5875c-2.12053,0.4842 -4.2498,0.5525 -6.3878,0.2049c-2.21416,-0.35993 -4.27859,-1.14213 -6.19328,-2.3466c-1.91261,-1.2022 -3.51057,-2.72177 -4.79389,-4.5587c-1.23954,-1.77427 -2.10136,-3.72077 -2.58546,-5.8395c-0.48419,-2.11907 -0.55318,-4.24703 -0.20697,-6.3839c0.35854,-2.21301 1.13891,-4.2771 2.34111,-6.19228c1.20215,-1.91251 2.72224,-3.51051 4.56029,-4.79401c1.77496,-1.23944 3.72219,-2.10122 5.8417,-2.58535c2.1198,-0.48419 4.24793,-0.55317 6.3844,-0.20695c2.21287,0.3586 4.27553,1.13897 6.188,2.3411z"></path></g><g opacity="1"  transform="translate(28.07550048828125 82.2677001953125)  rotate(0)"><path id="路径 33" fill-rule="evenodd" style="fill:#AD8B96" opacity="1" d="M29.437,26.4647zM29.437,26.4647c-4.62,7.36 -14.32,9.58 -21.68,4.96c-7.35,-4.62 -9.57,-14.33 -4.95,-21.69c4.62,-7.35001 14.33,-9.57 21.68,-4.95001c7.36,4.62001 9.57,14.33001 4.95,21.68001z"></path><path id="路径 34" fill-rule="evenodd" style="fill:#E7D8DD" opacity="1" d="M29.04,24.09zM29.04,24.09c-4.62,7.36 -14.32,9.58 -21.68,4.96c-7.35,-4.62 -9.57,-14.33 -4.95,-21.69c4.62,-7.35 14.33,-9.57 21.69,-4.95c7.35,4.62 9.57,14.33 4.94,21.68z"></path><path  id="路径 34" style="fill:#E7D8DD; opacity:1;" d="M23.6009,3.2051c-1.69993,-1.06709 -3.5317,-1.75963 -5.4953,-2.07762c-1.89693,-0.3072 -3.78663,-0.24587 -5.6691,0.18398c-1.8822,0.42979 -3.61085,1.19457 -5.18594,2.29434c-1.63004,1.13814 -2.97863,2.55607 -4.04577,4.25379c-1.06689,1.69961 -1.75932,3.53121 -2.07731,5.49481c-0.3072,1.89693 -0.24587,3.78663 0.18398,5.6691c0.42979,1.8822 1.19457,3.61083 2.29434,5.1859c1.13814,1.63007 2.55607,2.97867 4.25379,4.0458c1.69981,1.067 3.53091,1.7594 5.49331,2.0772c1.89593,0.307 3.78433,0.24533 5.6652,-0.185c1.88087,-0.43033 3.6083,-1.196 5.1823,-2.297c1.62913,-1.13947 2.9773,-2.5593 4.0445,-4.2595c1.06967,-1.69807 1.76417,-3.52817 2.0835,-5.4903c0.30847,-1.8952 0.24807,-3.78373 -0.1812,-5.6656c-0.42913,-1.88142 -1.19353,-3.60962 -2.2932,-5.18461c-1.138,-1.62991 -2.55587,-2.97845 -4.2536,-4.0456zM24.5996,1.61521c1.9126,1.20222 3.51057,2.72233 4.7939,4.56034c1.2394,1.77516 2.10083,3.72248 2.5843,5.84195c0.48353,2.12007 0.55147,4.2483 0.2038,6.3847c-0.3602,2.21307 -1.14237,4.27537 -2.3465,6.1869c-1.20207,1.915 -2.7216,3.51493 -4.5586,4.7998c-1.77413,1.241 -3.72067,2.1039 -5.8396,2.5887c-2.119,0.48487 -4.24707,0.55427 -6.3842,0.2082c-2.21286,-0.3584 -4.27695,-1.13873 -6.19228,-2.341c-1.91259,-1.2022 -3.5106,-2.72237 -4.79403,-4.5605c-1.23946,-1.77513 -2.10124,-3.72273 -2.58535,-5.8428c-0.48417,-2.12033 -0.55315,-4.2494 -0.20695,-6.3872c0.35855,-2.21407 1.13893,-4.2787 2.34112,-6.19388c1.20219,-1.91259 2.72235,-3.5106 4.56048,-4.79403c1.77515,-1.23946 3.72276,-2.10124 5.84281,-2.58535c2.12033,-0.48417 4.2494,-0.55315 6.3872,-0.20695c2.21407,0.35855 4.27853,1.13882 6.1934,2.34081z"></path></g><g opacity="1"  transform="translate(0 126.95758056640625)  rotate(0)"><path id="路径 35" fill-rule="evenodd" style="fill:#AD8B96" opacity="1" d="M29.437,26.4743zM29.437,26.4743c-4.62,7.35 -14.32,9.57 -21.68,4.94c-7.35,-4.62 -9.57,-14.32 -4.95,-21.68003c4.62,-7.35 14.33,-9.57 21.68,-4.95c7.36,4.62 9.57,14.33003 4.95,21.69003z"></path><path id="路径 36" fill-rule="evenodd" style="fill:#E7D8DD" opacity="1" d="M29.04,24.09zM29.04,24.09c-4.62,7.36 -14.32,9.58 -21.68,4.95c-7.35,-4.62 -9.57,-14.32 -4.95,-21.68c4.62,-7.35 14.33,-9.57 21.69,-4.95c7.35,4.62 9.57,14.33 4.94,21.68z"></path><path  id="路径 36" style="fill:#E7D8DD; opacity:1;" d="M23.6009,3.2051c-1.69993,-1.06709 -3.5317,-1.75963 -5.4953,-2.07762c-1.89693,-0.3072 -3.78663,-0.24587 -5.6691,0.18398c-1.8822,0.42979 -3.61085,1.19457 -5.18594,2.29434c-1.63004,1.13814 -2.97863,2.55607 -4.04577,4.25379c-1.06691,1.69967 -1.75936,3.53081 -2.07733,5.49341c-0.30716,1.89587 -0.24584,3.78433 0.18397,5.6654c0.42973,1.88073 1.19448,3.6082 2.29423,5.1824c1.13807,1.62907 2.55605,2.9772 4.25393,4.0444c1.70014,1.06953 3.53144,1.7639 5.49391,2.0831c1.89567,0.30827 3.78397,0.24753 5.6649,-0.1822c1.8806,-0.42973 3.60793,-1.19503 5.182,-2.2959c1.62907,-1.13927 2.97723,-2.55903 4.0445,-4.2593c1.06967,-1.69807 1.76417,-3.52817 2.0835,-5.4903c0.30847,-1.8952 0.24807,-3.78373 -0.1812,-5.6656c-0.42913,-1.88142 -1.19353,-3.60962 -2.2932,-5.18461c-1.138,-1.62991 -2.55587,-2.97845 -4.2536,-4.0456zM24.5996,1.61521c1.9126,1.20222 3.51057,2.72233 4.7939,4.56034c1.2394,1.77516 2.10083,3.72248 2.5843,5.84195c0.48353,2.12007 0.55147,4.2483 0.2038,6.3847c-0.3602,2.21307 -1.14237,4.27537 -2.3465,6.1869c-1.20213,1.91513 -2.72167,3.51503 -4.5586,4.7997c-1.7744,1.24093 -3.72103,2.10347 -5.8399,2.5876c-2.11927,0.48427 -4.24743,0.5526 -6.3845,0.205c-2.21309,-0.35993 -4.27699,-1.14213 -6.19168,-2.3466c-1.91261,-1.2022 -3.51057,-2.72177 -4.79389,-4.5587c-1.23954,-1.77427 -2.10136,-3.72077 -2.58546,-5.8395c-0.48419,-2.11907 -0.55318,-4.24703 -0.20697,-6.3839c0.35854,-2.21301 1.13891,-4.2771 2.34111,-6.19228c1.20219,-1.91259 2.72235,-3.5106 4.56048,-4.79403c1.77515,-1.23946 3.72276,-2.10124 5.84281,-2.58535c2.12033,-0.48417 4.2494,-0.55315 6.3872,-0.20695c2.21407,0.35855 4.27853,1.13882 6.1934,2.34081z"></path></g></g><g opacity="1"  transform="translate(99.23489379882812 70.13558959960938)  rotate(0)"><g opacity="1"  transform="translate(79.75967407226562 0)  rotate(0)"><path id="路径 37" fill-rule="evenodd" style="fill:#AD8B96" opacity="1" d="M29.4377,26.4643zM29.4377,26.4643c-4.62,7.36 -14.32,9.58 -21.67996,4.95c-7.35,-4.62 -9.57,-14.32 -4.95,-21.68003c4.62,-7.35 14.32996,-9.57 21.67996,-4.95c7.36,4.62 9.57,14.33003 4.95,21.68003z"></path><path id="路径 38" fill-rule="evenodd" style="fill:#E7D8DD" opacity="1" d="M29.05,24.09zM29.05,24.09c-4.63,7.36 -14.33,9.57 -21.69,4.95c-7.35,-4.62 -9.57,-14.32 -4.95,-21.68c4.62,-7.35 14.33,-9.57 21.69,-4.95c7.35,4.62 9.57,14.33 4.95,21.68z"></path><path  id="路径 38" style="fill:#E7D8DD; opacity:1;" d="M23.6009,3.2051c-1.69993,-1.06709 -3.5317,-1.75963 -5.4953,-2.07762c-1.89693,-0.3072 -3.78663,-0.24587 -5.6691,0.18398c-1.8822,0.42979 -3.61085,1.19457 -5.18594,2.29434c-1.63004,1.13814 -2.97863,2.55607 -4.04577,4.25379c-1.06691,1.69967 -1.75936,3.53081 -2.07733,5.49341c-0.30716,1.89587 -0.24584,3.78433 0.18397,5.6654c0.42973,1.88073 1.19448,3.6082 2.29423,5.1824c1.13807,1.62907 2.55605,2.9772 4.25393,4.0444c1.70007,1.0672 3.53134,1.76013 5.49381,2.0788c1.8964,0.30793 3.78527,0.24733 5.6666,-0.1818c1.88153,-0.42913 3.60993,-1.19373 5.1852,-2.2938c1.63053,-1.1386 2.9806,-2.55803 4.0502,-4.2583c1.0668,-1.6972 1.75917,-3.52683 2.0771,-5.4889c0.3072,-1.89547 0.2459,-3.7841 -0.1839,-5.6659c-0.4298,-1.88165 -1.1946,-3.60994 -2.2944,-5.18487c-1.1382,-1.62999 -2.55613,-2.97853 -4.2538,-4.04564zM24.5996,1.61521c1.91247,1.20215 3.51047,2.72224 4.794,4.56029c1.2394,1.77496 2.10117,3.72219 2.5853,5.8417c0.4842,2.1198 0.5532,4.24793 0.207,6.3844c-0.3586,2.21287 -1.13903,4.27563 -2.3413,6.1883c-1.2046,1.9148 -2.7261,3.5141 -4.5645,4.7979c-1.7754,1.2398 -3.72293,2.10147 -5.8426,2.585c-2.11933,0.4834 -4.24767,0.55157 -6.385,0.2045c-2.21268,-0.35933 -4.27671,-1.14017 -6.19208,-2.3425c-1.91261,-1.2022 -3.51057,-2.72177 -4.79389,-4.5587c-1.23954,-1.77427 -2.10136,-3.72077 -2.58546,-5.8395c-0.48419,-2.11907 -0.55318,-4.24703 -0.20697,-6.3839c0.35854,-2.21301 1.13891,-4.2771 2.34111,-6.19228c1.20219,-1.91259 2.72235,-3.5106 4.56048,-4.79403c1.77515,-1.23946 3.72276,-2.10124 5.84281,-2.58535c2.12033,-0.48417 4.2494,-0.55315 6.3872,-0.20695c2.21407,0.35855 4.27853,1.13882 6.1934,2.34081z"></path></g><g opacity="1"  transform="translate(54.236572265625 40.6260986328125)  rotate(0)"><path id="路径 39" fill-rule="evenodd" style="fill:#AD8B96" opacity="1" d="M29.4373,26.4643zM29.4373,26.4643c-4.62,7.36 -14.32,9.58 -21.67996,4.95c-7.35,-4.62 -9.57,-14.32 -4.95,-21.68003c4.62,-7.35 14.32996,-9.57 21.68996,-4.95c7.35,4.62 9.57,14.33003 4.94,21.68003z"></path><path id="路径 40" fill-rule="evenodd" style="fill:#E7D8DD" opacity="1" d="M29.05,24.09zM29.05,24.09c-4.62,7.36 -14.33,9.58 -21.69,4.96c-7.35,-4.63 -9.57,-14.33 -4.95,-21.69c4.62,-7.35 14.33,-9.57 21.68,-4.95c7.36,4.62 9.58,14.33 4.96,21.68z"></path><path  id="路径 40" style="fill:#E7D8DD; opacity:1;" d="M23.5904,3.20479c-1.6974,-1.06693 -3.52713,-1.75937 -5.4892,-2.07733c-1.89547,-0.30718 -3.7841,-0.24585 -5.6659,0.18399c-1.88166,0.4298 -3.60995,1.19458 -5.18487,2.29433c-1.62999,1.13821 -2.97853,2.55615 -4.04564,4.25381c-1.06693,1.69967 -1.75937,3.53084 -2.07732,5.49351c-0.30717,1.896 -0.24584,3.78487 0.18398,5.6666c0.42974,1.8814 1.19455,3.60993 2.29442,5.1856c1.13815,1.63053 2.55631,2.98067 4.25449,4.0504c1.69923,1.0666 3.53057,1.75883 5.49404,2.0767c1.897,0.307 3.7866,0.24533 5.6688,-0.185c1.88227,-0.4304 3.61087,-1.1961 5.1858,-2.2971c1.63013,-1.1396 2.97877,-2.5594 4.0459,-4.2594c1.0672,-1.6978 1.7597,-3.52767 2.0775,-5.4896c0.307,-1.8956 0.24533,-3.78417 -0.185,-5.6657c-0.4304,-1.88173 -1.1961,-3.60998 -2.2971,-5.18473c-1.13967,-1.63009 -2.55947,-2.97868 -4.2594,-4.04577zM24.5891,1.6149c1.91493,1.20203 3.51493,2.72208 4.8,4.56017c1.24087,1.77485 2.1037,3.72213 2.5885,5.84183c0.48487,2.11973 0.55423,4.24793 0.2081,6.3846c-0.3584,2.2128 -1.1386,4.27533 -2.3406,6.1876c-1.20207,1.915 -2.7222,3.515 -4.5604,4.8c-1.775,1.24087 -3.72263,2.1037 -5.8429,2.5885c-2.12027,0.48487 -4.2494,0.55427 -6.3874,0.2082c-2.21399,-0.3584 -4.27891,-1.1389 -6.19476,-2.3415c-1.91245,-1.20473 -3.51023,-2.72617 -4.79332,-4.5643c-1.23946,-1.77567 -2.10122,-3.72307 -2.58527,-5.8422c-0.48417,-2.11967 -0.55316,-4.248 -0.20696,-6.385c0.35853,-2.21305 1.1389,-4.27717 2.34111,-6.19238c1.20215,-1.91251 2.72224,-3.51051 4.56029,-4.79401c1.77496,-1.23944 3.72219,-2.10122 5.8417,-2.58535c2.1198,-0.48419 4.24793,-0.55317 6.3844,-0.20695c2.21287,0.3586 4.27553,1.13897 6.188,2.3411z"></path></g><g opacity="1"  transform="translate(28.075531005859375 82.26861572265625)  rotate(0)"><path id="路径 41" fill-rule="evenodd" style="fill:#AD8B96" opacity="1" d="M29.4377,26.4643zM29.4377,26.4643c-4.62,7.36 -14.32,9.57 -21.67996,4.95c-7.35,-4.62 -9.57,-14.32 -4.95,-21.68003c4.62,-7.35 14.32996,-9.57 21.67996,-4.95c7.36,4.62 9.57,14.33003 4.95,21.68003z"></path><path id="路径 42" fill-rule="evenodd" style="fill:#E7D8DD" opacity="1" d="M29.05,24.09zM29.05,24.09c-4.63,7.36 -14.33,9.57 -21.69,4.95c-7.35,-4.62 -9.57,-14.32 -4.95,-21.68c4.62,-7.35 14.33,-9.57 21.68,-4.95c7.36,4.62 9.58,14.33 4.96,21.68z"></path><path  id="路径 42" style="fill:#E7D8DD; opacity:1;" d="M23.5904,3.20479c-1.6974,-1.06693 -3.52713,-1.75937 -5.4892,-2.07733c-1.89547,-0.30718 -3.7841,-0.24585 -5.6659,0.18399c-1.88166,0.4298 -3.60995,1.19458 -5.18487,2.29433c-1.62999,1.13821 -2.97853,2.55615 -4.04564,4.25381c-1.06691,1.69967 -1.75936,3.53081 -2.07733,5.49341c-0.30716,1.89587 -0.24584,3.78433 0.18397,5.6654c0.42973,1.88073 1.19448,3.6082 2.29423,5.1824c1.13807,1.62907 2.55605,2.9772 4.25393,4.0444c1.70007,1.0672 3.53134,1.76013 5.49381,2.0788c1.8964,0.30793 3.78527,0.24733 5.6666,-0.1818c1.88153,-0.42913 3.60993,-1.19373 5.1852,-2.2938c1.63053,-1.1386 2.9806,-2.55803 4.0502,-4.2583c1.06687,-1.69727 1.7592,-3.52687 2.077,-5.4888c0.307,-1.8956 0.24533,-3.78417 -0.185,-5.6657c-0.4304,-1.88173 -1.1961,-3.60998 -2.2971,-5.18473c-1.13967,-1.63009 -2.55947,-2.97868 -4.2594,-4.04577zM24.5891,1.6149c1.91493,1.20203 3.51493,2.72208 4.8,4.56017c1.24087,1.77485 2.1037,3.72213 2.5885,5.84183c0.48487,2.11973 0.55423,4.24793 0.2081,6.3846c-0.3584,2.2128 -1.13877,4.2756 -2.3411,6.1884c-1.2046,1.9148 -2.7261,3.5141 -4.5645,4.7979c-1.7754,1.2398 -3.72293,2.10147 -5.8426,2.585c-2.11933,0.4834 -4.24767,0.55157 -6.385,0.2045c-2.21268,-0.35933 -4.27671,-1.14017 -6.19208,-2.3425c-1.91261,-1.2022 -3.51057,-2.72177 -4.79389,-4.5587c-1.23954,-1.77427 -2.10136,-3.72077 -2.58546,-5.8395c-0.48419,-2.11907 -0.55318,-4.24703 -0.20697,-6.3839c0.35854,-2.21301 1.13891,-4.2771 2.34111,-6.19228c1.20215,-1.91251 2.72224,-3.51051 4.56029,-4.79401c1.77496,-1.23944 3.72219,-2.10122 5.8417,-2.58535c2.1198,-0.48419 4.24793,-0.55317 6.3844,-0.20695c2.21287,0.3586 4.27553,1.13897 6.188,2.3411z"></path></g><g opacity="1"  transform="translate(0 126.95758056640625)  rotate(0)"><path id="路径 43" fill-rule="evenodd" style="fill:#AD8B96" opacity="1" d="M29.437,26.4643zM29.437,26.4643c-4.62,7.36 -14.32,9.58 -21.68003,4.96c-7.35,-4.63 -9.57,-14.33 -4.95,-21.69003c4.62,-7.35 14.33003,-9.57 21.68003,-4.95c7.36,4.62 9.57,14.33003 4.95,21.68003z"></path><path id="路径 44" fill-rule="evenodd" style="fill:#E7D8DD" opacity="1" d="M29.04,24.09zM29.04,24.09c-4.62,7.36 -14.32,9.58 -21.68,4.96c-7.35,-4.63 -9.57,-14.33 -4.95,-21.69c4.62,-7.35 14.33,-9.57 21.68,-4.95c7.36,4.62 9.58,14.33 4.95,21.68z"></path><path  id="路径 44" style="fill:#E7D8DD; opacity:1;" d="M23.5904,3.20479c-1.6974,-1.06693 -3.52713,-1.75937 -5.4892,-2.07733c-1.89547,-0.30718 -3.7841,-0.24585 -5.6659,0.18399c-1.88166,0.4298 -3.60995,1.19458 -5.18487,2.29433c-1.62999,1.13821 -2.97853,2.55615 -4.04564,4.25381c-1.06693,1.69967 -1.75937,3.53084 -2.07732,5.49351c-0.30717,1.896 -0.24584,3.78487 0.18398,5.6666c0.42974,1.8814 1.19455,3.60993 2.29442,5.1856c1.13815,1.63053 2.55631,2.98067 4.25449,4.0504c1.69929,1.06667 3.53014,1.7589 5.49254,2.0767c1.89593,0.307 3.78433,0.24533 5.6652,-0.185c1.88087,-0.43033 3.6083,-1.196 5.1823,-2.297c1.62913,-1.13947 2.9773,-2.5593 4.0445,-4.2595c1.06973,-1.6982 1.7642,-3.52827 2.0834,-5.4902c0.30827,-1.89533 0.24753,-3.7838 -0.1822,-5.6654c-0.4298,-1.88151 -1.19513,-3.60967 -2.296,-5.18448c-1.1394,-1.63 -2.55913,-2.97857 -4.2592,-4.04572zM24.5891,1.6149c1.915,1.2021 3.51493,2.72217 4.7998,4.56022c1.24087,1.77505 2.10337,3.72241 2.5875,5.84208c0.48427,2.12 0.5526,4.2483 0.205,6.3849c-0.36,2.213 -1.1421,4.27533 -2.3463,6.187c-1.20207,1.915 -2.7216,3.51493 -4.5586,4.7998c-1.77413,1.241 -3.72067,2.1039 -5.8396,2.5887c-2.119,0.48487 -4.24707,0.55427 -6.3842,0.2082c-2.21286,-0.3584 -4.27721,-1.1389 -6.19306,-2.3415c-1.91245,-1.20473 -3.51023,-2.72617 -4.79332,-4.5643c-1.23946,-1.77567 -2.10122,-3.72307 -2.58527,-5.8422c-0.48417,-2.11967 -0.55316,-4.248 -0.20696,-6.385c0.35853,-2.21305 1.1389,-4.27717 2.34111,-6.19238c1.20215,-1.91251 2.72224,-3.51051 4.56029,-4.79401c1.77496,-1.23944 3.72219,-2.10122 5.8417,-2.58535c2.1198,-0.48419 4.24793,-0.55317 6.3844,-0.20695c2.21287,0.3586 4.27553,1.13897 6.188,2.3411z"></path></g></g></g></g><g opacity="1"  transform="translate(24.704269409179688 1.500701904296875)  rotate(0)"><g opacity="1"  transform="translate(7.764862060546875 41.748687744140625)  rotate(0)"><path id="路径 45" fill-rule="evenodd" style="fill:#FFA255" opacity="1" d="M185.89,202.25zM120.86,233.71l-0.02,-0.03c-11.65,3.1 -21.95,5 -30.84,6.07c-16.08,1.96 -27.71,1.26 -34.75,0.31c-1.68,-0.25 -3.1,-0.47 -4.25,-0.7c-2.36,-0.48 -4.28,-2.1 -5.1,-4.39c-1.62,-4.52 -4.68,-13.19 -8.5,-24.25c-0.07,-0.21 -0.14,-0.41 -0.21,-0.64c-9.61,-27.78 -23.8,-70.02 -31.45,-98.74c-2.12,-8.01 -3.77,-14.98 -4.64,-20.25c-0.09,-0.38 -0.13,-0.77 -0.2,-1.13c-5.29,-34.5 14.48,-45.32 14.48,-45.32l-0.93,-3.35l-3.66,-13.37l18.48,-9.87l31.59,-6.62l51.45,-11.43l4.6,16.72c0,0 19.54,-0.72 32.78,25.32c1,1.9 1.92,3.98 2.83,6.2c1.29,3.19 2.69,7.22 4.14,11.92c7.78,25.05 17.47,68.58 24.14,100.33c0.29,1.33 0.57,2.67 0.84,3.96c2.99,14.36 5.29,25.9 6.4,31.45c0.45,2.35 -0.36,4.72 -2.15,6.35c-6.65,5.95 -25.48,20.23 -62.94,30.84v0.03z"></path><path id="路径 46" fill-rule="evenodd" style="fill:#FAEDDC" opacity="1" d="M180.805,160.489zM1.10474,91.0894c52.60996,-3.41 104.28026,-20.5 148.59026,-49.05c0.99,1.9 1.92,3.98 2.82,6.2c1.29,3.19 2.7,7.22 4.14,11.92c7.79,25.05 17.47,68.5796 24.15,100.3296c-10.19,10.88 -18.49,17.4 -45.78,28.44c-30.86,12.49 -64.4403,18.48 -97.8303,21.15c-9.62,-27.78 -23.8,-70.02 -31.44996,-98.74c-2.13,-8.01 -3.78,-14.9796 -4.64,-20.2496z"></path><g opacity="1"  transform="translate(67.78190612792969 102.5931396484375)  rotate(0)"><path id="矩形 15" fill-rule="evenodd" style="fill:#FE6963" opacity="1" d="M37.0182 68.4557L48.9934 64.5695L26.7785 -3.88615L14.8033 0L37.0182 68.4557Z"></path><path id="矩形 16" fill-rule="evenodd" style="fill:#FE6963" opacity="1" d="M0.00194931 34.9684L4.47446 48.7929L63.7972 29.6008L59.3247 15.7763L0.00194931 34.9684Z"></path></g><g opacity="1"  transform="translate(122.14860534667969 32.13775634765625)  rotate(0)"><path id="路径 47" fill-rule="evenodd" style="fill:#FFFFFF" opacity="1" d="M0.51,12.59zM8,22.42c-3.65,-2.14 -6.43,-5.74 -7.49,-9.83c-2.58,-9.97 5.04,-17.03 13.58,-9.31c1.36,1.23 2.44,2.75 3.34,4.35c1.65,2.93 2.77,6.33 2.18,9.64c-0.59,3.32 -3.28,6.4 -6.63,6.6c-1.75,0.1 -3.47,-0.56 -4.98,-1.45z"></path><path id="路径 48" fill-rule="evenodd" style="fill:#FFFFFF" opacity="1" d="M18.8424,48.807zM23.4424,53.677c-1.97,-1.11 -3.45,-2.92 -4.6,-4.87c-3.1,-5.24 -6.61,-20.65 3.07,-21.64c8,-0.82 11.8,12.33 11.87,18.26c0.04,3.32 -0.91,7.08 -3.85,8.61c-2,1.04 -4.52,0.74 -6.49,-0.36z"></path></g><path id="路径 49" fill-rule="evenodd" style="fill:#3D2929" opacity="0.2" d="M55.25,240.061zM15.38,44.6414l-0.93,-3.35c2.7,0.91 4.64,2.78 4.62,6.25c-0.02,3.46 -1.99,7.26 -2.63,10.7c-0.79,4.23 -1.17,8.55 -1.26,12.87c-0.25,9.96 0.99,19.89 2.47,29.7096c3.61,23.89 8.34,47.63 14.14,71.11c5.77,23.38 12.69,46.61 23.46,68.13c-1.68,-0.25 -3.1,-0.47 -4.25,-0.7c-2.36,-0.48 -4.28,-2.1 -5.1,-4.39c-1.62,-4.53 -4.68,-13.19 -8.5,-24.26c-0.07,-0.2 -0.14,-0.4 -0.21,-0.63c-9.61,-27.78 -23.8,-70.03 -31.45,-98.74c-2.12,-8.01 -3.77,-14.9796 -4.64,-20.2496c-0.09,-0.38 -0.13,-0.77 -0.2,-1.13c-5.29,-34.51 14.48,-45.32 14.48,-45.32z"></path></g><g opacity="1"  transform="translate(0 0)  rotate(0)"><g opacity="1"  transform="translate(0 0)  rotate(0)"><path id="路径 50" fill-rule="evenodd" style="fill:#FAEDDC" opacity="1" d="M125.08,40.8zM0.11,35.14c0.03,-0.2 0.05,-0.38 0.09,-0.59c0.61,-3.14 2.54,-5.95 5.43,-7.67c34.28,-20.43 79.33,-25.59 98.38,-26.85c2.02,-0.14 3.96,0.27 5.68,1.1l0.55,0.28c2.55,1.42 4.52,3.8 5.38,6.74l9.46,32.65c0,0 -1.88,3.41 -8.62,8.69c-0.16,0.13 -0.32,0.27 -0.48,0.38c-3.08,2.38 -7.15,5.14 -12.44,8.15c-0.16,0.07 -0.32,0.18 -0.5,0.27c-4.19,2.33 -9.16,4.82 -15,7.4c-0.16,0.07 -0.34,0.13 -0.52,0.22c-4.01,1.74 -8.42,3.53 -13.28,5.32c-1.07,0.38 -2.11,0.77 -3.13,1.11c-0.18,0.07 -0.34,0.13 -0.52,0.18h-0.02c-6.74,2.35 -12.94,4.05 -18.55,5.25c-0.18,0.04 -0.39,0.09 -0.57,0.11c-6.04,1.29 -11.4,2.01 -16.13,2.33c-0.2,0.02 -0.41,0.05 -0.59,0.05c-6.06,0.41 -11.02,0.16 -14.86,-0.3c-0.21,-0.02 -0.41,-0.04 -0.59,-0.09c-6.23,-0.77 -9.35,-2.1 -9.35,-2.1l-9.59,-38.35c-0.36,-1.43 -0.43,-2.88 -0.23,-4.28z"></path></g><g opacity="1"  transform="translate(0.11358642578125 1.1331787109375)  rotate(0)"><path id="路径 51" fill-rule="evenodd" style="fill:#B0D8E4" opacity="1" d="M110.12,0.27zM70.46,22.06c-3.9,1.4 -7.76,2.69 -11.52,3.89c-1.04,0.34 -2.1,0.66 -3.19,0.98c-0.18,0.06 -0.36,0.11 -0.57,0.18c-4.84,1.4 -9.95,2.64 -15.4,3.75c-0.19,0.05 -0.39,0.07 -0.57,0.12c-3.46,0.68 -7.06,1.31 -10.81,1.9c-1.9,0.29 -3.69,0.56 -5.39,0.81c-0.2,0.02 -0.38,0.05 -0.56,0.07c-5.32,0.75 -9.73,1.2 -13.65,1.2c-0.38,0 -0.75,0 -1.11,-0.02c-0.2,0 -0.41,0 -0.58,-0.03c-2.52,-0.07 -4.85,-0.36 -7.11,-0.9c0.02,-0.21 0.04,-0.39 0.09,-0.59c7.4,1.76 15.3,0.91 28.24,-1.09c11.4,-1.76 21.36,-4.05 30.43,-6.92c13.21,-4.21 27.65,-9.53 40.45,-17.74l0.03,-0.02l0.04,-0.02c3.58,-2.29 7.04,-4.82 10.3,-7.63l0.54,0.27c-3.24,2.81 -6.65,5.32 -10.18,7.63c-0.16,0.09 -0.32,0.2 -0.48,0.31c-4.52,2.88 -9.23,5.41 -14.02,7.65c-0.19,0.09 -0.34,0.16 -0.53,0.25c-4.61,2.15 -9.27,4.03 -13.91,5.72v0.03c-0.18,0.04 -0.36,0.11 -0.54,0.18z"></path></g><g opacity="1"  transform="translate(7.19586181640625 35.842132568359375)  rotate(0)"><path id="路径 52" fill-rule="evenodd" style="fill:#B0D8E4" opacity="1" d="M12.67,44.12zM12.67,44.12c-0.2,-0.02 -0.41,-0.04 -0.59,-0.09l-12.06,-43.83l-0.02,-0.04l0.54,-0.16l0.07,0.23z"></path></g><g opacity="1"  transform="translate(22.513153076171875 34.574951171875)  rotate(0)"><path id="路径 53" fill-rule="evenodd" style="fill:#B0D8E4" opacity="1" d="M12.81,45.64zM0.05,0.32c-0.03,-0.07 -0.03,-0.12 -0.05,-0.18l0.54,-0.14c0.02,0.09 0.05,0.16 0.07,0.25c2.15,7.99 4.32,16.15 6.52,24.28c1.9,7.08 3.8,14.14 5.68,21.11c-0.21,0.02 -0.41,0.04 -0.59,0.04c-1.86,-6.94 -3.74,-13.96 -5.64,-20.99c-2.19,-8.17 -4.39,-16.34 -6.53,-24.37z"></path></g><g opacity="1"  transform="translate(39.23313903808594 31.6568603515625)  rotate(0)"><path id="路径 54" fill-rule="evenodd" style="fill:#B0D8E4" opacity="1" d="M12.78,46.11zM12.78,46.11c-0.18,0.05 -0.38,0.09 -0.56,0.11c-4.12,-15.22 -8.19,-30.63 -12.13,-45.77c-0.04,-0.11 -0.07,-0.2 -0.09,-0.31l0.57,-0.14c0.02,0.11 0.06,0.23 0.09,0.34c3.91,15.16 7.98,30.54 12.12,45.77z"></path></g><g opacity="1"  transform="translate(55.18577575683594 27.696868896484375)  rotate(0)"><path id="路径 55" fill-rule="evenodd" style="fill:#B0D8E4" opacity="1" d="M15.93,44.64zM15.93,44.64c-0.18,0.07 -0.34,0.14 -0.52,0.18h-0.02c-4.91,-14.77 -10.05,-29.64 -15.28,-44.28c-0.02,-0.11 -0.07,-0.22 -0.11,-0.34l0.54,-0.2c0.05,0.11 0.09,0.25 0.14,0.36c5.2,14.64 10.32,29.53 15.25,44.28z"></path></g><g opacity="1"  transform="translate(70.36756896972656 22.492523193359375)  rotate(0)"><path id="路径 56" fill-rule="evenodd" style="fill:#B0D8E4" opacity="1" d="M17.67,43.19zM17.67,43.19c-0.16,0.07 -0.34,0.14 -0.52,0.23l-16.95,-42.72l-0.2,-0.5l0.54,-0.2l0.21,0.5z"></path></g><g opacity="1"  transform="translate(84.98432922363281 16.904541015625)  rotate(0)"><path id="路径 57" fill-rule="evenodd" style="fill:#B0D8E4" opacity="1" d="M18.55,41.11zM18.55,41.11c-0.16,0.07 -0.31,0.18 -0.49,0.27c-6.32,-13.51 -12.36,-27.28 -18.02,-41.04c-0.02,-0.05 -0.02,-0.07 -0.04,-0.11l0.52,-0.23c0.02,0.02 0.02,0.07 0.04,0.09c5.64,13.76 11.68,27.54 17.99,41.02z"></path></g><g opacity="1"  transform="translate(99.32832336425781 8.577972412109375)  rotate(0)"><path id="路径 58" fill-rule="evenodd" style="fill:#B0D8E4" opacity="1" d="M17.13,40.91zM17.13,40.91c-0.16,0.13 -0.32,0.27 -0.48,0.38c-4.93,-13.69 -10.43,-27.28 -16.4,-40.52c-0.09,-0.18 -0.16,-0.36 -0.25,-0.54l0.02,-0.03l0.5,-0.2c0.07,0.16 0.14,0.29 0.21,0.45c5.95,13.19 11.47,26.77 16.4,40.46z"></path></g></g></g><g opacity="1"  transform="translate(0 133.81939697265625)  rotate(0)"><path id="路径 59" fill-rule="evenodd" style="fill:#E7D8DD" opacity="1" d="M13.8708,60.7999zM44.8808,35.6599c-0.34,1.1 -0.69,2.19 -1.13,3.29c-6.23,16.06 -19.61,25.84 -29.88,21.85c-1.05,-0.42 -2.03,-0.95 -2.94,-1.6c-7.88997,-5.73 -9.91997,-20.27 -4.32997,-34.7c0.03,-0.06 0.05,-0.15 0.08,-0.21c6.16997,-15.68 19.15997,-25.28 29.29997,-21.81c0.16,0.05 0.33,0.11 0.5,0.18c9.55,3.69 13.03,18.08 8.4,33z"></path><path id="路径 60" fill-rule="evenodd" style="fill:#FAEDDC" opacity="1" d="M10.93,59.2zM10.93,59.2c-0.15,-0.05 -0.33,-0.11 -0.48,-0.16c-10.26,-3.99 -13.53,-20.23 -7.27,-36.3c0.03,-0.11 0.1,-0.23 0.15,-0.33c6.28,-15.85 19.53,-25.47 29.71,-21.53c1.06,0.42 2.03,0.95 2.95,1.6c7.55,5.49 9.75,19.12 5,32.94c-0.21,0.6 -0.43,1.17 -0.66,1.77c-6.15,15.79 -19.2,25.54 -29.4,22.01z"></path><path id="路径 61" fill-rule="evenodd" style="fill:#4EBCF7" opacity="1" d="M40.9883,35.42zM40.9883,35.42c-3.51,-0.41 -7,-1.29 -10.39,-2.25c-8.21,-2.26 -16.39,-4.95 -23.91002,-8.88c-1.15,-0.59 -2.25,-1.21 -3.36,-1.88c6.28,-15.85 19.53002,-25.47 29.71002,-21.53c1.06,0.42 2.04,0.95 2.95,1.6c7.55,5.49 9.75,19.12 5,32.94z"></path></g><g opacity="1"  transform="translate(155.2413330078125 0)  rotate(0)"><path id="路径 62" fill-rule="evenodd" style="fill:#E7D8DD" opacity="1" d="M10.1496,57.3162zM45.3096,38.4062c-0.54,1.0201 -1.09,2.0201 -1.73,3.0201c-9.11,14.61 -24.08,21.72 -33.43,15.8899c-0.96002,-0.6099 -1.82002,-1.3099 -2.59002,-2.1099c-6.68,-7.12 -5.97,-21.7701 2.22,-34.9c0.04,-0.06 0.08,-0.14 0.12,-0.2c8.98002,-14.25005 23.53002,-21.27005 32.86002,-15.96005c0.13,0.08 0.29,0.17 0.45,0.26c8.69,5.41 9.43,20.20005 2.1,33.99995z"></path><path id="路径 63" fill-rule="evenodd" style="fill:#FAEDDC" opacity="1" d="M7.56,55.2zM7.12,54.95c-9.34,-5.83 -9.52,-22.4 -0.37,-37.01c0.05,-0.11 0.13,-0.21 0.2,-0.3c9.13,-14.41 23.94,-21.39 33.21,-15.61c0.96,0.61 1.82,1.31 2.6,2.11c6.39,6.81 6.01,20.6 -1.23,33.3c-0.32,0.55 -0.64,1.07 -0.98,1.62c-8.98,14.37 -23.63,21.5 -32.99,16.14c-0.14,-0.08 -0.3,-0.17 -0.44,-0.25z"></path><path id="路径 64" fill-rule="evenodd" style="fill:#FF988C" opacity="1" d="M41.5316,37.44zM41.5316,37.44c-3.37,-1.06 -6.64,-2.57 -9.8,-4.15c-7.63,-3.75 -15.17,-7.92 -21.83,-13.18c-1.02,-0.79 -1.99,-1.61 -2.95,-2.47c9.13,-14.41 23.94,-21.39 33.21,-15.61c0.96,0.61 1.82,1.31 2.59,2.11c6.4,6.81 6.02,20.6 -1.22,33.3z"></path></g><g opacity="1"  transform="translate(8.827728271484375 241.39410400390625)  rotate(0)"><path id="矩形 17" fill-rule="evenodd" style="fill:#E7D8DD" opacity="1" d="M10.95 32L101.51 32C107.56 32 112.46 27.1 112.46 21.05L112.46 10.95C112.46 4.9 107.56 0 101.51 0L10.95 0C4.9 0 0 4.9 0 10.95L0 21.05C0 27.1 4.9 32 10.95 32Z"></path><path  id="矩形 18" style="fill:#AD8B96; opacity:1;" d="M72.2466,3.21638v25.56172h-37.3217v-25.56172zM35.3266,28.3764h36.5183v-24.7583h-36.5183z"></path><g opacity="1"  transform="translate(9.902313232421875 5.3975830078125)  rotate(0)"><path id="路径 65" fill-rule="evenodd" style="fill:#AD8B96" opacity="1" d="M3.61,1.81zM3.61,1.81c0,0.99 -0.81,1.8 -1.8,1.8c-1,0 -1.81,-0.81 -1.81,-1.8c0,-1 0.81,-1.81 1.81,-1.81c0.99,0 1.8,0.81 1.8,1.81z"></path><path id="路径 66" fill-rule="evenodd" style="fill:#AD8B96" opacity="1" d="M11.6479,9.73175zM11.6479,9.73175c0,0.99005 -0.81,1.80005 -1.8,1.80005c-1,0 -1.81,-0.81 -1.81,-1.80005c0,-1 0.81,-1.81 1.81,-1.81c0.99,0 1.8,0.81 1.8,1.81z"></path><path id="路径 67" fill-rule="evenodd" style="fill:#AD8B96" opacity="1" d="M3.90042,17.4792zM3.90042,17.4792c0,0.99 -0.81,1.8001 -1.8,1.8001c-1,0 -1.81,-0.8101 -1.81,-1.8001c0,-1 0.81,-1.8099 1.81,-1.8099c0.99,0 1.8,0.8099 1.8,1.8099z"></path></g><g opacity="1"  transform="translate(88.07095336914062 5.3975830078125)  rotate(0)"><path id="路径 68" fill-rule="evenodd" style="fill:#AD8B96" opacity="1" d="M8.0379,1.81zM9.8479,3.61c-1,0 -1.81,-0.81 -1.81,-1.8c0,-1 0.81,-1.81 1.81,-1.81c0.99,0 1.8,0.81 1.8,1.81c0,0.99 -0.81,1.8 -1.8,1.8z"></path><path id="路径 69" fill-rule="evenodd" style="fill:#AD8B96" opacity="1" d="M0,9.73175zM1.81,11.5318c-1,0 -1.81,-0.81 -1.81,-1.80005c0,-1 0.81,-1.81 1.81,-1.81c0.99,0 1.8,0.81 1.8,1.81c0,0.99005 -0.81,1.80005 -1.8,1.80005z"></path><path id="路径 70" fill-rule="evenodd" style="fill:#AD8B96" opacity="1" d="M7.74576,17.4792zM9.55576,19.2793c-1,0 -1.81,-0.8101 -1.81,-1.8001c0,-1 0.81,-1.8099 1.81,-1.8099c0.99004,0 1.80004,0.8099 1.80004,1.8099c0,0.99 -0.81,1.8001 -1.80004,1.8001z"></path></g></g><path id="椭圆 8" fill-rule="evenodd" style="fill:#FAEDDC" opacity="1" d="M178.668 254.889C171.808 254.889 166.248 260.449 166.248 267.309C166.248 274.169 171.808 279.729 178.668 279.729C185.528 279.729 191.088 274.169 191.088 267.309C191.088 260.449 185.528 254.889 178.668 254.889Z"></path><g opacity="1"  transform="translate(2.1842803955078125 9.66156005859375)  rotate(0)"><path  id="椭圆 9" style="fill:#3D2929; opacity:1;" d="M12.42,81.7302c-1.60827,0 -3.14638,0.31043 -4.61435,0.9313c-1.41819,0.59973 -2.67425,1.44657 -3.76817,2.5405c-1.09393,1.09393 -1.94078,2.35 -2.54057,3.7682c-0.62084,1.468 -0.93126,3.0061 -0.93126,4.6143c0,1.60827 0.31042,3.1464 0.93126,4.6144c0.59979,1.41807 1.44664,2.6741 2.54057,3.7681c1.09392,1.094 2.34998,1.941 3.76817,2.541c1.46797,0.62067 3.00608,0.931 4.61435,0.931c1.60827,0 3.1464,-0.31033 4.6144,-0.931c1.41813,-0.6 2.67417,-1.447 3.7681,-2.541c1.09393,-1.094 1.9408,-2.35003 2.5406,-3.7681c0.6208,-1.468 0.9312,-3.00613 0.9312,-4.6144c0,-1.6082 -0.3104,-3.1463 -0.9312,-4.6143c-0.5998,-1.4182 -1.44667,-2.67427 -2.5406,-3.7682c-1.09393,-1.09393 -2.34997,-1.94077 -3.7681,-2.5405c-1.468,-0.62087 -3.00613,-0.9313 -4.6144,-0.9313zM12.42,80.5989c1.7612,0 3.4462,0.3402 5.055,1.0206c1.55367,0.65707 2.9295,1.5846 4.1275,2.7826c1.19793,1.19793 2.12543,2.57373 2.7825,4.1274c0.68047,1.60887 1.0207,3.29387 1.0207,5.055c0,1.7612 -0.34023,3.44623 -1.0207,5.0551c-0.65707,1.5536 -1.58457,2.9294 -2.7825,4.1274c-1.198,1.198 -2.57383,2.12567 -4.1275,2.783c-1.6088,0.68 -3.2938,1.02 -5.055,1.02c-1.76119,0 -3.4462,-0.34 -5.05502,-1.02c-1.55369,-0.65733 -2.92951,-1.585 -4.12746,-2.783c-1.19795,-1.198 -2.12547,-2.5738 -2.78256,-4.1274c-0.68041,-1.60887 -1.02061,-3.2939 -1.02061,-5.0551c0,-1.76113 0.34021,-3.44613 1.02062,-5.055c0.65709,-1.55367 1.58461,-2.92947 2.78256,-4.1274c1.19795,-1.198 2.57377,-2.12553 4.12746,-2.7826c1.60883,-0.6804 3.29383,-1.0206 5.05502,-1.0206z"></path><path  id="路径 71" style="fill:#3D2929; opacity:1;" d="M276.135,0.56565c-1.60867,0 -3.147,0.31042 -4.615,0.93126c-1.418,0.59979 -2.674,1.44664 -3.768,2.54057c-1.094,1.09392 -1.94067,2.34998 -2.54,3.76817c-0.62133,1.46797 -0.932,3.00608 -0.932,4.61435c0,1.60827 0.31067,3.1464 0.932,4.6144c0.59933,1.41813 1.446,2.67417 2.54,3.7681c1.094,1.09393 2.35,1.9408 3.768,2.5406c1.468,0.6208 3.00633,0.9312 4.615,0.9312c1.608,0.00007 3.146,-0.31033 4.614,-0.9312c1.418,-0.5998 2.674,-1.44667 3.768,-2.5406c1.094,-1.09393 1.941,-2.34997 2.541,-3.7681c0.62067,-1.468 0.931,-3.00613 0.931,-4.6144c0,-1.60827 -0.31033,-3.14638 -0.931,-4.61435c-0.6,-1.41819 -1.447,-2.67425 -2.541,-3.76817c-1.094,-1.09393 -2.35,-1.94078 -3.768,-2.54056c-1.468,-0.62084 -3.006,-0.93127 -4.614,-0.93127zM276.135,-0.56565c1.76133,0 3.44633,0.34021 5.055,1.02062c1.55333,0.65708 2.929,1.5846 4.127,2.78256c1.198,1.19795 2.12567,2.57377 2.783,4.12746c0.68,1.60882 1.02,3.29383 1.02,5.05502c0,1.7612 -0.34,3.4462 -1.02,5.055c-0.65733,1.55367 -1.585,2.9295 -2.783,4.1275c-1.198,1.19793 -2.57367,2.12543 -4.127,2.7825c-1.60867,0.68047 -3.29367,1.0207 -5.055,1.0207c-1.76133,0 -3.44633,-0.34023 -5.055,-1.0207c-1.554,-0.65707 -2.93,-1.58457 -4.128,-2.7825c-1.198,-1.198 -2.12533,-2.57383 -2.782,-4.1275c-0.68067,-1.6088 -1.021,-3.2938 -1.021,-5.055c0,-1.76119 0.34033,-3.44619 1.021,-5.05502c0.65667,-1.55369 1.584,-2.92951 2.782,-4.12746c1.198,-1.19795 2.574,-2.12547 4.128,-2.78256c1.60867,-0.68041 3.29367,-1.02061 5.055,-1.02061z"></path><g opacity="1"  transform="translate(26.778549194335938 192.0928955078125)  rotate(0)"><path  id="直线 16" style="fill:#3D2929; opacity:1;" d="M21.3752,14.9854l-21.73496,-5.26628c-0.04863,-0.01178 -0.09656,-0.02592 -0.1438,-0.04241c-0.04724,-0.01649 -0.09356,-0.03526 -0.13895,-0.05631c-0.0454,-0.02104 -0.08965,-0.04426 -0.13277,-0.06965c-0.04311,-0.02539 -0.08488,-0.05284 -0.1253,-0.08233c-0.04042,-0.02949 -0.07929,-0.0609 -0.11663,-0.09422c-0.03733,-0.03331 -0.07294,-0.06838 -0.10683,-0.10519c-0.03389,-0.03681 -0.06589,-0.0752 -0.096,-0.11516c-0.03012,-0.03996 -0.05821,-0.0813 -0.08426,-0.12401c-0.02605,-0.04272 -0.04995,-0.08661 -0.07169,-0.13168c-0.02174,-0.04507 -0.04122,-0.09109 -0.05844,-0.13807c-0.01722,-0.04698 -0.0321,-0.09469 -0.04463,-0.14313c-0.01253,-0.04844 -0.02266,-0.09738 -0.03039,-0.14681c-0.00772,-0.04944 -0.013,-0.09914 -0.01584,-0.14909c-0.00285,-0.04996 -0.00323,-0.09994 -0.00116,-0.14993c0.00207,-0.04999 0.00658,-0.09976 0.01354,-0.14931c0.00696,-0.04955 0.01633,-0.09864 0.02811,-0.14727c0.01179,-0.04863 0.02593,-0.09656 0.04242,-0.1438c0.01649,-0.04724 0.03526,-0.09356 0.0563,-0.13896c0.02105,-0.04539 0.04426,-0.08965 0.06965,-0.13276c0.02539,-0.04312 0.05284,-0.08489 0.08233,-0.1253c0.0295,-0.04042 0.06091,-0.0793 0.09422,-0.11663c0.03331,-0.03733 0.06838,-0.07294 0.10519,-0.10683c0.03681,-0.03389 0.0752,-0.06589 0.11516,-0.09601c0.03996,-0.03011 0.0813,-0.0582 0.12401,-0.08425c0.04272,-0.02605 0.08661,-0.04995 0.13167,-0.0717c0.04507,-0.02174 0.09109,-0.04122 0.13807,-0.05844c0.04698,-0.01722 0.09469,-0.0321 0.14313,-0.04463c0.04844,-0.01253 0.09738,-0.02266 0.14682,-0.03038c0.04944,-0.00773 0.09913,-0.01301 0.14909,-0.01585c0.04996,-0.00284 0.09993,-0.00323 0.14992,-0.00116c0.04999,0.00207 0.09977,0.00659 0.14932,0.01355c0.04955,0.00695 0.09864,0.01632 0.14727,0.02811l21.73494,5.26629c0.0486,0.0118 0.09653,0.02593 0.1438,0.0424c0.04727,0.01653 0.0936,0.0353 0.139,0.0563c0.0454,0.02107 0.08963,0.0443 0.1327,0.0697c0.04313,0.0254 0.0849,0.05283 0.1253,0.0823c0.04047,0.02947 0.07937,0.06087 0.1167,0.0942c0.03727,0.03333 0.07287,0.0684 0.1068,0.1052c0.03387,0.0368 0.06587,0.0752 0.096,0.1152c0.03013,0.03993 0.0582,0.08127 0.0842,0.124c0.02607,0.04273 0.04997,0.08663 0.0717,0.1317c0.0218,0.04507 0.0413,0.09107 0.0585,0.138c0.0172,0.047 0.03207,0.09473 0.0446,0.1432c0.01253,0.0484 0.02267,0.09733 0.0304,0.1468c0.00773,0.0494 0.013,0.0991 0.0158,0.1491c0.00287,0.04993 0.00327,0.0999 0.0012,0.1499c-0.00207,0.05 -0.00657,0.09977 -0.0135,0.1493c-0.007,0.04953 -0.0164,0.09863 -0.0282,0.1473c-0.01173,0.0486 -0.02587,0.09653 -0.0424,0.1438c-0.01647,0.0472 -0.03523,0.0935 -0.0563,0.1389c-0.021,0.0454 -0.0442,0.08967 -0.0696,0.1328c-0.0254,0.04313 -0.05287,0.0849 -0.0824,0.1253c-0.02947,0.0404 -0.06087,0.07927 -0.0942,0.1166c-0.03327,0.03733 -0.06833,0.07297 -0.1052,0.1069c-0.0368,0.03387 -0.07517,0.06587 -0.1151,0.096c-0.04,0.03007 -0.08133,0.05813 -0.124,0.0842c-0.04273,0.02607 -0.08663,0.04997 -0.1317,0.0717c-0.04507,0.02173 -0.0911,0.04123 -0.1381,0.0585c-0.04693,0.0172 -0.09463,0.03207 -0.1431,0.0446c-0.04847,0.01253 -0.0974,0.02267 -0.1468,0.0304c-0.04947,0.00773 -0.09917,0.013 -0.1491,0.0158c-0.05,0.00287 -0.09997,0.00327 -0.1499,0.0012c-0.05,-0.00207 -0.0998,-0.0066 -0.1494,-0.0136c-0.04953,-0.00693 -0.0986,-0.0163 -0.1472,-0.0281z"></path><path  id="直线 17" style="fill:#3D2929; opacity:1;" d="M14.9854,0.35976l-5.26628,21.73514c-0.01178,0.0486 -0.02592,0.09653 -0.04241,0.1438c-0.01649,0.0472 -0.03526,0.0935 -0.05631,0.1389c-0.02104,0.0454 -0.04426,0.08967 -0.06965,0.1328c-0.02539,0.04313 -0.05284,0.0849 -0.08233,0.1253c-0.02949,0.0404 -0.0609,0.07927 -0.09421,0.1166c-0.03332,0.03733 -0.06839,0.07293 -0.1052,0.1068c-0.03681,0.03393 -0.0752,0.06597 -0.11515,0.0961c-0.03996,0.03007 -0.0813,0.05813 -0.12402,0.0842c-0.04272,0.02607 -0.08661,0.04997 -0.13167,0.0717c-0.04507,0.02173 -0.09109,0.0412 -0.13807,0.0584c-0.04698,0.01727 -0.09469,0.03217 -0.14313,0.0447c-0.04845,0.01253 -0.09739,0.02267 -0.14682,0.0304c-0.04943,0.00767 -0.09913,0.01293 -0.14909,0.0158c-0.04995,0.00287 -0.09993,0.00327 -0.14992,0.0012c-0.04999,-0.00207 -0.09977,-0.0066 -0.14932,-0.0136c-0.04955,-0.00693 -0.09863,-0.0163 -0.14726,-0.0281c-0.04863,-0.0118 -0.09657,-0.02593 -0.14381,-0.0424c-0.04724,-0.01647 -0.09356,-0.03523 -0.13895,-0.0563c-0.0454,-0.02107 -0.08966,-0.0443 -0.13277,-0.0697c-0.04311,-0.02533 -0.08488,-0.05277 -0.1253,-0.0823c-0.04042,-0.02947 -0.0793,-0.06087 -0.11663,-0.0942c-0.03733,-0.03333 -0.07294,-0.0684 -0.10683,-0.1052c-0.03389,-0.0368 -0.06589,-0.0752 -0.096,-0.1152c-0.03012,-0.03993 -0.05821,-0.08127 -0.08426,-0.124c-0.02605,-0.04267 -0.04995,-0.08653 -0.0717,-0.1316c-0.02174,-0.04507 -0.04122,-0.0911 -0.05844,-0.1381c-0.01722,-0.047 -0.0321,-0.0947 -0.04463,-0.1431c-0.01253,-0.04847 -0.02266,-0.09743 -0.03038,-0.1469c-0.00773,-0.0494 -0.01301,-0.09907 -0.01585,-0.149c-0.00284,-0.05 -0.00323,-0.1 -0.00116,-0.15c0.00207,-0.05 0.00659,-0.09977 0.01355,-0.1493c0.00695,-0.04953 0.01632,-0.09863 0.02811,-0.1473l5.26629,-21.73506c0.0118,-0.04863 0.02593,-0.09656 0.0424,-0.1438c0.01647,-0.04724 0.03523,-0.09356 0.0563,-0.13896c0.02107,-0.0454 0.0443,-0.08965 0.0697,-0.13277c0.02533,-0.04312 0.05277,-0.08488 0.0823,-0.1253c0.02947,-0.04042 0.06087,-0.07929 0.0942,-0.11662c0.03333,-0.03733 0.0684,-0.07294 0.1052,-0.10683c0.0368,-0.03389 0.0752,-0.06589 0.1152,-0.09601c0.03993,-0.03011 0.08127,-0.0582 0.124,-0.08425c0.04267,-0.02606 0.08653,-0.04996 0.1316,-0.0717c0.04507,-0.02174 0.0911,-0.04122 0.1381,-0.05844c0.047,-0.01722 0.0947,-0.0321 0.1431,-0.04463c0.04847,-0.01253 0.09743,-0.02266 0.1469,-0.03039c0.0494,-0.00772 0.09907,-0.013 0.149,-0.01584c0.05,-0.00284 0.1,-0.00323 0.15,-0.00116c0.05,0.00207 0.09977,0.00658 0.1493,0.01354c0.04953,0.00696 0.09863,0.01633 0.1473,0.02811c0.0486,0.01179 0.09653,0.02593 0.1438,0.04242c0.0472,0.01649 0.0935,0.03525 0.1389,0.0563c0.0454,0.02104 0.08967,0.04426 0.1328,0.06965c0.04313,0.02539 0.0849,0.05284 0.1253,0.08233c0.0404,0.0295 0.07927,0.06091 0.1166,0.09422c0.03733,0.03331 0.07293,0.06838 0.1068,0.10519c0.03393,0.03681 0.06593,0.0752 0.096,0.11516c0.03013,0.03996 0.05823,0.0813 0.0843,0.12401c0.02607,0.04272 0.04997,0.08661 0.0717,0.13167c0.02173,0.04507 0.0412,0.09109 0.0584,0.13807c0.01727,0.04698 0.03217,0.09469 0.0447,0.14313c0.01253,0.04844 0.02263,0.09738 0.0303,0.14682c0.00773,0.04944 0.01303,0.09913 0.0159,0.14909c0.00287,0.04996 0.00327,0.09993 0.0012,0.14992c-0.00207,0.04999 -0.0066,0.09977 -0.0136,0.14931c-0.00693,0.04955 -0.0163,0.09864 -0.0281,0.14727z"></path></g><g opacity="1"  transform="translate(282.5797576904297 168.29315185546875)  rotate(0)"><path  id="直线 18" style="fill:#3D2929; opacity:1;" d="M16.915,1.05417l-15.43129,16.18723c-0.03453,0.0362 -0.07075,0.07063 -0.10866,0.1033c-0.03791,0.03267 -0.07732,0.0634 -0.11825,0.0922c-0.04093,0.0288 -0.08317,0.0555 -0.12672,0.0801c-0.04355,0.02467 -0.08821,0.04713 -0.13396,0.0674c-0.04576,0.0202 -0.0924,0.03813 -0.13992,0.0538c-0.04752,0.01567 -0.09569,0.02897 -0.14452,0.0399c-0.04883,0.01093 -0.09807,0.01947 -0.14774,0.0256c-0.04966,0.00607 -0.09951,0.0097 -0.14953,0.0109c-0.05002,0.0012 -0.09998,-0.00007 -0.14988,-0.0038c-0.0499,-0.00373 -0.09949,-0.00987 -0.14879,-0.0184c-0.04929,-0.0086 -0.09805,-0.0196 -0.14626,-0.033c-0.04822,-0.01333 -0.09566,-0.02903 -0.14233,-0.0471c-0.04667,-0.01807 -0.09235,-0.03833 -0.13703,-0.0608c-0.04468,-0.02253 -0.08815,-0.0472 -0.1304,-0.074c-0.04226,-0.0268 -0.0831,-0.0556 -0.12252,-0.0864c-0.03943,-0.03087 -0.07725,-0.06353 -0.11346,-0.098c-0.03622,-0.03453 -0.07065,-0.07077 -0.10331,-0.1087c-0.03266,-0.03793 -0.06338,-0.07733 -0.09216,-0.1182c-0.02879,-0.04093 -0.0555,-0.0832 -0.08013,-0.1268c-0.02463,-0.04353 -0.04708,-0.08817 -0.06733,-0.1339c-0.02025,-0.0458 -0.0382,-0.09243 -0.05387,-0.1399c-0.01566,-0.04753 -0.02896,-0.09573 -0.03989,-0.1446c-0.01093,-0.0488 -0.01945,-0.09803 -0.02554,-0.1477c-0.00609,-0.04967 -0.00974,-0.0995 -0.01093,-0.1495c-0.0012,-0.05007 0.00006,-0.10003 0.00377,-0.1499c0.00371,-0.04993 0.00986,-0.09953 0.01845,-0.1488c0.00859,-0.04927 0.01957,-0.09803 0.03294,-0.1463c0.01338,-0.0482 0.02909,-0.09563 0.04713,-0.1423c0.01803,-0.04667 0.03831,-0.09233 0.06084,-0.137c0.02253,-0.04467 0.04719,-0.08813 0.07398,-0.1304c0.0268,-0.04227 0.0556,-0.0831 0.08641,-0.1225c0.03081,-0.03947 0.06348,-0.0773 0.098,-0.1135l15.43131,-16.18727c0.03453,-0.03621 0.07077,-0.07065 0.1087,-0.10331c0.03787,-0.03266 0.07727,-0.06338 0.1182,-0.09216c0.04093,-0.02879 0.0832,-0.0555 0.1268,-0.08013c0.04353,-0.02464 0.08817,-0.04708 0.1339,-0.06733c0.04573,-0.02025 0.09237,-0.0382 0.1399,-0.05387c0.04753,-0.01566 0.09573,-0.02896 0.1446,-0.03989c0.0488,-0.01093 0.09803,-0.01945 0.1477,-0.02554c0.04967,-0.00609 0.0995,-0.00974 0.1495,-0.01093c0.05007,-0.0012 0.10003,0.00006 0.1499,0.00377c0.04987,0.00371 0.09947,0.00986 0.1488,0.01845c0.04927,0.00859 0.09803,0.01957 0.1463,0.03295c0.0482,0.01337 0.09563,0.02908 0.1423,0.04712c0.04667,0.01803 0.09233,0.03831 0.137,0.06084c0.04467,0.02253 0.08813,0.04719 0.1304,0.07398c0.04227,0.0268 0.0831,0.0556 0.1225,0.08641c0.03947,0.03081 0.0773,0.06348 0.1135,0.098c0.0362,0.03453 0.07063,0.07075 0.1033,0.10865c0.03267,0.03791 0.0634,0.07733 0.0922,0.11825c0.0288,0.04093 0.0555,0.08317 0.0801,0.12672c0.02467,0.04355 0.0471,0.08821 0.0673,0.13396c0.02027,0.04576 0.03823,0.09239 0.0539,0.13992c0.01567,0.04752 0.02897,0.09569 0.0399,0.14452c0.01093,0.04883 0.01943,0.09807 0.0255,0.14774c0.00613,0.04966 0.0098,0.09951 0.011,0.14953c0.0012,0.05002 -0.00007,0.09998 -0.0038,0.14988c-0.00373,0.0499 -0.0099,0.09949 -0.0185,0.14879c-0.00853,0.04929 -0.0195,0.09805 -0.0329,0.14626c-0.0134,0.04821 -0.0291,0.09566 -0.0471,0.14233c-0.01807,0.04667 -0.03837,0.09235 -0.0609,0.13703c-0.02253,0.04468 -0.0472,0.08815 -0.074,0.1304c-0.02673,0.04226 -0.05553,0.0831 -0.0864,0.12252c-0.0308,0.03943 -0.06347,0.07725 -0.098,0.11347z"></path><path  id="直线 19" style="fill:#3D2929; opacity:1;" d="M1.05417,-0.72775l16.18703,15.43116c0.03627,0.03453 0.07073,0.07073 0.1034,0.1086c0.0326,0.03793 0.0633,0.07737 0.0921,0.1183c0.0288,0.04093 0.0555,0.08317 0.0801,0.1267c0.02467,0.04353 0.04713,0.0882 0.0674,0.134c0.0202,0.04573 0.03813,0.09237 0.0538,0.1399c0.01567,0.04753 0.02897,0.0957 0.0399,0.1445c0.01093,0.04887 0.01947,0.09813 0.0256,0.1478c0.00607,0.04967 0.0097,0.0995 0.0109,0.1495c0.0012,0.05 -0.00007,0.09997 -0.0038,0.1499c-0.00367,0.04987 -0.0098,0.09947 -0.0184,0.1488c-0.0086,0.04927 -0.0196,0.098 -0.033,0.1462c-0.01333,0.0482 -0.02903,0.09563 -0.0471,0.1423c-0.018,0.04673 -0.03827,0.09243 -0.0608,0.1371c-0.02253,0.04467 -0.0472,0.08813 -0.074,0.1304c-0.0268,0.04227 -0.0556,0.0831 -0.0864,0.1225c-0.0308,0.0394 -0.06347,0.07723 -0.098,0.1135c-0.03453,0.0362 -0.07077,0.07063 -0.1087,0.1033c-0.03787,0.03267 -0.07727,0.06337 -0.1182,0.0921c-0.04093,0.0288 -0.08317,0.05553 -0.1267,0.0802c-0.0436,0.0246 -0.08827,0.04703 -0.134,0.0673c-0.04573,0.02027 -0.09237,0.03823 -0.1399,0.0539c-0.04753,0.01567 -0.0957,0.02897 -0.1445,0.0399c-0.04887,0.01093 -0.09813,0.01943 -0.1478,0.0255c-0.04967,0.00607 -0.0995,0.0097 -0.1495,0.0109c-0.05,0.0012 -0.09997,-0.00003 -0.1499,-0.0037c-0.04987,-0.00373 -0.09947,-0.0099 -0.1488,-0.0185c-0.04927,-0.0086 -0.098,-0.01957 -0.1462,-0.0329c-0.04827,-0.0134 -0.09573,-0.02913 -0.1424,-0.0472c-0.04667,-0.018 -0.09233,-0.03827 -0.137,-0.0608c-0.04467,-0.02253 -0.08813,-0.0472 -0.1304,-0.074c-0.04227,-0.0268 -0.0831,-0.0556 -0.1225,-0.0864c-0.03947,-0.0308 -0.0773,-0.06347 -0.1135,-0.098l-16.18707,-15.43114c-0.03621,-0.03453 -0.07065,-0.07074 -0.10331,-0.10865c-0.03266,-0.03791 -0.06338,-0.07733 -0.09216,-0.11826c-0.02879,-0.04093 -0.0555,-0.08317 -0.08013,-0.12672c-0.02464,-0.04355 -0.04708,-0.0882 -0.06733,-0.13396c-0.02025,-0.04576 -0.0382,-0.0924 -0.05387,-0.13992c-0.01566,-0.04752 -0.02896,-0.09569 -0.03989,-0.14452c-0.01093,-0.04883 -0.01945,-0.09807 -0.02554,-0.14774c-0.00609,-0.04966 -0.00974,-0.09951 -0.01093,-0.14953c-0.0012,-0.05002 0.00006,-0.09998 0.00377,-0.14988c0.00371,-0.0499 0.00986,-0.09949 0.01845,-0.14879c0.00859,-0.04929 0.01957,-0.09805 0.03295,-0.14626c0.01337,-0.04822 0.02908,-0.09566 0.04712,-0.14233c0.01803,-0.04667 0.03831,-0.09235 0.06084,-0.13703c0.02253,-0.04468 0.04719,-0.08815 0.07398,-0.1304c0.0268,-0.04226 0.0556,-0.0831 0.08641,-0.12252c0.03081,-0.03943 0.06348,-0.07725 0.098,-0.11346c0.03453,-0.03622 0.07075,-0.07065 0.10865,-0.10331c0.03791,-0.03266 0.07733,-0.06338 0.11825,-0.09216c0.04093,-0.02879 0.08317,-0.0555 0.12672,-0.08013c0.04355,-0.02464 0.08821,-0.04707 0.13396,-0.06732c0.04576,-0.02025 0.0924,-0.03821 0.13992,-0.05387c0.04752,-0.01567 0.0957,-0.02897 0.14452,-0.0399c0.04883,-0.01093 0.09807,-0.01945 0.14774,-0.02554c0.04966,-0.00609 0.09951,-0.00974 0.14953,-0.01093c0.05002,-0.00119 0.09998,0.00007 0.14988,0.00378c0.0499,0.00371 0.0995,0.00985 0.14879,0.01844c0.04929,0.00859 0.09805,0.01957 0.14626,0.03295c0.04822,0.01337 0.09566,0.02908 0.14233,0.04712c0.04667,0.01803 0.09235,0.03831 0.13703,0.06084c0.04468,0.02253 0.08815,0.04719 0.1304,0.07398c0.04226,0.0268 0.0831,0.0556 0.12252,0.08641c0.03943,0.03081 0.07725,0.06348 0.11347,0.098z"></path></g></g></g></g></svg>