<svg xmlns="http://www.w3.org/2000/svg" xmlns:xlink="http://www.w3.org/1999/xlink" width="389.430419921875" height="351.010009765625" viewBox="0 0 389.430419921875 351.010009765625" fill="none"><g opacity="1"  transform="translate(0.001953125 0)  rotate(0)"><path id="路径 72" fill-rule="evenodd" style="fill:#FFFFFF" opacity="1" d="M130.51,351.01zM372.3,127.5c2,0.86 3.62,2.23 4.77,3.89c1.23,0.81 2.38,1.72 3.45,2.72c7.08,6.61 10.28,17.39 8.36,28.14c-1.56,8.69 -5.93,16.07 -9.99,22.13c-2.85,4.26 -5.93,8.46 -9.34,12.73c4.29,9.4 8.56,19.17 9.81,30.57c1.53,14.13 0.27,28.69 -3.98,45.81c-0.53,2.12 -1,4.36 -1.5,6.73c-2.25,10.8 -4.81,23.03 -14.44,32.25c-1.91,1.81 -4.1,3.47 -6.51,4.95c-4.34,2.66 -8.83,4.38 -12.64,5.72c-16.39,5.8 -33.55,9.59 -53.49,11.78c-2.83,4.06 -7.52,6.72 -12.82,6.72c-4.42,0 -8.44,-1.85 -11.3,-4.85l-0.09,0.01c-2.86,3.75 -7.37,6.18 -12.45,6.18c-4.67,0 -8.87,-2.07 -11.73,-5.33c-2.36,0.06 -15.77,0.38 -15.77,0.38c-7.5,0.19 -15.46,1.03 -25.02,2.64c-0.18,0.03 -0.37,0.05 -0.55,0.07l-0.25,0.05c-6.83,1.15 -13.75,2.54 -20.44,3.89c-8.55,1.72 -17.38,3.51 -26.24,4.83c-6.65,1 -13.26,1.5 -19.63,1.5c-27.27,0 -50.57,-9.13 -67.4,-26.4c-0.25,-0.25 -0.61,-0.61 -0.96,-0.99c-18.71,-19.75 -23.85,-48.31 -25.82,-69.41c-4.29,-4.63 -8.5,-9.27 -12.29,-13.45c-5.57,-6.13 -11.33,-12.47 -16.01,-20.04c-6.44,-10.41 -9.09,-21.01 -7.65,-30.67c1.11,-7.48 4.81,-13.25 10.4,-16.23c2.63,-1.39 5.51,-2.1 8.58,-2.1c5.72,0 10.57,2.45 13.62,4.5c1.42,0.95 2.74,1.97 3.99,3.04c0.31,-2.65 0.67,-5.27 1.05,-7.85c-1.29,-12.01 0.64,-22.36 5.74,-30.8c0.52,-0.87 1.09,-1.71 1.71,-2.53c2.65,-8.69 5.8,-16.95 9.36,-24.57c0.24,-0.52 0.48,-1.02 0.73,-1.53c-0.34,-6.79 0.87,-13.95 3.56,-20.93c0.13,-0.36 0.26,-0.68 0.39,-0.96c6.6,-16.34 19.83,-27.29 33,-27.29c0.4,0 0.79,0.01 1.18,0.03c8.63,-7.24 18.01,-13.43 27.99,-18.45c0.34,-0.68 0.69,-1.35 1.06,-1.99c6.02,-10.5 16.85,-17.87 28.75,-19.94c2.92,-7.18 8.7,-13.5 16.59,-17.82c5.54,-3.03 11.97,-4.63 18.63,-4.63c4.38,0 8.73,0.68 12.93,2.02c6.62,2.1 12.81,5.76 18.24,10.74c2.42,-0.74 4.99,-1.12 7.62,-1.12c3.45,0 6.82,0.64 10.02,1.92c5.5,2.19 10.08,6.31 12.97,11.45c6.62,1.44 12.76,4.98 17.17,10.06c1.25,1.44 2.36,3 3.33,4.67c0.42,0.16 0.84,0.32 1.26,0.49c6.41,-8.28 16.4,-13.37 27.27,-13.37c19.04,0 34.53,15.49 34.53,34.52c0,5.73 -1.46,11.35 -4.14,16.33c4.83,4.97 9.19,10.21 13,15.65c7.64,10.9 12.94,22.26 15.75,33.8c1.51,-0.24 3.04,-0.36 4.58,-0.36c1.28,0 2.56,0.08 3.82,0.25c0.95,-0.27 1.95,-0.41 2.98,-0.41c1.47,0 2.9,0.29 4.26,0.86z"></path><g opacity="1"  transform="translate(9.955078125 8.163238525390625)  rotate(0)"><path id="路径 73" fill-rule="evenodd" style="fill:#B0D8E4" opacity="1" d="M354.574,260.378zM336.194,120.598c3.1,13.94 1.13,28.36 3.28,42.4c2.99,19.56 16.66,35.45 18.83,55.27c1.57,14.39 -0.28,28.23 -3.73,42.11c-2.89,11.67 -3.93,25.22 -12.99,33.9c-1.44,1.37 -3.05,2.55 -4.72,3.57c-3.31,2.03 -6.97,3.49 -10.63,4.77c-19.41,6.87 -38.52,10.19 -57.85,11.92c-3.33,0.3 -6.67,0.56 -10.03,0.77c-4.56,0.3 -9.15,0.51 -13.76,0.71c-3.33,0.12 -6.68,0.23 -10.04,0.33c-7.49,0.21 -15.06,0.37 -22.74,0.56c-8.88,0.23 -17.7,1.31 -26.5,2.78c-0.3,0.04 -0.6,0.09 -0.9,0.15c-15.49,2.6 -30.89,6.35 -46.39,8.67c-28,4.19 -57.2199,-0.6 -77.8999,-21.82c-0.28,-0.28 -0.55,-0.55 -0.81,-0.83c-20.43,-21.58 -23.34,-56.51 -24.34,-85.18c-1.34,-39.13 2.96,-79.2 18.87,-113.26c13.78,-29.4797 37.06,-52.5297 65.4499,-65.8197c6.14,-2.89 12.55,-5.32 19.15,-7.24c25.84,-7.55 54.72,-9.04 82.21,-4.45c2.69,0.42 5.38,0.93 8.04,1.5c1.5,0.31 2.99,0.65 4.47,1.02c4.63,1.09 9.19,2.37 13.66,3.83c1.34,0.43 2.66,0.88 3.98,1.36c5.08,1.79 10.05,3.82 14.87,6.09c21.58,10.17 41.99,25.13 56.04,45.16c6.65,9.49 11.93,20.2597 14.48,31.7297z"></path><g opacity="1"  transform="translate(235.773681640625 89.77542114257812)  rotate(0)"><g opacity="1"  transform="translate(43.664306640625 0)  rotate(0)"><path id="路径 74" fill-rule="evenodd" style="fill:#E7D8DD" opacity="1" d="M0.04,33.769zM28.39,72.949c-2.21,5.86 -4.62,11.64 -7.14,17.37c-2.09,4.77 -6.08,13.33 -7.9,16.54c-0.58,-0.67 -3.24,-13.18 -3.93,-16.67c-1.26,-6.38 -2.68,-12.72 -4.03,-19.07c-2.6,-12.31 -4.97,-24.74 -5.35,-37.35c-0.15,-5.35 0.06,-10.78 1.6,-15.9c1.63,-5.4 4.83,-10.43004 9.47,-13.63004c4.64,-3.2 10.78,-4.39 16.09,-2.49c6.31,2.26 10.58,8.47004 12.11,15.00004c1.53,6.52 0.72,13.35 -0.49,19.94c-2.29,12.4 -5.98,24.49 -10.43,36.26z"></path><path  id="路径 75" style="fill:#3D2929; opacity:1;" d="M21.1463,-0.00253c0.03927,6.83282 0.04217,12.92113 0.0087,18.26493c-0.04087,6.52153 -0.138,12.61053 -0.2914,18.267c-0.35887,13.23327 -1.06863,25.39077 -2.1293,36.4725c-0.55813,5.8182 -1.38333,12.33237 -2.4756,19.5425c-0.4368,2.88327 -0.9528,6.12247 -1.548,9.7176c-0.35693,2.15667 -0.9023,5.39033 -1.6361,9.701c-1.2004,7.05133 -2.079,12.34267 -2.6358,15.874c-0.9277,5.884 -1.67626,11.19267 -2.24569,15.926c-0.62423,5.168 -1.08724,10.05767 -1.38904,14.669c-0.33481,5.116 -0.48075,10.02067 -0.43783,14.714c0.00027,0.02867 -0.00229,0.05733 -0.00767,0.086c-0.00537,0.028 -0.01347,0.05567 -0.02428,0.083c-0.01081,0.02667 -0.02413,0.052 -0.03996,0.076c-0.01583,0.024 -0.03387,0.04633 -0.05411,0.067c-0.02024,0.02067 -0.0423,0.03933 -0.06617,0.056c-0.02388,0.016 -0.04911,0.02967 -0.0757,0.041c-0.02659,0.01133 -0.05402,0.02 -0.08231,0.026c-0.02828,0.006 -0.05687,0.009 -0.08576,0.009c-0.02889,0 -0.05752,-0.00267 -0.08591,-0.008c-0.02839,-0.00533 -0.05598,-0.01333 -0.08277,-0.024c-0.02679,-0.01067 -0.05227,-0.024 -0.07644,-0.04c-0.02417,-0.016 -0.04656,-0.034 -0.06717,-0.054c-0.02061,-0.02 -0.03906,-0.042 -0.05533,-0.066c-0.01627,-0.024 -0.03005,-0.04933 -0.04135,-0.076c-0.0113,-0.02667 -0.0199,-0.054 -0.02579,-0.082c-0.0059,-0.02867 -0.00898,-0.05733 -0.00924,-0.086c-0.04313,-4.71467 0.10343,-9.641 0.43967,-14.779c0.30285,-4.62733 0.76734,-9.53333 1.39346,-14.718c0.57071,-4.74333 1.32076,-10.06233 2.25013,-15.957c0.55744,-3.53533 1.43663,-8.83033 2.63756,-15.885c0.7334,-4.30867 1.27857,-7.54067 1.6355,-9.696c0.59447,-3.59147 1.1098,-6.82693 1.546,-9.7064c1.08993,-7.19427 1.91317,-13.69243 2.4697,-19.4945c1.05873,-11.06193 1.76727,-23.19943 2.1256,-36.4125c0.15327,-5.6504 0.2503,-11.7333 0.2911,-18.2487c0.03347,-5.3402 0.03057,-11.42499 -0.0087,-18.25437c-0.0002,-0.02889 0.00243,-0.05752 0.0079,-0.08589c0.00547,-0.02837 0.01367,-0.05593 0.0246,-0.08268c0.01087,-0.02675 0.02427,-0.05219 0.0402,-0.0763c0.01593,-0.02411 0.03403,-0.04644 0.0543,-0.06699c0.02033,-0.02055 0.04247,-0.03891 0.0664,-0.0551c0.02393,-0.01619 0.0492,-0.02989 0.0758,-0.0411c0.02667,-0.01121 0.05413,-0.01971 0.0824,-0.02551c0.02833,-0.0058 0.05693,-0.00878 0.0858,-0.00895c0.02893,-0.00017 0.05757,0.00249 0.0859,0.00796c0.0284,0.00547 0.05597,0.01366 0.0827,0.02456c0.02673,0.0109 0.05217,0.02431 0.0763,0.04022c0.02413,0.01591 0.04647,0.03402 0.067,0.05434c0.02053,0.02031 0.0389,0.04243 0.0551,0.06636c0.0162,0.02393 0.0299,0.04921 0.0411,0.07583c0.0112,0.02663 0.0197,0.05409 0.0255,0.0824c0.0058,0.0283 0.0088,0.0569 0.009,0.08579z"></path></g><g opacity="1"  transform="translate(39.48876953125 37.017822265625)  rotate(0)"><path id="路径 76" fill-rule="evenodd" style="fill:#E7D8DD" opacity="1" d="M49.8678,23.09zM60.3478,70.31c-4.35,4.5 -8.85,8.85 -13.43,13.11c-3.82,3.55 -10.87,9.82 -13.82,12.05c-0.26,-0.84 2.26,-13.39 3.01,-16.86c1.37,-6.35 2.58,-12.74 3.86,-19.11c2.49,-12.33 5.24,-24.68 9.9,-36.41c1.97,-4.97 4.32,-9.87 7.77,-13.96c3.63,-4.31 8.56,-7.66 14.09,-8.76c5.53,-1.1 11.65,0.25 15.77,4.1c4.89,4.57 6.35,11.97 5.17,18.57c-1.18,6.59 -4.64,12.54 -8.37,18.11c-7.01,10.47 -15.19,20.11 -23.95,29.16z"></path><path  id="路径 77" style="fill:#3D2929; opacity:1;" d="M82.625,0.45558c-2.6632,6.27279 -5.07233,11.86319 -7.2274,16.77122c-2.61853,5.96333 -5.12137,11.5149 -7.5085,16.6547c-5.57207,11.9972 -11.04663,22.87867 -16.4237,32.6444c-2.82233,5.1228 -6.16563,10.77943 -10.0299,16.9699c-1.546,2.4766 -3.30533,5.24803 -5.278,8.3143c-1.1862,1.84373 -2.97027,4.59837 -5.3522,8.2639c-3.89193,5.99 -6.79337,10.495 -8.7043,13.515c-3.1814,5.02867 -5.9717,9.60067 -8.3709,13.716c-2.62475,4.50733 -4.98714,8.81233 -7.08718,12.915c-2.33894,4.57 -4.41808,9.01467 -6.23742,13.334c-0.01121,0.02667 -0.02492,0.052 -0.04111,0.076c-0.01619,0.024 -0.03456,0.04633 -0.05511,0.067c-0.02055,0.02 -0.04288,0.038 -0.067,0.054c-0.02412,0.016 -0.04955,0.02933 -0.07631,0.04c-0.02676,0.01067 -0.05432,0.019 -0.08269,0.025c-0.02837,0.00533 -0.057,0.008 -0.08589,0.008c-0.02889,-0.00067 -0.05749,-0.00367 -0.08579,-0.009c-0.0283,-0.006 -0.05577,-0.01467 -0.08239,-0.026c-0.02663,-0.01133 -0.0519,-0.025 -0.07583,-0.041c-0.02393,-0.016 -0.04604,-0.03433 -0.06635,-0.055c-0.02031,-0.02067 -0.03842,-0.043 -0.05432,-0.067c-0.01591,-0.024 -0.02931,-0.04933 -0.04021,-0.076c-0.0109,-0.02733 -0.01908,-0.055 -0.02455,-0.083c-0.00547,-0.02867 -0.00812,-0.05733 -0.00795,-0.086c0.00017,-0.02867 0.00316,-0.05733 0.00896,-0.086c0.0058,-0.028 0.01431,-0.05533 0.02553,-0.082c1.82778,-4.34 3.91614,-8.80467 6.26508,-13.394c2.10735,-4.11733 4.47746,-8.43633 7.11032,-12.957c2.4046,-4.12467 5.2004,-8.70567 8.3874,-13.743c1.91273,-3.02333 4.8161,-7.5314 8.7101,-13.5242c2.3812,-3.66453 4.16453,-6.41813 5.35,-8.2608c1.97047,-3.0628 3.72767,-5.83087 5.2716,-8.3042c3.8558,-6.17687 7.191,-11.81967 10.0056,-16.9284c5.36747,-9.74813 10.8329,-20.61167 16.3963,-32.5906c2.38453,-5.134 4.88483,-10.67993 7.5009,-16.6378c2.15347,-4.9043 4.5612,-10.49141 7.2232,-16.76132c0.01127,-0.02659 0.02503,-0.05183 0.0413,-0.07571c0.01627,-0.02388 0.0347,-0.04594 0.0553,-0.06619c0.0206,-0.02025 0.043,-0.03829 0.0672,-0.05413c0.02413,-0.01584 0.0496,-0.02917 0.0764,-0.03999c0.0268,-0.01082 0.0544,-0.01892 0.0828,-0.02431c0.02833,-0.00539 0.05697,-0.00795 0.0859,-0.0077c0.02887,0.00025 0.05743,0.00332 0.0857,0.00921c0.02833,0.00589 0.0558,0.01447 0.0824,0.02576c0.02653,0.01129 0.05177,0.02507 0.0757,0.04133c0.02387,0.01626 0.0459,0.0347 0.0661,0.0553c0.02027,0.02061 0.03833,0.04299 0.0542,0.06715c0.0158,0.02416 0.02913,0.04964 0.04,0.07643c0.0108,0.02679 0.0189,0.05437 0.0243,0.08276c0.0054,0.02838 0.00797,0.05702 0.0077,0.08591c-0.00027,0.02889 -0.00333,0.05748 -0.0092,0.08576c-0.00593,0.02828 -0.01453,0.05572 -0.0258,0.08232z"></path></g><g opacity="1"  transform="translate(0 48.11822509765625)  rotate(0)"><path id="路径 78" fill-rule="evenodd" style="fill:#E7D8DD" opacity="1" d="M5.31,35.25zM2.37,8.25c2.33,-4.26 6.6,-7.55 11.42,-8.15c5.73,-0.71 11.42,2.42 15.13,6.84c3.7,4.42 5.73,9.99 7.35,15.53c3.05,10.42 4.9,21.15 6.04,31.94c0.57,5.36 0.96,10.74 1.24,16.12c0.24,4.48 0.49,12.61 0.34,15.79c-0.71,-0.3 -7.61,-8.89 -9.49,-11.31c-3.44,-4.41 -6.99,-8.74 -10.49,-13.11c-6.78,-8.45 -13.42,-17.09 -18.6,-26.65c-2.19,-4.05 -4.13,-8.3 -4.93,-12.84c-0.84,-4.79 -0.33,-9.89 1.99,-14.16z"></path><path  id="路径 79" style="fill:#3D2929; opacity:1;" d="M8.45065,1.10004c2.67257,5.22207 5.03608,9.90245 7.09055,14.04116c2.49413,5.02467 4.77997,9.74513 6.8575,14.1614c4.8492,10.30827 9.01513,19.9358 12.4978,28.8826c1.82713,4.69527 3.7194,10.02977 5.6768,16.0035c0.78293,2.38933 1.64303,5.0829 2.5803,8.0807c0.56393,1.80393 1.39923,4.50443 2.5059,8.1015c1.80973,5.88193 3.18527,10.2893 4.1266,13.2221c1.56693,4.88133 3.04813,9.25167 4.4436,13.111c1.5264,4.21867 3.06553,8.156 4.6174,11.812c1.727,4.06867 3.5147,7.89633 5.3631,11.483c0.0114,0.022 0.0205,0.045 0.0273,0.069c0.00687,0.024 0.01133,0.04833 0.0134,0.073c0.00207,0.02467 0.0017,0.04967 -0.0011,0.075c-0.0028,0.02467 -0.008,0.04867 -0.0156,0.072c-0.00753,0.024 -0.01733,0.04667 -0.0294,0.068c-0.01207,0.022 -0.02613,0.04267 -0.0422,0.062c-0.01607,0.01867 -0.03383,0.03567 -0.0533,0.051c-0.01953,0.01533 -0.04033,0.029 -0.0624,0.041c-0.02213,0.01133 -0.04517,0.02033 -0.0691,0.027c-0.02393,0.00667 -0.0483,0.011 -0.0731,0.013c-0.0248,0.002 -0.04957,0.00167 -0.0743,-0.001c-0.02467,-0.00267 -0.04887,-0.00767 -0.0726,-0.015c-0.02367,-0.008 -0.0464,-0.018 -0.0682,-0.03c-0.02173,-0.012 -0.0421,-0.026 -0.0611,-0.042c-0.019,-0.016 -0.03627,-0.03367 -0.0518,-0.053c-0.01547,-0.02 -0.0289,-0.041 -0.0403,-0.063c-1.857,-3.604 -3.65267,-7.44867 -5.387,-11.534c-1.5572,-3.66867 -3.10137,-7.61867 -4.6325,-11.85c-1.3986,-3.868 -2.88277,-8.247 -4.4525,-13.137c-0.94227,-2.93573 -2.3187,-7.34613 -4.1293,-13.2312c-1.10607,-3.595 -1.94107,-6.2944 -2.505,-8.0982c-0.9362,-2.9946 -1.7952,-5.68487 -2.577,-8.0708c-1.9532,-5.96067 -3.84087,-11.2822 -5.663,-15.9646c-3.47633,-8.93067 -7.6354,-18.5423 -12.4772,-28.8349c-2.07527,-4.41147 -4.3588,-9.12717 -6.8506,-14.1471c-2.05307,-4.13595 -4.41519,-8.81356 -7.08638,-14.03283c-0.01134,-0.02215 -0.02041,-0.0452 -0.02721,-0.06914c-0.00679,-0.02394 -0.01119,-0.04831 -0.01319,-0.07311c-0.00199,-0.02481 -0.00155,-0.04957 0.00133,-0.07428c0.00288,-0.02472 0.00814,-0.04892 0.01579,-0.0726c0.00765,-0.02368 0.01753,-0.04639 0.02965,-0.06812c0.01212,-0.02173 0.02624,-0.04208 0.04237,-0.06103c0.01613,-0.01895 0.03395,-0.03614 0.05346,-0.05158c0.01951,-0.01544 0.04035,-0.02883 0.0625,-0.04017c0.02215,-0.01134 0.0452,-0.0204 0.06913,-0.0272c0.02394,-0.0068 0.04831,-0.0112 0.07312,-0.01319c0.0248,-0.002 0.04956,-0.00156 0.07428,0.00133c0.02471,0.00288 0.04891,0.00814 0.07259,0.01579c0.02368,0.00765 0.04639,0.01753 0.06812,0.02965c0.02173,0.01212 0.04208,0.02624 0.06103,0.04237c0.01895,0.01612 0.03615,0.03395 0.05159,0.05347c0.01544,0.01951 0.02883,0.04034 0.04017,0.06249z"></path></g></g><g opacity="1"  transform="translate(0 126.83035278320312)  rotate(0)"><path id="路径 80" fill-rule="evenodd" style="fill:#AD8B96" opacity="1" d="M63.73,139.81zM6.45,77.7701c-4.36,-7.05 -7.4,-15.36 -6.18,-23.56c0.5,-3.35 1.93,-6.86 4.92,-8.46c3.56,-1.89 8.01,-0.4 11.36,1.85c5.62,3.77 9.67,9.43 13.44,15.05c21.9,32.59 39.66,67.9199 59.68,101.6599c-8.23,-8.63 -17,-16.53 -25.94,-24.5c-15.14,-13.49 -28.8,-28.53 -42.43,-43.5399c-5.33,-5.86 -10.68,-11.76 -14.85,-18.5z"></path><path id="路径 81" fill-rule="evenodd" style="fill:#AD8B96" opacity="1" d="M71.2679,126.301zM51.118,1.97066c4.5599,-0.43 8.57,3.09 11.0999,6.91c4.24,6.42004 6.0101,14.13004 7.5,21.68004c8.6701,43.79 11.82,88.6403 18.02,132.8103c-4.8499,-12.66 -10.58,-24.79 -16.47,-37.07c-9.96,-20.79 -17.7,-42.5603 -25.41,-64.2803c-3.02,-8.48 -6.04,-17.02 -7.46,-25.91c-1.49,-9.31 -1.0299,-19.36 3.84,-27.43004c2,-3.3 5.0401,-6.36 8.8801,-6.71z"></path><path id="路径 82" fill-rule="evenodd" style="fill:#AD8B96" opacity="1" d="M84.1769,124.34zM84.1769,124.34c-2.64,-22.9 -2.86,-46 -3.07,-69.05c-0.09,-9 -0.17,-18.06 1.39,-26.93c1.63,-9.28 5.34,-18.64 12.58,-24.67c2.96,-2.47 6.8301,-4.37 10.5701,-3.46c4.46,1.09 7.1,5.72 8.24,10.16c1.92,7.45 1.08,15.32 0.03,22.94c-6.07,44.23 -17.7201,87.65 -26.2501,131.43c-0.46,-13.55 -1.93,-26.88 -3.49,-40.42z"></path></g><g opacity="1"  transform="translate(60.1236572265625 0)  rotate(0)"><g opacity="1"  transform="translate(0 171.99386596679688)  rotate(0)"><path id="路径 83" fill-rule="evenodd" style="fill:#FAEDDC" opacity="1" d="M266.11,130.63zM116.14,1.18c0.11,-0.05 0.21,-0.11 0.32,-0.14c0.44,-0.2 0.74,-0.32 0.9,-0.39c0.05,-0.02 0.08,-0.03 0.1,-0.03c0.02,-0.02 0.04,-0.02 0.04,-0.02l27.72,-0.6c0,0 0.38,0.21 1.12,0.6c0.13,0.05 0.25,0.12 0.39,0.19c0.12,0.07 0.27,0.14 0.41,0.21c3.39,1.85 11.05,6.04 20.68,11.8c3.25,1.95 6.75,4.06 10.38,6.33c0.18,0.11 0.35,0.21 0.51,0.32c0.09,0.05 0.18,0.12 0.26,0.17c18.19,11.41 39.64,26.39 53.26,40.91c13.92,14.82 34.25,47.99 44.51,65.33c-3.31,2.02 -6.97,3.48 -10.63,4.77c-19.41,6.86 -38.52,10.19 -57.85,11.91c0.05,0.3 0.09,0.62 0.09,0.94c0,2.78 -2.27,5.05 -5.05,5.05c-2.8,0 -5.07,-2.27 -5.07,-5.05v-0.16c-4.56,0.3 -9.15,0.51 -13.76,0.7c0.05,0.26 0.07,0.53 0.07,0.79c0,2.8 -2.27,5.05 -5.07,5.05c-2.78,0 -5.05,-2.25 -5.05,-5.05c0,-0.16 0,-0.31 0.01,-0.45c-7.49,0.21 -15.06,0.36 -22.74,0.56c-8.88,0.23 -17.7,1.3 -26.5,2.78c-0.3,0.03 -0.6,0.09 -0.9,0.14c-15.49,2.6 -30.89,6.35 -46.39,8.68c-28,4.19 -57.22,-0.6 -77.9,-21.83c6.72,-27.22 25.59,-53.2 57.59,-86.75c8.48,-8.9 16.22,-16.21 23.12,-22.19c0.29,-0.25 0.55,-0.48 0.83,-0.72c1.67,-1.45 3.31,-2.8 4.88,-4.09c6.79,-5.56 12.6,-9.71 17.28,-12.76c5.1,-3.29 8.87,-5.29 11.16,-6.4c0.14,-0.07 0.28,-0.14 0.4,-0.2c0.14,-0.07 0.27,-0.12 0.39,-0.17c0.18,-0.09 0.33,-0.16 0.47,-0.23z"></path><path id="路径 84" fill-rule="evenodd" style="fill:#4EBCF7" opacity="1" d="M146.732,0.79zM146.732,0.79l-15.75,78.9l-15.72,-78.11c1.48,-0.7 2.24,-0.98 2.24,-0.98l27.72,-0.6c0,0 0.52,0.28 1.51,0.79z"></path><path id="路径 85" fill-rule="evenodd" style="fill:#3D2929" opacity="1" d="M127.562,102.857zM101.152,29.8272c0.03,0.16 0,0.32 -0.11,0.44l-23,24.49c4.34,2.78 38.68,25.38 49.21,46.3698c0.19,0.39 0.37,0.76 0.54,1.15c0.09,0.23 0,0.49 -0.23,0.58c-0.05,0.03 -0.12,0.05 -0.17,0.05c-0.13,0 -0.25,-0.05 -0.34,-0.16v-0.02c-0.03,-0.01 -0.05,-0.05 -0.07,-0.08c-10.31,-22.3898 -49.47,-47.1898 -49.86,-47.4398c-0.1,-0.07 -0.19,-0.19 -0.21,-0.31c0,-0.14 0.04,-0.27 0.12,-0.37l22.85,-24.31l-19.17,-4.47c0.28,-0.24 0.55,-0.47 0.83,-0.72l19.29,4.51c0.14,0.03 0.26,0.15 0.32,0.29z"></path><path id="路径 86" fill-rule="evenodd" style="fill:#3D2929" opacity="1" d="M147.151,0.89596zM130.641,78.036c0.13,-0.72 0.25,-1.44 0.37,-2.18c6.13,-36.06 15.16,-74.62004 15.3,-75.17004c0,-0.03 0.02,-0.05 0.03,-0.09c0.07,-0.17 0.28,-0.28 0.5,-0.23c0.22,0.06 0.37,0.29 0.31,0.53c0,0.02 -0.02,0.05 -0.02,0.11c-0.22,0.91 -1.77,7.6 -3.94,17.54004c-0.02,0.04 -0.02,0.07 -0.03,0.13c-2.85,13.11 -6.78,31.87 -10.11,50.63c-3.04,17.04 -5.57,34.08 -6.38,46.87l-0.02,0.02c0,0.12 -0.02,0.25 -0.02,0.37c-0.03,0.54 -0.07,1.07 -0.09,1.62c-0.67,10.93 -1.09,20.89 -1.35,29.51c-0.3,0.04 -0.6,0.09 -0.9,0.14c0.28,-9.1 0.74,-19.69 1.46,-31.32c0.26,-4.18 0.7,-8.82 1.3,-13.77v-0.01c0.06,-0.53 0.13,-1.08 0.2,-1.61c0.88,-7.19 2.06,-15.01 3.38,-22.98c0.01,-0.04 0.01,-0.07 0.01,-0.11z"></path><path id="路径 87" fill-rule="evenodd" style="fill:#3D2929" opacity="1" d="M191.008,57.6712zM182.798,46.1512c-2.59,-2.7 -5.2,-5.16 -7.71,-7.55c-2.52,-2.4 -5.14,-4.86 -7.73,-7.57c-0.16,-0.16 -0.18,-0.42 -0.02,-0.6c3.84,-4.3 7.39,-7.99 10.86,-11.3c0.27,0.16 0.53,0.32 0.78,0.49c-3.44,3.22 -6.92,6.87 -10.7,11.09c2.48,2.59 4.99,4.95 7.41,7.25c2.53,2.4 5.13,4.86 7.74,7.57c3.36,3.52 5.84,7.48 7.58,12.14c0.04,0.11 0.04,0.23 -0.01,0.36c-0.06,0.1 -0.16,0.17 -0.27,0.22c-15.54,4.81 -27.86,13.77 -37.85,21.9c-10.34,8.39 -19.56,21.8098 -25.98,37.7498c-0.07,0.16 -0.2,0.27 -0.35,0.28h-0.06c-0.05,0 -0.1,-0.01 -0.17,-0.03c-0.21,-0.09 -0.34,-0.35 -0.23,-0.58c0.17,-0.46 0.37,-0.92 0.56,-1.38c6.43,-15.48 15.52,-28.4898 25.66,-36.7298c9.98,-8.09 22.23,-17.03 37.7,-21.91c-1.69,-4.36 -4.05,-8.1 -7.21,-11.4z"></path><path id="路径 88" fill-rule="evenodd" style="fill:#3D2929" opacity="1" d="M130.983,78.3351zM130.983,78.3351c-0.21,0 -0.39,-0.14 -0.43,-0.35l-15.72,-76.30996c-0.05,-0.24 0.1,-0.47 0.34,-0.52c0.23,-0.04 0.47,0.1 0.52,0.34l15.72,76.30996c0.05,0.24 -0.11,0.47 -0.34,0.52c-0.03,0.01 -0.06,0.01 -0.09,0.01z"></path></g><g opacity="1"  transform="translate(50.694091796875 0)  rotate(0)"><g opacity="1"  transform="translate(65.420166015625 152.22903442382812)  rotate(0)"><path id="路径 89" fill-rule="evenodd" style="fill:#FF988C" opacity="1" d="M29.1,19.76zM29.1,19.76c0,0 -1.81,11.25 -13.04,11.92c-11.14,0.67 -16.06,-10.56 -16.06,-10.56l1.49,-11.37l0.42,-8.27v-0.12l0.67,-0.04l25.4,-1.32l0.4,7.04z"></path><path id="路径 90" fill-rule="evenodd" style="fill:#3D2929" opacity="1" d="M28.379,7.04zM16.289,16.33c-1.6,0.16 -3.2,-0.01 -4.77,-0.38c-3.88999,-0.95 -7.42999,-3.19 -10.02999,-6.2l0.42,-8.27c0.23,-0.05 0.44,-0.11 0.67,-0.16l25.39999,-1.32l0.4,7.04c-0.79,1.41 -1.67,2.75 -2.73,3.96c-2.39,2.8 -5.7,4.98 -9.36,5.33z"></path></g><path id="路径 91" fill-rule="evenodd" style="fill:#FF988C" opacity="1" d="M142.144,95.3775zM142.144,95.3775c0,8.3295 -1.61,16.2695 -4.55,23.5195c-9.31,22.97 -31.82,39.17 -58.1397,39.17c-21.56,0 -40.56,-10.87 -51.83,-27.43c-6.84,-10.05 -10.84,-22.18 -10.84,-35.2595c0,-34.62 28.05,-62.67 62.67,-62.67c34.6197,0 62.6897,28.05 62.6897,62.67z"></path><path id="路径 92" fill-rule="evenodd" style="fill:#FF988C" opacity="1" d="M6.32,91.2205zM0.01,102.14c0.12,-4.4095 2.39,-8.8995 6.31,-10.9195c6.15,-3.18 11.59,0.64 14.19,5.94c3.51,7.1495 7.89,14.1795 7.74,22.4395c-0.03,1.74 -0.38,3.7 -1.83,4.69c-0.67,0.45 -1.49,0.63 -2.29,0.73c-7.88,1.03 -15.55,-3.97 -20.01,-10.53c-2.48,-3.65 -4.24,-7.95 -4.11,-12.35z"></path><path id="路径 93" fill-rule="evenodd" style="fill:#FF988C" opacity="1" d="M151.357,90.3219zM151.357,90.3219c3.92,2.02 6.18,6.51 6.31,10.9101c0.13,4.42 -1.63,8.71 -4.11,12.35c-4.47,6.57 -12.14,11.57 -20.01,10.55c-0.8,-0.11 -1.63,-0.29 -2.3,-0.74c-1.44,-0.98 -1.8,-2.95 -1.83,-4.69c-0.14,-8.26 4.24,-15.3 7.75,-22.4401c2.59,-5.3 8.03,-9.12 14.19,-5.94z"></path><g opacity="1"  transform="translate(45.3016357421875 68.97360229492188)  rotate(0)"><path id="椭圆 10" fill-rule="evenodd" style="fill:#3D2929" opacity="1" d="M12.254 14.7279C9.58395 14.7279 7.42395 16.8879 7.42395 19.5579C7.42395 22.2279 9.58395 24.3879 12.254 24.3879C14.924 24.3879 17.084 22.2279 17.084 19.5579C17.084 16.8879 14.924 14.7279 12.254 14.7279Z"></path><path id="椭圆 11" fill-rule="evenodd" style="fill:#3D2929" opacity="1" d="M54.0446 14.7279C51.3746 14.7279 49.2146 16.8879 49.2146 19.5579C49.2146 22.2279 51.3746 24.3879 54.0446 24.3879C56.7146 24.3879 58.8746 22.2279 58.8746 19.5579C58.8746 16.8879 56.7146 14.7279 54.0446 14.7279Z"></path><path id="路径 94" fill-rule="evenodd" style="fill:#FE6963" opacity="1" d="M24.6991,16.2347zM37.8691,42.0347c-2.5,2.29 -6.61,2.57 -9.4,0.64c-1.08,-0.74 -2.06,-1.81 -3.37,-1.93c-1.03,-0.09 -2.07,0.44 -3.09,0.25c-2.04,-0.39 -2.47,-3.11 -2.31,-5.19c0.52,-6.74 2.22,-13.4 5,-19.57c1.68,-3.72 6.83,-7.95997 11.19,-5.97c1.59,0.72 2.81,2.07 3.81,3.5c3.58,5.08 4.95,11.35 6.24,17.43c0.28,1.33 0.56,2.69 0.39,4.03c-0.18,1.35 -0.92,2.7 -2.16,3.25c-0.93,0.41 -2.02,0.33 -2.98,0.69c-1.38,0.53 -2.23,1.88 -3.32,2.87z"></path><path id="路径 95" fill-rule="evenodd" style="fill:#3D2929" opacity="1" d="M0.09,7.24zM0.94,10.29c-0.83,-0.73 -1.1,-1.96 -0.85,-3.05c0.85,-3.78 7.4,-7.09 11.05,-7.24c4.29,-0.17 7.37,5.36 3.15,7.96c-1.68,1.03 -3.52,1.8 -5.43,2.28c-1.27,0.32 -2.57,0.51 -3.87,0.68c-1.4,0.18 -2.99,0.3 -4.05,-0.63z"></path><path id="路径 96" fill-rule="evenodd" style="fill:#3D2929" opacity="1" d="M64.2915,7.24zM64.2915,7.24c0.25,1.09 -0.02,2.32 -0.85,3.05c-1.06,0.93 -2.65,0.81 -4.05,0.63c-1.3,-0.17 -2.6,-0.36 -3.87,-0.68c-1.91,-0.48 -3.75,-1.25 -5.42,-2.28c-4.23,-2.6 -1.15,-8.13 3.15,-7.96c3.65,0.15 10.19,3.46 11.04,7.24z"></path></g><g opacity="1"  transform="translate(16.013427734375 87.82540893554688)  rotate(0)"><path id="路径 97" fill-rule="evenodd" style="fill:#FAEDDC" opacity="1" d="M124.285,14.1523zM121.575,31.0723c-9.31,22.96 -31.8201,39.17 -58.1301,39.17c-21.56,0 -40.57,-10.87 -51.83,-27.43c-3.67996,-8.29 -4.90996,-17.48 -6.17996,-26.46c12.59996,1.32 24.42996,-5.45 36.37996,-9.65997c5,-1.74 10.15,-3.08 15.36,-3.94c4.46,-0.76 9,-1.18 13.5,-0.69c9.31,0.99 17.73,5.76 26.37,9.39997c8.6401,3.63 18.5501,6.18 27.2401,2.69c-0.65,5.62 -1.46,11.34 -2.71,16.92z"></path><path  id="路径 98" style="fill:#FAEDDC; opacity:1;" d="M0.81244,1.82662c0.50983,1.22495 1.34657,3.13182 2.51021,5.72061c1.1516,2.56198 1.99728,4.48507 2.53704,5.76927c0.90787,2.15993 1.63337,4.06793 2.17649,5.724l-1.67236,0.5485c-0.52831,-1.61093 -1.23719,-3.47447 -2.12664,-5.5906c-0.53418,-1.27087 -1.37412,-3.18074 -2.51982,-5.72961c-1.17039,-2.60379 -2.01365,-4.52575 -2.5298,-5.76588z"></path><path  id="路径 99" style="fill:#FAEDDC; opacity:1;" d="M127.439,0.17701l-1.115,5.42987l-1.115,5.43012c-0.36667,1.80733 -0.66667,3.19287 -0.9,4.1566c-0.37467,1.5436 -0.779,2.9214 -1.213,4.1334l-1.657,-0.594c0.41333,-1.15313 0.79967,-2.47117 1.159,-3.9541c0.22867,-0.9422 0.52433,-2.3075 0.887,-4.0959l1.115,-5.43013l1.115,-5.42988z"></path></g><g opacity="1"  transform="translate(6.759521484375 0)  rotate(0)"><path id="路径 100" fill-rule="evenodd" style="fill:#3D2929" opacity="1" d="M106.771,25.8682zM94.7411,44.0182c-0.0901,-1.11 -0.0501,-2.25 0.2799,-3.31c0.3701,-1.24 1.1201,-2.32 1.88,-3.36c2.9801,-4.07 6.43,-7.78 9.87,-11.48c2,-2.15 4.26,-2.08 7.14,-1.46c6.55,1.41 11.97,6.28 15.43,12.02c3.47,5.75 5.22,12.34 6.68,18.89c2.73,12.23 3.9,27.58 -0.86,39.17c-7.25,-3.14 -14.56,-8.63 -19.86,-14.5c-5.3,-5.87 -9.03,-14.26 -6.46,-21.74c-7.23,-0.62 -13.54,-6.99 -14.0999,-14.23z"></path><path id="路径 101" fill-rule="evenodd" style="fill:#3D2929" opacity="1" d="M95.44,39.91zM5.13,68.71c-6.22,-9.31 -6.91,-21.93 -1.35,-31.64c5.56,-9.71 16.86,-15.82 28.03,-15.16c0.32,-8 6.2,-14.73 13.21,-18.58c7.02,-3.84 15.66,-4.24 23.28,-1.81c7.63,2.42 14.25,7.51 19.24,13.76c4.22,-3.87 10.62,-4.59 15.94,-2.47c5.32,2.12 9.22,7.44 9.64,13.15c0.36,4.95 -4.95,8.39 -9.02,11.24c-2.32,1.62 -5.84,2.91 -8.66,2.71c-0.91,2.13 -3.16,3.34 -5.33,4.15c-8.64,3.21 -18.66,2.51 -26.76,-1.9c-2.32,6.23 -5.95,10.72 -11.69,14.09c-5.73,3.36 -12.64,4.68 -19.21,3.66c-0.27,14.29 -10.26,27.24 -23.7,32.1c-0.51,-0.69 -1.17,-1.42 -1.68,-2.1c-1.42,-1.9 -2.84,-3.83 -3.78,-6c-2.12,-4.91 -1.39,-10.94 1.84,-15.2z"></path><path id="路径 102" fill-rule="evenodd" style="fill:#3D2929" opacity="1" d="M112.019,24.3303zM112.019,24.3303c6.52,-0.56 13.24,2.16 17.53,7.11c4.29,4.94 6.05,11.97 4.57,18.35c5.06,1.95 8.56,7.39 9.51,12.72c0.95,5.33 -0.23,10.84 -2.17,15.89c-1.95,5.05 -4.07,10.93 -6.29,15.86c-5.09,-24.06 -12.93,-47.57 -23.15,-69.93z"></path></g></g><g opacity="1"  transform="translate(55.03857421875 166.43228149414062)  rotate(0)"><path id="路径 103" fill-rule="evenodd" style="fill:#3D2929" opacity="1" d="M61.7836,1.67377zM28.1036,38.9838c-6.79,15.45 -8.83,32.44 -10.01,48.47c-0.81,10.97 -1.39,23.5302 -0.09,36.1502c0.24,2.43 0.58,4.86 0.98,7.29c0.02,0.16 0.04,0.31 0.07,0.47c0.18,0.97 -0.47,1.87 -1.42,2.04c-0.11,0.02 -0.21,0.02 -0.3,0.02c-0.85,0 -1.6,-0.6 -1.74,-1.46c-0.04,-0.23 -0.07,-0.46 -0.11,-0.69c-0.4,-2.41 -0.72,-4.84 -0.97,-7.25c-1.35,-12.91 -0.75,-25.6902 0.06,-36.8302c1.21,-16.35 3.3,-33.67 10.31,-49.64c6.48,-14.73 21.8,-29.32003 36.9,-35.88003l-0.6,4.16c-13.64,6.60003 -27.2,19.79003 -33.08,33.15003z"></path><path id="路径 104" fill-rule="evenodd" style="fill:#3D2929" opacity="1" d="M144.475,72.18zM97.8846,6.78c-1.63,-1.01 -4.77,-2.2 -7.81,-3.07l-0.23,-3.71c3.71,0.97 7.76,2.46 9.89,3.78c23.9704,14.91 40.6904,40.47 44.7404,68.4c0.02,0.17 0.02,0.33 -0.02,0.49c-0.09,0.76 -0.68,1.39 -1.48,1.5c-0.08,0.01 -0.17,0.01 -0.24,0.01c-0.53,0 -1.01,-0.22 -1.34,-0.61c-0.02,-0.02 0,-0.02 0,-0.02c-0.21,-0.25 -0.35,-0.53 -0.4,-0.88c-3.91,-26.91 -20.02,-51.53 -43.1104,-65.89z"></path><path  id="路径 105" style="fill:#3D2929; opacity:1;" d="M143.888,73.4697c-4.73933,4.90107 -8.85233,10.31567 -12.339,16.2438c-3.48867,5.93147 -6.22267,12.1593 -8.202,18.6835c-1.37467,4.53467 -2.12933,8.66733 -2.264,12.398c-0.16,4.428 0.54833,8.33033 2.125,11.707c0.78,1.67 2.07833,3.36267 3.895,5.078c1.76133,1.66333 3.83167,3.18233 6.211,4.557c2.348,1.35733 4.71833,2.414 7.111,3.17c2.42467,0.76667 4.587,1.133 6.487,1.099c0.058,-0.00067 0.11567,0.00133 0.173,0.006c0.05733,0.00467 0.11433,0.012 0.171,0.022c0.05667,0.01067 0.11267,0.02367 0.168,0.039c0.05533,0.016 0.11,0.03467 0.164,0.056c0.05333,0.02067 0.10567,0.04433 0.157,0.071c0.05133,0.026 0.10133,0.05467 0.15,0.086c0.04867,0.03133 0.09567,0.06467 0.141,0.1c0.04467,0.036 0.088,0.074 0.13,0.114c0.04133,0.04 0.08067,0.082 0.118,0.126c0.03733,0.044 0.07233,0.08967 0.105,0.137c0.03267,0.04733 0.063,0.096 0.091,0.146c0.02867,0.05067 0.05433,0.10233 0.077,0.155c0.02267,0.05267 0.043,0.10667 0.061,0.162c0.018,0.05467 0.033,0.11033 0.045,0.167c0.012,0.056 0.02133,0.11267 0.028,0.17c0.00667,0.05733 0.01067,0.11467 0.012,0.172c0.00067,0.058 -0.00133,0.11567 -0.006,0.173c-0.00467,0.05733 -0.012,0.11433 -0.022,0.171c-0.01,0.05667 -0.023,0.11267 -0.039,0.168c-0.016,0.056 -0.03433,0.11067 -0.055,0.164c-0.02133,0.05333 -0.045,0.10567 -0.071,0.157c-0.02667,0.05133 -0.05567,0.10133 -0.087,0.15c-0.03067,0.04867 -0.064,0.09567 -0.1,0.141c-0.036,0.04467 -0.074,0.088 -0.114,0.13c-0.04,0.04133 -0.082,0.08067 -0.126,0.118c-0.04333,0.03733 -0.089,0.07233 -0.137,0.105c-0.04733,0.03267 -0.096,0.06333 -0.146,0.092c-0.05067,0.028 -0.10233,0.05333 -0.155,0.076c-0.05267,0.02333 -0.10633,0.04367 -0.161,0.061c-0.05533,0.018 -0.111,0.033 -0.167,0.045c-0.05667,0.012 -0.11367,0.02133 -0.171,0.028c-0.05667,0.00667 -0.114,0.01067 -0.172,0.012c-2.28333,0.04 -4.82,-0.381 -7.61,-1.263c-2.63733,-0.83333 -5.24133,-1.99267 -7.812,-3.478c-2.616,-1.512 -4.90467,-3.194 -6.866,-5.046c-2.142,-2.02267 -3.698,-4.072 -4.668,-6.148c-1.81533,-3.88933 -2.633,-8.33033 -2.453,-13.323c0.146,-4.03533 0.95067,-8.46633 2.414,-13.293c2.06,-6.7916 4.90533,-13.27363 8.536,-19.4461c3.62867,-6.16887 7.90967,-11.80423 12.843,-16.9061c0.04,-0.04147 0.082,-0.08087 0.126,-0.1182c0.044,-0.03727 0.08967,-0.07233 0.137,-0.1052c0.04733,-0.0328 0.09633,-0.0632 0.147,-0.0912c0.05,-0.02807 0.10133,-0.05357 0.154,-0.0765c0.05333,-0.02293 0.10733,-0.04323 0.162,-0.0609c0.05467,-0.01767 0.11033,-0.0326 0.167,-0.0448c0.056,-0.0122 0.11267,-0.0216 0.17,-0.0282c0.05733,-0.0066 0.115,-0.01037 0.173,-0.0113c0.05733,-0.001 0.11467,0.00087 0.172,0.0056c0.05733,0.00467 0.11433,0.01213 0.171,0.0224c0.05733,0.01033 0.11367,0.0234 0.169,0.0392c0.05533,0.0158 0.10967,0.03427 0.163,0.0554c0.054,0.0212 0.10667,0.04493 0.158,0.0712c0.05133,0.02633 0.101,0.0551 0.149,0.0863c0.04867,0.03127 0.09567,0.0648 0.141,0.1006c0.04467,0.0358 0.088,0.07373 0.13,0.1138c0.04133,0.04007 0.08067,0.08207 0.118,0.126c0.03733,0.04393 0.07233,0.0896 0.105,0.137c0.03267,0.0474 0.063,0.09627 0.091,0.1466c0.028,0.0504 0.05367,0.10203 0.077,0.1549c0.02267,0.05287 0.043,0.10673 0.061,0.1616c0.01733,0.05487 0.032,0.11047 0.044,0.1668c0.01267,0.05633 0.022,0.11313 0.028,0.1704c0.00667,0.05727 0.01067,0.11473 0.012,0.1724c0.00067,0.0576 -0.00133,0.11513 -0.006,0.1726c-0.00467,0.05747 -0.012,0.11457 -0.022,0.1713c-0.01067,0.05667 -0.02367,0.11273 -0.039,0.1682c-0.016,0.0554 -0.03467,0.10993 -0.056,0.1636c-0.02133,0.0536 -0.045,0.10603 -0.071,0.1573c-0.02667,0.05127 -0.05533,0.10113 -0.086,0.1496c-0.03133,0.04847 -0.065,0.0953 -0.101,0.1405c-0.036,0.04513 -0.074,0.08843 -0.114,0.1299z"></path><path  id="路径 106" style="fill:#3D2929; opacity:1;" d="M143.862,70.4467c3.004,1.27533 5.755,3.14267 8.253,5.602c2.32733,2.29067 4.29533,4.95167 5.904,7.983c2.75333,5.20613 4.433,11.4459 5.039,18.7193c0.382,4.53867 0.26233,8.604 -0.359,12.196c-0.768,4.46467 -2.37167,8.773 -4.811,12.925c-2.312,3.936 -5.22433,7.48367 -8.737,10.643c-3.292,2.95733 -7.04833,5.52767 -11.269,7.711c-3.90533,2.02067 -8.132,3.67233 -12.68,4.955c-0.05533,0.01533 -0.11133,0.028 -0.168,0.038c-0.05667,0.01 -0.114,0.01733 -0.172,0.022c-0.05733,0.00467 -0.11467,0.00633 -0.172,0.005c-0.058,-0.00067 -0.11567,-0.00467 -0.173,-0.012c-0.05667,-0.00667 -0.11333,-0.016 -0.17,-0.028c-0.056,-0.01267 -0.11167,-0.02767 -0.167,-0.045c-0.05467,-0.018 -0.10833,-0.03867 -0.161,-0.062c-0.05267,-0.02267 -0.10433,-0.04833 -0.155,-0.077c-0.05,-0.028 -0.09867,-0.05833 -0.146,-0.091c-0.04733,-0.03333 -0.093,-0.06867 -0.137,-0.106c-0.04333,-0.03733 -0.085,-0.07667 -0.125,-0.118c-0.04,-0.042 -0.078,-0.08567 -0.114,-0.131c-0.03533,-0.04533 -0.06867,-0.092 -0.1,-0.14c-0.03133,-0.04867 -0.06,-0.09867 -0.086,-0.15c-0.026,-0.05133 -0.04967,-0.104 -0.071,-0.158c-0.02067,-0.05333 -0.039,-0.108 -0.055,-0.164c-0.01533,-0.05533 -0.028,-0.11133 -0.038,-0.168c-0.01,-0.05667 -0.01733,-0.11367 -0.022,-0.171c-0.00467,-0.05733 -0.00633,-0.115 -0.005,-0.173c0.00067,-0.05733 0.00467,-0.11467 0.012,-0.172c0.00667,-0.05733 0.016,-0.11433 0.028,-0.171c0.01267,-0.056 0.028,-0.11133 0.046,-0.166c0.01733,-0.05467 0.03767,-0.10867 0.061,-0.162c0.02333,-0.05267 0.049,-0.104 0.077,-0.154c0.028,-0.05067 0.05833,-0.09967 0.091,-0.147c0.03333,-0.04733 0.06867,-0.09267 0.106,-0.136c0.03733,-0.044 0.077,-0.086 0.119,-0.126c0.04133,-0.04 0.08467,-0.07767 0.13,-0.113c0.04533,-0.036 0.092,-0.06967 0.14,-0.101c0.04867,-0.03067 0.09867,-0.059 0.15,-0.085c0.05133,-0.02667 0.104,-0.05033 0.158,-0.071c0.05333,-0.02133 0.108,-0.03967 0.164,-0.055c4.318,-1.218 8.32367,-2.78233 12.017,-4.693c3.95467,-2.046 7.46567,-4.44667 10.533,-7.202c3.24267,-2.91667 5.928,-6.18633 8.056,-9.809c2.222,-3.78333 3.681,-7.69767 4.377,-11.743c0.57067,-3.29467 0.67733,-7.06233 0.32,-11.303c-0.566,-6.79507 -2.11267,-12.58217 -4.64,-17.3613c-1.43933,-2.71227 -3.194,-5.08707 -5.264,-7.1244c-2.18,-2.1462 -4.56667,-3.76973 -7.16,-4.8706c-0.05267,-0.02253 -0.10433,-0.0476 -0.155,-0.0752c-0.05067,-0.0276 -0.09967,-0.05763 -0.147,-0.0901c-0.048,-0.03247 -0.094,-0.06717 -0.138,-0.1041c-0.04467,-0.037 -0.087,-0.07603 -0.127,-0.1171c-0.04067,-0.04113 -0.079,-0.08413 -0.115,-0.129c-0.036,-0.04487 -0.07,-0.09143 -0.102,-0.1397c-0.03133,-0.0482 -0.06033,-0.09783 -0.087,-0.1489c-0.02667,-0.05107 -0.051,-0.10333 -0.073,-0.1568c-0.02133,-0.0534 -0.04,-0.10777 -0.056,-0.1631c-0.01667,-0.05533 -0.03033,-0.1113 -0.041,-0.1679c-0.01067,-0.05667 -0.01867,-0.1137 -0.024,-0.1711c-0.00467,-0.0574 -0.007,-0.11493 -0.007,-0.1726c0.00067,-0.0576 0.004,-0.11507 0.01,-0.1724c0.00667,-0.05727 0.01567,-0.11413 0.027,-0.1706c0.012,-0.0564 0.02667,-0.11213 0.044,-0.1672c0.01733,-0.055 0.037,-0.10903 0.059,-0.1621c0.02267,-0.053 0.048,-0.1048 0.076,-0.1554c0.02733,-0.0506 0.05733,-0.09973 0.09,-0.1474c0.032,-0.04767 0.06667,-0.0936 0.104,-0.1378c0.03667,-0.04427 0.07567,-0.0866 0.117,-0.127c0.04133,-0.0404 0.08433,-0.07867 0.129,-0.1148c0.04467,-0.0362 0.09133,-0.0701 0.14,-0.1017c0.048,-0.0316 0.09733,-0.06073 0.148,-0.0874c0.05133,-0.02673 0.10367,-0.0509 0.157,-0.0725c0.05333,-0.0216 0.10767,-0.04053 0.163,-0.0568c0.05533,-0.0162 0.11133,-0.0297 0.168,-0.0405c0.05667,-0.01073 0.11367,-0.01867 0.171,-0.0238c0.05733,-0.00513 0.115,-0.00743 0.173,-0.0069c0.05733,0.00047 0.11467,0.0038 0.172,0.01c0.05733,0.00613 0.11433,0.01507 0.171,0.0268c0.05667,0.01173 0.11233,0.02623 0.167,0.0435c0.05533,0.0172 0.10933,0.03707 0.162,0.0596z"></path><g opacity="1"  transform="translate(0 123.60125732421875)  rotate(0)"><path id="椭圆 12" fill-rule="evenodd" style="fill:#3D2929" opacity="1" d="M18.42 0C8.25 0 0 8.25 0 18.42C0 28.6 8.25 36.85 18.42 36.85C28.6 36.85 36.85 28.6 36.85 18.42C36.85 8.25 28.6 0 18.42 0Z"></path><path  id="路径 107" style="fill:#FAEDDC; opacity:1;" d="M18.4255,7.51934c-1.4784,0 -2.8929,0.2858 -4.2435,0.85741c-1.3046,0.55213 -2.4602,1.33152 -3.4668,2.33815c-1.00667,1.00667 -1.78608,2.1623 -2.33821,3.4669c-0.5716,1.3506 -0.8574,2.7651 -0.8574,4.2435c0,1.47833 0.2858,2.8928 0.8574,4.2434c0.55213,1.3046 1.33154,2.46023 2.33821,3.4669c1.00667,1.00667 2.16227,1.78607 3.4668,2.3382c1.35067,0.5716 2.76517,0.8574 4.2435,0.8574c1.4784,0 2.8929,-0.2858 4.2435,-0.8574c1.3046,-0.55213 2.4602,-1.33153 3.4668,-2.3382c1.00667,-1.00667 1.78607,-2.1623 2.3382,-3.4669c0.5716,-1.3506 0.8574,-2.76507 0.8574,-4.2434c0,-1.4784 -0.2858,-2.8929 -0.8574,-4.2435c-0.55213,-1.3046 -1.33153,-2.46023 -2.3382,-3.4669c-1.0066,-1.00663 -2.1622,-1.78602 -3.4668,-2.33815c-1.3506,-0.57161 -2.7651,-0.85741 -4.2435,-0.85741zM18.4255,7.01117c1.54713,0 3.02763,0.2992 4.4415,0.8976c1.3654,0.57787 2.5748,1.39348 3.6282,2.44683c1.05333,1.05333 1.86893,2.2627 2.4468,3.6281c0.5984,1.41393 0.8976,2.89447 0.8976,4.4416c0,1.54707 -0.2992,3.02757 -0.8976,4.4415c-0.57787,1.3654 -1.39347,2.57477 -2.4468,3.6281c-1.0534,1.0534 -2.2628,1.869 -3.6282,2.4468c-1.41387,0.5984 -2.89437,0.8976 -4.4415,0.8976c-1.54713,0 -3.02763,-0.29917 -4.4415,-0.8975c-1.3654,-0.57787 -2.5748,-1.3935 -3.6282,-2.4469c-1.05332,-1.05333 -1.86892,-2.2627 -2.44679,-3.6281c-0.59839,-1.41393 -0.89759,-2.89443 -0.89759,-4.4415c0,-1.54713 0.2992,-3.02767 0.89759,-4.4416c0.57787,-1.3654 1.39347,-2.57477 2.44679,-3.6281c1.0534,-1.05335 2.2628,-1.86896 3.6282,-2.44683c1.41387,-0.5984 2.89437,-0.8976 4.4415,-0.8976z"></path></g><path id="路径 108" fill-rule="evenodd" style="fill:#3D2929" opacity="1" d="M129.497,150.373zM129.497,150.373c0,2.8 -2.27,5.05 -5.07,5.05c-2.78,0 -5.05,-2.25 -5.05,-5.05c0,-0.16 0,-0.32 0.02,-0.46c0.24,-2.58 2.41,-4.59 5.03,-4.59c1.99,0 3.71,1.14 4.54,2.82c0.23,0.45 0.39,0.93 0.46,1.44c0.05,0.26 0.07,0.53 0.07,0.79z"></path><path id="路径 109" fill-rule="evenodd" style="fill:#3D2929" opacity="1" d="M153.31,149.038zM153.31,149.038c0,2.78 -2.27,5.05 -5.05,5.05c-2.8,0 -5.07,-2.27 -5.07,-5.05v-0.16c0.02,-0.35 0.07,-0.7 0.16,-1.04c0.53,-2.22 2.53,-3.87 4.91,-3.87c2.46,0 4.52,1.78 4.96,4.14c0.05,0.3 0.09,0.61 0.09,0.93z"></path></g></g><g opacity="1"  transform="translate(55.5032958984375 62.785186767578125)  rotate(0)"><path id="路径 110" fill-rule="evenodd" style="fill:#E7D8DD" opacity="1" d="M13.0061,56.9884zM13.0061,56.9884c-0.99,-0.39 -1.91,-0.88 -2.76,-1.49c-7.39004,-5.38 -9.30004,-19.01 -4.06004,-32.53c0.03,-0.05 0.05,-0.14 0.08,-0.2c5.78004,-14.70001 17.95004,-23.70001 27.47004,-20.45001c0.14,0.05 0.3,0.11 0.46,0.17c8.95,3.46 12.22,16.95001 7.88,30.94001c-0.32,1.03 -0.65,2.05 -1.06,3.08c-5.85,15.05 -18.39,24.22 -28.01,20.48z"></path><path id="路径 111" fill-rule="evenodd" style="fill:#FAEDDC" opacity="1" d="M10.24,55.5zM33.73,2.32c7.08,5.15 9.14,17.93 4.69,30.88c-0.19,0.56 -0.4,1.1 -0.61,1.66c-5.77,14.81 -18.01,23.94 -27.57,20.64c-0.14,-0.05 -0.3,-0.11 -0.44,-0.16c-9.62,-3.74 -12.69,-18.96 -6.82,-34.02c0.03,-0.1 0.09,-0.22 0.14,-0.31c5.88,-14.86 18.3,-23.88 27.85,-20.18c0.99,0.39 1.91,0.88 2.76,1.49z"></path><path id="路径 112" fill-rule="evenodd" style="fill:#4EBCF7" opacity="1" d="M38.429,33.2zM38.429,33.2c-3.29,-0.38 -6.56,-1.21 -9.75,-2.11c-7.69,-2.12 -15.36,-4.64 -22.40998,-8.32c-1.08,-0.55 -2.11,-1.13 -3.15,-1.76c5.89,-14.86 18.30998,-23.88 27.84998,-20.18c0.99,0.39 1.91,0.88 2.76,1.49c7.09,5.15 9.14,17.93 4.7,30.88z"></path></g><g opacity="1"  transform="translate(292.8282470703125 185.79922485351562)  rotate(0)"><path id="路径 113" fill-rule="evenodd" style="fill:#E7D8DD" opacity="1" d="M2.69,7.90693zM16.98,42.4869c-0.89,-0.6 -1.78,-1.21 -2.65,-1.9c-12.76,-9.89 -17.97,-24.53 -11.64,-32.67997c0.66,-0.84 1.39,-1.58 2.22,-2.22c7.26,-5.55 20.87,-3.5 32.33,5.38997c0.05,0.04 0.13,0.08 0.17,0.13c12.44,9.73 17.6,23.96 11.77,32.15c-0.09,0.13 -0.19,0.26 -0.29,0.4c-5.87,7.59 -19.74,6.88 -31.91,-1.27z"></path><path id="路径 114" fill-rule="evenodd" style="fill:#FAEDDC" opacity="1" d="M4.91049,5.68zM39.7405,8.47c0.09,0.06 0.18,0.15 0.26,0.22c12.56,9.88 17.66,24.36 11.4,32.45c-0.66,0.84 -1.39,1.58 -2.22,2.22c-6.96,5.32 -19.79,3.65 -30.93,-4.31c-0.49,-0.35 -0.95,-0.7 -1.42,-1.06c-12.55001,-9.75 -17.81001,-24.08 -11.92001,-32.31c0.09,-0.12 0.19,-0.26 0.28,-0.38c6.32001,-8.15 21.79001,-6.75 34.55001,3.17z"></path><path id="路径 115" fill-rule="evenodd" style="fill:#FFA255" opacity="1" d="M18.2485,39.0509zM18.2485,39.0509c1.3,-3.04 3.03,-5.94 4.8,-8.74c4.22,-6.76 8.83,-13.4 14.36,-19.11c0.84,-0.87 1.69,-1.69998 2.59,-2.50998c12.57,9.87998 17.67,24.34998 11.4,32.44998c-0.66,0.84 -1.39,1.57 -2.22,2.22c-6.95,5.32 -19.78,3.65 -30.93,-4.31z"></path></g><g opacity="1"  transform="translate(100.915283203125 153.71011352539062)  rotate(0)"><path id="椭圆 13" fill-rule="evenodd" style="fill:#FAEDDC" opacity="1" d="M-5.47948 11.9896C-8.50569 24.6633 -0.687003 37.3871 11.9867 40.4133C24.6604 43.4395 37.3842 35.6208 40.4104 22.9471C43.4367 10.2734 35.618 -2.45041 22.9443 -5.47663C10.2705 -8.50285 -2.45326 -0.684158 -5.47948 11.9896Z"></path><g opacity="1"  transform="translate(4.189453125 3.91943359375)  rotate(0)"><path id="矩形 19" fill-rule="evenodd" style="fill:#FE6963" opacity="1" d="M11.4713 26.9949L16.9262 26.7598L15.7626 -0.235142L10.3076 0L11.4713 26.9949Z"></path><path id="矩形 20" fill-rule="evenodd" style="fill:#FE6963" opacity="1" d="M-0.000473022 11.237L0.235012 16.6919L27.2299 15.5266L26.9944 10.0717L-0.000473022 11.237Z"></path></g></g><g opacity="1"  transform="translate(263.002197265625 26.857421875)  rotate(0)"><path id="椭圆 14" fill-rule="evenodd" style="fill:#FAEDDC" opacity="1" d="M23.97 0C10.73 0 0 10.73 0 23.97C0 37.2 10.73 47.93 23.97 47.93C37.2 47.93 47.93 37.2 47.93 23.97C47.93 10.73 37.2 0 23.97 0Z"></path><g opacity="1"  transform="translate(10.9080810546875 11.146942138671875)  rotate(0)"><path id="矩形 21" fill-rule="evenodd" style="fill:#FE6963" opacity="1" d="M11.6537 27.4245L17.1886 27.1858L16.0057 -0.238734L10.4708 0L11.6537 27.4245Z"></path><path id="矩形 22" fill-rule="evenodd" style="fill:#FE6963" opacity="1" d="M-0.00152969 11.4149L0.237196 16.9497L27.6617 15.7668L27.423 10.232L-0.00152969 11.4149Z"></path></g></g></g><g opacity="1"  transform="translate(57.195068359375 151.5931396484375)  rotate(0)"><path  id="椭圆 15" style="fill:#3D2929; opacity:1;" d="M11.64,110.027c-1.50747,0 -2.9491,0.291 -4.32489,0.873c-1.32914,0.562 -2.50628,1.35567 -3.53142,2.381c-1.02514,1.02467 -1.81874,2.20167 -2.38079,3.531c-0.58177,1.376 -0.87266,2.81767 -0.87266,4.325c0,1.50733 0.2909,2.94967 0.87271,4.327c0.56215,1.33 1.3558,2.50833 2.38096,3.535c1.02531,1.026 2.20247,1.82067 3.53148,2.384c1.37588,0.58267 2.81742,0.874 4.32461,0.874c1.50733,0 2.94943,-0.29133 4.3263,-0.874c1.33013,-0.56333 2.50847,-1.35833 3.535,-2.385c1.02653,-1.026 1.8213,-2.20433 2.3843,-3.535c0.5828,-1.37667 0.8742,-2.81867 0.8742,-4.326c0,-1.50733 -0.29137,-2.949 -0.8741,-4.325c-0.56293,-1.32867 -1.35767,-2.50567 -2.3842,-3.531c-1.02633,-1.02533 -2.20463,-1.819 -3.5349,-2.381c-1.3768,-0.582 -2.819,-0.873 -4.3266,-0.873zM11.64,108.967c1.6508,0 3.2306,0.31867 4.7394,0.956c1.4572,0.616 2.74773,1.48533 3.8716,2.608c1.12407,1.12267 1.99447,2.412 2.6112,3.868c0.63867,1.508 0.958,3.08733 0.958,4.738c0,1.65067 -0.31933,3.23067 -0.958,4.74c-0.61667,1.45667 -1.487,2.747 -2.611,3.871c-1.124,1.124 -2.41453,1.99433 -3.8716,2.611c-1.509,0.63867 -3.08887,0.958 -4.7396,0.958c-1.65073,0 -3.23013,-0.31933 -4.7382,-0.958c-1.45603,-0.61667 -2.74543,-1.487 -3.86821,-2.611c-1.12254,-1.124 -1.9917,-2.41467 -2.60748,-3.872c-0.63757,-1.50867 -0.95635,-3.08833 -0.95635,-4.739c0,-1.65067 0.3188,-3.23 0.9564,-4.738c0.61577,-1.456 1.48498,-2.74533 2.60765,-3.868c1.12267,-1.12267 2.4121,-1.992 3.86827,-2.608c1.50781,-0.63733 3.08711,-0.956 4.73792,-0.956z"></path><g opacity="1"  transform="translate(274.5941162109375 102.05450439453125)  rotate(0)"><path  id="直线 20" style="fill:#3D2929; opacity:1;" d="M20.037,14.0473l-20.37424,-4.93657c-0.04559,-0.01105 -0.09052,-0.0243 -0.1348,-0.03976c-0.04428,-0.01546 -0.0877,-0.03305 -0.13026,-0.05278c-0.04255,-0.01973 -0.08404,-0.04149 -0.12446,-0.06529c-0.04042,-0.0238 -0.07957,-0.04953 -0.11746,-0.07718c-0.03789,-0.02765 -0.07433,-0.05708 -0.10933,-0.08831c-0.035,-0.03123 -0.06838,-0.0641 -0.10015,-0.09861c-0.03177,-0.03451 -0.06176,-0.07049 -0.08999,-0.10795c-0.02823,-0.03746 -0.05456,-0.07621 -0.07898,-0.11625c-0.02443,-0.04005 -0.04683,-0.08119 -0.06721,-0.12343c-0.02038,-0.04225 -0.03864,-0.08539 -0.05479,-0.12943c-0.01614,-0.04404 -0.03008,-0.08876 -0.04183,-0.13417c-0.01175,-0.04541 -0.02124,-0.09128 -0.02848,-0.13763c-0.00724,-0.04634 -0.01219,-0.09292 -0.01486,-0.13975c-0.00266,-0.04683 -0.00302,-0.09367 -0.00108,-0.14054c0.00194,-0.04687 0.00617,-0.09352 0.01269,-0.13997c0.00653,-0.04645 0.01531,-0.09246 0.02635,-0.13805c0.01105,-0.04558 0.0243,-0.09051 0.03976,-0.1348c0.01546,-0.04428 0.03305,-0.0877 0.05278,-0.13026c0.01973,-0.04255 0.04149,-0.08404 0.06529,-0.12445c0.02381,-0.04042 0.04953,-0.07957 0.07718,-0.11746c0.02765,-0.03789 0.05709,-0.07433 0.08832,-0.10932c0.03123,-0.035 0.0641,-0.06838 0.09861,-0.10015c0.03451,-0.03177 0.07049,-0.06176 0.10795,-0.08999c0.03746,-0.02823 0.07621,-0.05456 0.11625,-0.07898c0.04004,-0.02443 0.08119,-0.04683 0.12343,-0.06721c0.04224,-0.02038 0.08539,-0.03864 0.12943,-0.05478c0.04404,-0.01615 0.08876,-0.03009 0.13417,-0.04184c0.04541,-0.01175 0.09129,-0.02124 0.13763,-0.02848c0.04634,-0.00724 0.09293,-0.01219 0.13975,-0.01486c0.04683,-0.00266 0.09367,-0.00302 0.14054,-0.00108c0.04686,0.00194 0.09352,0.00617 0.13997,0.01269c0.04645,0.00653 0.09247,0.01531 0.13805,0.02636l20.37426,4.93658c0.0456,0.01107 0.09053,0.02433 0.1348,0.0398c0.04427,0.0154 0.0877,0.03297 0.1303,0.0527c0.04253,0.01973 0.084,0.0415 0.1244,0.0653c0.0404,0.0238 0.07957,0.04953 0.1175,0.0772c0.03787,0.02767 0.0743,0.0571 0.1093,0.0883c0.035,0.03127 0.06837,0.06413 0.1001,0.0986c0.0318,0.03453 0.0618,0.07053 0.09,0.108c0.02827,0.03747 0.0546,0.0762 0.079,0.1162c0.02447,0.04007 0.04687,0.08123 0.0672,0.1235c0.0204,0.0422 0.03867,0.08533 0.0548,0.1294c0.01613,0.044 0.03007,0.08873 0.0418,0.1342c0.0118,0.0454 0.0213,0.09127 0.0285,0.1376c0.00727,0.04633 0.01223,0.0929 0.0149,0.1397c0.00267,0.04687 0.00303,0.09373 0.0011,0.1406c-0.00193,0.04687 -0.00617,0.0935 -0.0127,0.1399c-0.00653,0.04647 -0.01533,0.0925 -0.0264,0.1381c-0.011,0.0456 -0.02423,0.09053 -0.0397,0.1348c-0.01547,0.04427 -0.03307,0.0877 -0.0528,0.1303c-0.01973,0.04253 -0.0415,0.084 -0.0653,0.1244c-0.0238,0.0404 -0.04953,0.07957 -0.0772,0.1175c-0.02767,0.03787 -0.0571,0.0743 -0.0883,0.1093c-0.0312,0.035 -0.06407,0.06837 -0.0986,0.1001c-0.03453,0.0318 -0.07053,0.0618 -0.108,0.09c-0.0374,0.02827 -0.07613,0.0546 -0.1162,0.079c-0.04007,0.0244 -0.0812,0.0468 -0.1234,0.0672c-0.04227,0.0204 -0.08543,0.03867 -0.1295,0.0548c-0.044,0.01613 -0.0887,0.03007 -0.1341,0.0418c-0.04547,0.0118 -0.09137,0.0213 -0.1377,0.0285c-0.04633,0.00727 -0.0929,0.01223 -0.1397,0.0149c-0.04687,0.00267 -0.09373,0.00303 -0.1406,0.0011c-0.0468,-0.00193 -0.09343,-0.00617 -0.1399,-0.0127c-0.04647,-0.00653 -0.0925,-0.01533 -0.1381,-0.0264z"></path><path  id="直线 21" style="fill:#3D2929; opacity:1;" d="M14.0474,0.33724l-4.93667,20.37446c-0.01105,0.0456 -0.0243,0.09053 -0.03976,0.1348c-0.01546,0.04427 -0.03305,0.08767 -0.05278,0.1302c-0.01973,0.0426 -0.04149,0.0841 -0.06529,0.1245c-0.0238,0.0404 -0.04953,0.07957 -0.07718,0.1175c-0.02765,0.03787 -0.05709,0.0743 -0.08832,0.1093c-0.03123,0.035 -0.06409,0.06837 -0.0986,0.1001c-0.03451,0.0318 -0.0705,0.0618 -0.10795,0.09c-0.03746,0.02827 -0.07621,0.0546 -0.11625,0.079c-0.04005,0.0244 -0.08119,0.0468 -0.12344,0.0672c-0.04224,0.0204 -0.08538,0.03867 -0.12942,0.0548c-0.04404,0.01613 -0.08876,0.03007 -0.13417,0.0418c-0.04541,0.0118 -0.09129,0.0213 -0.13763,0.0285c-0.04634,0.00727 -0.09292,0.01223 -0.13975,0.0149c-0.04683,0.00267 -0.09368,0.00303 -0.14054,0.0011c-0.04687,-0.002 -0.09352,-0.00623 -0.13997,-0.0127c-0.04645,-0.00653 -0.09246,-0.01533 -0.13805,-0.0264c-0.04559,-0.01107 -0.09052,-0.02433 -0.1348,-0.0398c-0.04429,-0.0154 -0.08771,-0.03297 -0.13026,-0.0527c-0.04255,-0.01973 -0.08404,-0.0415 -0.12445,-0.0653c-0.04042,-0.0238 -0.07957,-0.04953 -0.11746,-0.0772c-0.03789,-0.02767 -0.07433,-0.0571 -0.10932,-0.0883c-0.035,-0.03127 -0.06838,-0.06413 -0.10015,-0.0986c-0.03177,-0.03453 -0.06176,-0.07053 -0.08999,-0.108c-0.02823,-0.03747 -0.05456,-0.0762 -0.07898,-0.1162c-0.02443,-0.04007 -0.04683,-0.08123 -0.06721,-0.1235c-0.02038,-0.0422 -0.03864,-0.08533 -0.05479,-0.1294c-0.01614,-0.044 -0.03008,-0.08873 -0.04183,-0.1342c-0.01175,-0.0454 -0.02124,-0.09127 -0.02848,-0.1376c-0.00724,-0.04633 -0.01219,-0.0929 -0.01486,-0.1397c-0.00266,-0.04687 -0.00302,-0.09373 -0.00108,-0.1406c0.00194,-0.04687 0.00617,-0.0935 0.01269,-0.1399c0.00653,-0.04647 0.01531,-0.0925 0.02636,-0.1381l4.93668,-20.37444c0.011,-0.04559 0.02423,-0.09052 0.0397,-0.1348c0.01547,-0.04428 0.03307,-0.0877 0.0528,-0.13026c0.01973,-0.04255 0.0415,-0.08404 0.0653,-0.12445c0.0238,-0.04042 0.04953,-0.07957 0.0772,-0.11746c0.0276,-0.03789 0.05703,-0.07433 0.0883,-0.10933c0.0312,-0.035 0.06407,-0.06838 0.0986,-0.10014c0.03453,-0.03177 0.0705,-0.06176 0.1079,-0.08999c0.03747,-0.02823 0.07623,-0.05456 0.1163,-0.07899c0.04007,-0.02442 0.0812,-0.04682 0.1234,-0.0672c0.04227,-0.02038 0.0854,-0.03864 0.1294,-0.05479c0.04407,-0.01614 0.0888,-0.03008 0.1342,-0.04183c0.0454,-0.01175 0.09127,-0.02124 0.1376,-0.02848c0.0464,-0.00724 0.093,-0.01219 0.1398,-0.01486c0.0468,-0.00266 0.09363,-0.00302 0.1405,-0.00108c0.04687,0.00194 0.09353,0.00617 0.14,0.01269c0.04647,0.00653 0.0925,0.01531 0.1381,0.02635c0.04553,0.01105 0.09047,0.0243 0.1348,0.03976c0.04427,0.01546 0.08767,0.03305 0.1302,0.05278c0.04253,0.01973 0.08403,0.04149 0.1245,0.06529c0.0404,0.02381 0.07953,0.04953 0.1174,0.07718c0.03793,0.02765 0.0744,0.05709 0.1094,0.08832c0.03493,0.03123 0.0683,0.0641 0.1001,0.0986c0.03173,0.03451 0.06173,0.07049 0.09,0.10795c0.0282,0.03746 0.05453,0.07621 0.079,0.11625c0.0244,0.04004 0.0468,0.08119 0.0672,0.12343c0.0204,0.04224 0.03867,0.08539 0.0548,0.12943c0.01613,0.04404 0.03007,0.08876 0.0418,0.13417c0.01173,0.04541 0.02123,0.09128 0.0285,0.13763c0.0072,0.04634 0.01213,0.09293 0.0148,0.13976c0.00267,0.04683 0.00303,0.09367 0.0011,0.14054c-0.00193,0.04686 -0.00617,0.09352 -0.0127,0.13997c-0.00653,0.04645 -0.0153,0.09246 -0.0263,0.13805z"></path></g><g opacity="1"  transform="translate(16.1617431640625 0)  rotate(0)"><path  id="直线 22" style="fill:#3D2929; opacity:1;" d="M20.7812,9.38023l-20.47312,4.50987c-0.04581,0.01007 -0.092,0.01787 -0.13857,0.0234c-0.04657,0.00553 -0.09331,0.0088 -0.1402,0.0098c-0.04689,0.00093 -0.09372,-0.0004 -0.14048,-0.004c-0.04676,-0.00367 -0.09323,-0.0096 -0.13941,-0.0178c-0.04618,-0.0082 -0.09185,-0.01867 -0.137,-0.0314c-0.04515,-0.01267 -0.08958,-0.02753 -0.13327,-0.0446c-0.04369,-0.01707 -0.08644,-0.03623 -0.12825,-0.0575c-0.04181,-0.02127 -0.08248,-0.0445 -0.122,-0.0697c-0.03952,-0.02527 -0.07772,-0.0524 -0.11457,-0.0814c-0.03686,-0.029 -0.07221,-0.05977 -0.10605,-0.0923c-0.03384,-0.03247 -0.066,-0.0665 -0.09649,-0.1021c-0.03049,-0.03567 -0.05917,-0.07273 -0.08602,-0.1112c-0.02685,-0.03847 -0.05175,-0.07813 -0.0747,-0.119c-0.02295,-0.04093 -0.04385,-0.08287 -0.06268,-0.1258c-0.01883,-0.043 -0.03552,-0.0868 -0.05005,-0.1314c-0.01453,-0.0446 -0.02684,-0.0898 -0.03693,-0.1356c-0.01009,-0.0458 -0.01791,-0.09197 -0.02346,-0.1385c-0.00555,-0.0466 -0.00881,-0.09333 -0.00977,-0.1402c-0.00096,-0.04693 0.00038,-0.09377 0.00402,-0.1405c0.00364,-0.0468 0.00956,-0.09327 0.01777,-0.1394c0.00821,-0.0462 0.01866,-0.09187 0.03136,-0.137c0.01269,-0.0452 0.02757,-0.08963 0.04462,-0.1333c0.01706,-0.04367 0.03622,-0.08643 0.05748,-0.1283c0.02126,-0.0418 0.04452,-0.08247 0.06977,-0.122c0.02525,-0.03947 0.05238,-0.07763 0.08139,-0.1145c0.02901,-0.03687 0.05976,-0.07223 0.09224,-0.1061c0.03248,-0.0338 0.06654,-0.06597 0.10218,-0.0965c0.03564,-0.03047 0.07269,-0.05913 0.11115,-0.086c0.03846,-0.02687 0.07814,-0.05177 0.11904,-0.0747c0.0409,-0.02293 0.08284,-0.04383 0.12579,-0.0627c0.04296,-0.0188 0.08673,-0.03547 0.13133,-0.05c0.0446,-0.01453 0.0898,-0.02683 0.1356,-0.0369l20.47319,-4.50987c0.0458,-0.01009 0.09197,-0.01791 0.1385,-0.02346c0.0466,-0.00555 0.09333,-0.00881 0.1402,-0.00977c0.04693,-0.00096 0.09377,0.00038 0.1405,0.00402c0.0468,0.00364 0.09327,0.00956 0.1394,0.01777c0.0462,0.00821 0.09187,0.01866 0.137,0.03135c0.0452,0.01269 0.08963,0.02757 0.1333,0.04463c0.04367,0.01706 0.08643,0.03622 0.1283,0.05748c0.0418,0.02126 0.08247,0.04452 0.122,0.06977c0.03947,0.02525 0.07763,0.05238 0.1145,0.08139c0.03687,0.02901 0.07223,0.05976 0.1061,0.09224c0.0338,0.03248 0.06597,0.06654 0.0965,0.10218c0.03047,0.03564 0.05913,0.07269 0.086,0.11114c0.02687,0.03846 0.05177,0.07814 0.0747,0.11905c0.02293,0.04091 0.04383,0.08284 0.0627,0.12579c0.0188,0.04296 0.03547,0.08674 0.05,0.13133c0.01453,0.0446 0.02683,0.0898 0.0369,0.1356c0.01013,0.04581 0.01797,0.092 0.0235,0.13858c0.00553,0.04657 0.0088,0.09331 0.0098,0.1402c0.00093,0.04689 -0.0004,0.09372 -0.004,0.14048c-0.00367,0.04677 -0.0096,0.09324 -0.0178,0.13942c-0.0082,0.04618 -0.01867,0.09185 -0.0314,0.137c-0.01267,0.04515 -0.02753,0.08958 -0.0446,0.13327c-0.01707,0.04369 -0.03623,0.08644 -0.0575,0.12825c-0.02127,0.04181 -0.04453,0.08247 -0.0698,0.122c-0.0252,0.03953 -0.0523,0.07772 -0.0813,0.11457c-0.02907,0.03686 -0.05983,0.07221 -0.0923,0.10605c-0.03247,0.03384 -0.06653,0.066 -0.1022,0.09649c-0.0356,0.03049 -0.07263,0.05917 -0.1111,0.08602c-0.03847,0.02685 -0.07813,0.05175 -0.119,0.0747c-0.04093,0.02295 -0.08287,0.04385 -0.1258,0.06268c-0.043,0.01883 -0.0868,0.03552 -0.1314,0.05005c-0.0446,0.01453 -0.0898,0.02684 -0.1356,0.03693z"></path><path  id="直线 23" style="fill:#3D2929; opacity:1;" d="M9.38017,-0.30809l4.50993,20.47319c0.01007,0.0458 0.01787,0.092 0.0234,0.1386c0.00553,0.0466 0.0088,0.09333 0.0098,0.1402c0.00093,0.04687 -0.0004,0.0937 -0.004,0.1405c-0.00367,0.04673 -0.0096,0.0932 -0.0178,0.1394c-0.0082,0.0462 -0.01867,0.09187 -0.0314,0.137c-0.01267,0.04513 -0.02753,0.08957 -0.0446,0.1333c-0.01707,0.04367 -0.03623,0.0864 -0.0575,0.1282c-0.02127,0.0418 -0.0445,0.08247 -0.0697,0.122c-0.02527,0.03953 -0.0524,0.07773 -0.0814,0.1146c-0.029,0.03687 -0.05977,0.0722 -0.0923,0.106c-0.03247,0.03387 -0.0665,0.06603 -0.1021,0.0965c-0.03567,0.03053 -0.07273,0.0592 -0.1112,0.086c-0.03847,0.02687 -0.07813,0.05177 -0.119,0.0747c-0.04093,0.023 -0.08287,0.0439 -0.1258,0.0627c-0.043,0.01887 -0.0868,0.03557 -0.1314,0.0501c-0.04453,0.01453 -0.08973,0.02683 -0.1356,0.0369c-0.0458,0.01007 -0.09197,0.0179 -0.1385,0.0235c-0.0466,0.00553 -0.09333,0.00877 -0.1402,0.0097c-0.04693,0.001 -0.09377,-0.00033 -0.1405,-0.004c-0.0468,-0.0036 -0.09327,-0.00953 -0.1394,-0.0178c-0.0462,-0.0082 -0.09187,-0.01863 -0.137,-0.0313c-0.0452,-0.01267 -0.08963,-0.02753 -0.1333,-0.0446c-0.04367,-0.01707 -0.08643,-0.03623 -0.1283,-0.0575c-0.0418,-0.02127 -0.08247,-0.04453 -0.122,-0.0698c-0.03947,-0.02527 -0.07763,-0.0524 -0.1145,-0.0814c-0.03687,-0.029 -0.07223,-0.05973 -0.1061,-0.0922c-0.0338,-0.03247 -0.06597,-0.06653 -0.0965,-0.1022c-0.03047,-0.03567 -0.05913,-0.0727 -0.086,-0.1111c-0.02687,-0.03847 -0.05177,-0.07817 -0.0747,-0.1191c-0.02293,-0.04087 -0.04383,-0.0828 -0.0627,-0.1258c-0.0188,-0.04293 -0.03547,-0.0867 -0.05,-0.1313c-0.01453,-0.0446 -0.02683,-0.0898 -0.0369,-0.1356l-4.50993,-20.47321c-0.01009,-0.04581 -0.01792,-0.092 -0.02347,-0.13857c-0.00555,-0.04657 -0.0088,-0.09331 -0.00976,-0.1402c-0.00096,-0.04689 0.00038,-0.09372 0.00402,-0.14048c0.00364,-0.04676 0.00956,-0.09323 0.01777,-0.13941c0.00821,-0.04618 0.01866,-0.09185 0.03135,-0.137c0.01269,-0.04515 0.02757,-0.08958 0.04463,-0.13327c0.01706,-0.04369 0.03622,-0.08644 0.05748,-0.12825c0.02126,-0.04181 0.04452,-0.08248 0.06977,-0.122c0.02525,-0.03952 0.05238,-0.07772 0.08139,-0.11457c0.02901,-0.03686 0.05975,-0.07221 0.09223,-0.10605c0.03248,-0.03384 0.06654,-0.06601 0.10218,-0.09649c0.03564,-0.03049 0.07269,-0.05917 0.11115,-0.08602c0.03846,-0.02685 0.07814,-0.05175 0.11904,-0.0747c0.04091,-0.02295 0.08284,-0.04385 0.1258,-0.06268c0.04295,-0.01883 0.08673,-0.03552 0.13133,-0.05005c0.04459,-0.01453 0.08979,-0.02684 0.1356,-0.03693c0.04581,-0.01009 0.092,-0.01791 0.13857,-0.02346c0.04657,-0.00555 0.09331,-0.00881 0.1402,-0.00977c0.04689,-0.00096 0.09372,0.00038 0.14049,0.00402c0.04676,0.00364 0.09323,0.00956 0.13941,0.01777c0.04618,0.00821 0.09185,0.01866 0.137,0.03136c0.04515,0.01269 0.08958,0.02757 0.13327,0.04462c0.04369,0.01706 0.08644,0.03622 0.12825,0.05748c0.04181,0.02126 0.08248,0.04452 0.12201,0.06977c0.03952,0.02525 0.07771,0.05238 0.11457,0.08139c0.03686,0.02901 0.07221,0.05976 0.10604,0.09224c0.03384,0.03248 0.06601,0.06654 0.0965,0.10218c0.03049,0.03564 0.05916,0.07269 0.08601,0.11115c0.02685,0.03846 0.05176,0.07814 0.07471,0.11904c0.02295,0.0409 0.04385,0.08283 0.06268,0.12579c0.01883,0.04296 0.03551,0.08673 0.05004,0.13133c0.01453,0.0446 0.02685,0.0898 0.03694,0.1356z"></path></g></g><g opacity="1"  transform="translate(130.80908203125 132.9820556640625)  rotate(0)"><path id="路径 116" fill-rule="evenodd" style="fill:#FFA255" opacity="1" d="M153.678,6.06zM153.678,6.06c0,3.36 -2.71,6.07 -6.06,6.07c-3.35,0 -6.07,-2.71 -6.07,-6.07c0,-3.34 2.72,-6.06 6.07,-6.06c3.35,0 6.06,2.72 6.06,6.06z"></path><path id="椭圆 16" fill-rule="evenodd" style="fill:#4EBCF7" opacity="1" d="M6.07 3.5943C2.72 3.5943 0 6.3143 0 9.6643C0 13.0143 2.72 15.7243 6.07 15.7243C9.42 15.7243 12.13 13.0143 12.13 9.6643C12.13 6.3143 9.42 3.5943 6.07 3.5943Z"></path></g></g></svg>