<svg xmlns="http://www.w3.org/2000/svg" xmlns:xlink="http://www.w3.org/1999/xlink" width="388.691162109375" height="377.31005859375" viewBox="0 0 388.691162109375 377.31005859375" fill="none"><g opacity="1"  transform="translate(0 0)  rotate(0)"><path id="路径 43" fill-rule="evenodd" style="fill:#FFFFFF" opacity="1" d="M184.76,377.31zM122.6,0.21c0.83,0 1.66,0.1 2.46,0.3c0.6,0.02 1.19,0.05 1.76,0.08c0.75,-0.2 1.53,-0.32 2.33,-0.35c0,0 0.72,-0.03 0.86,-0.03c1.61,0 3.19,0.37 4.62,1.07c1.25,0.15 2.49,0.33 3.7,0.52c0.43,0.05 0.81,0.11 1.14,0.18c2.42,0.39 4.87,0.88 7.28,1.46c11.59,-2.28 23.46,-3.44 35.33,-3.44c26.97,0 52.93,5.76 77.13,17.13c14.51,6.79 28.04,15.46 40.22,25.75c5.11,4.32 10.07,9 14.77,13.95c4.25,1.91 7.5,5.6 8.86,10.05c16.56,20.24 28.63,43.98 35.2,69.17l2.79,0.43c8.46,1.3 15.96,5.69 21.11,12.36c5.27,6.82 7.46,15.2 6.17,23.58l-7.38,48.14c0.21,1.11 0.23,2.28 0.05,3.47l-0.12,0.81c-0.19,1.19 -0.56,2.3 -1.09,3.31l-11.52,75.21c-0.43,2.76 -1.93,5.25 -4.19,6.91c-1.83,1.34 -4.02,2.05 -6.25,2.05c-0.54,0 -1.07,-0.04 -1.6,-0.13l-40.76,-6.24c-20.79,22.37 -46.82,39.18 -75.66,48.82c-16.09,14.73 -34.56,22.31 -54.93,22.54c-0.04,0 -0.08,0 -0.12,0c-2.19,0 -4.32,-0.68 -6.11,-1.95c-0.08,-0.05 -6.95,-4.93 -17.17,-12.4c-5.2,-0.59 -10.38,-1.4 -15.49,-2.43c-5.71,6.65 -14.12,10.64 -23.16,10.64c-8.61,0 -16.79,-3.63 -22.59,-9.99c-4.61,-4.2 -7.78,-9.66 -9.18,-15.61c-0.29,0.11 -0.56,0.22 -0.84,0.32c-0.42,0.15 -0.83,0.28 -1.23,0.41c-0.52,0.16 -1,0.31 -1.47,0.43c-0.46,0.12 -0.92,0.22 -1.38,0.32c-0.45,0.1 -0.91,0.19 -1.38,0.26c-0.46,0.08 -0.93,0.14 -1.41,0.2c-0.45,0.05 -0.89,0.09 -1.34,0.13c-0.46,0.03 -0.96,0.05 -1.46,0.07h-0.6h-0.68c-0.51,-0.01 -1.03,-0.03 -1.54,-0.07c-0.39,-0.02 -0.76,-0.06 -1.12,-0.1c-0.61,-0.07 -1.14,-0.13 -1.68,-0.22c-0.31,-0.05 -0.61,-0.11 -0.91,-0.17c-0.7,-0.14 -1.29,-0.26 -1.86,-0.41c-0.27,-0.07 -0.52,-0.15 -0.78,-0.22c-0.67,-0.2 -1.3,-0.39 -1.92,-0.61c-0.14,-0.06 -0.37,-0.15 -0.55,-0.22c-3.63,-1.4 -6.9,-3.44 -9.72,-6.08c-0.61,-0.55 -1.22,-1.16 -1.79,-1.78c-5.41,-5.97 -8.18,-13.7 -7.81,-21.79c0.14,-2.62 0.6,-5.19 1.38,-7.65c-32.93,-34.08 -50.97,-78.65 -50.97,-126.33c0,-5.26 0.23,-10.59 0.69,-15.87c2.47,-28.63 11.82,-56.49 27.1,-80.83c-1.55,-18.39 2,-29.89 10.81,-35.08c3.7,-2.16 7.62,-3.26 11.69,-3.26c2.7,0 5.42,0.5 8.08,1.48c0.25,-0.23 0.51,-0.47 0.76,-0.7c-0.18,-0.85 -0.25,-1.71 -0.22,-2.56c-0.1,-0.95 -0.46,-3.86 -1.74,-11.81c-1.13,-6.99 0.81,-14.14 5.33,-19.61l0.08,-0.1c0.22,-0.29 0.44,-0.57 0.69,-0.83c3.23,-3.52 7.36,-6.01 11.93,-7.2l0.45,-0.11c2.36,-0.61 4.9,-1.18 7.54,-1.7c0.13,-0.03 0.54,-0.1 0.62,-0.11c2.08,-0.41 4.38,-0.8 7,-1.19c0.27,-0.05 0.54,-0.09 0.81,-0.12c2.4,-0.36 4.67,-0.64 6.94,-0.87c0.3,-0.05 0.56,-0.07 0.77,-0.09c1.2,-0.13 2.44,-0.25 3.71,-0.36c1.19,-0.53 2.49,-0.84 3.87,-0.9c0,0 0.71,-0.03 0.85,-0.03c0.98,0 1.94,0.14 2.86,0.4c0.54,-0.03 1.08,-0.06 1.63,-0.08c0.67,-0.16 1.37,-0.26 2.08,-0.29c0,0 0.72,-0.03 0.86,-0.03c0.63,0 1.26,0.06 1.88,0.17c0.65,-0.01 1.3,-0.01 1.94,-0.01c0.47,0 0.93,0 1.39,0.01c0.44,-0.08 0.89,-0.12 1.34,-0.14c0,0 0.72,-0.03 0.86,-0.03z"></path><g opacity="1"  transform="translate(9.7733154296875 8.79998779296875)  rotate(0)"><path id="路径 44" fill-rule="evenodd" style="fill:#B0D8E4" opacity="1" d="M343.01,171.5zM225.15,334.44c-8.39,2.78 -17.09,4.92 -26,6.36c-6.87,1.12 -13.86,1.81 -20.97,2.09c-2.21,0.08 -4.43,0.12 -6.66,0.12c-1,0 -1.99,0 -2.99,-0.04c-3.96,-0.06 -7.88,-0.26 -11.76,-0.59c-14.85,-1.26 -29.15,-4.42 -42.68,-9.22c-66.49,-23.63 -114.09,-87.09 -114.09,-161.66c0,-5.04 0.23,-10.04 0.65,-14.96c4.02,-46.64 26.74,-87.96 60.62,-116.4c10.3,-8.65 21.66,-16.13 33.82,-22.18c23.02,-11.5 48.96,-17.96 76.43,-17.96c25.96,0 50.58,5.77 72.64,16.13c13.72,6.42 26.45,14.59 37.89,24.26c33.44,28.19 55.93,68.94 60.21,114.98c0.51,5.3 0.75,10.68 0.75,16.13c0,75.99 -49.4,140.43 -117.86,162.94z"></path><g opacity="1"  transform="translate(125.546142578125 83.8812255859375)  rotate(0)"><g opacity="1"  transform="translate(0 3.22747802734375)  rotate(0)"><g opacity="1"  transform="translate(64.306884765625 0)  rotate(0)"><g opacity="1"  transform="translate(0 0)  rotate(0)"><path id="路径 45" fill-rule="evenodd" style="fill:#FAEDDC" opacity="1" d="M127.01,31.92zM127.01,31.92l-2.85,18.6l-4.99,-0.77l2.85,-18.59c0.87,-5.69 -3.26,-11.04 -9.22,-11.95l-93.04,-14.26c-5.95,-0.92 -11.51,2.95 -12.38,8.64l-2.4,15.63l-4.98,-0.76l2.4,-15.64c1.27,-8.3 9.4,-13.96 18.09,-12.63l93.04,14.26c8.7,1.34 14.75,9.17 13.48,17.47z"></path></g><path id="矩形 12" fill-rule="evenodd" style="fill:#3D2929" opacity="1" d="M4.98208 29.2206L5.93186 23.023L0.950025 22.2595L0.000244141 28.4572L4.98208 29.2206Z"></path><path id="矩形 13" fill-rule="evenodd" style="fill:#3D2929" opacity="1" d="M124.152 50.5172L125.555 41.3641L120.574 40.6005L119.171 49.7537L124.152 50.5172Z"></path></g><path id="路径 46" fill-rule="evenodd" style="fill:#FAEDDC" opacity="1" d="M241.79,73.1505zM241.79,73.1505l-20.07,130.9395l-221.72,-33.99l20.07,-130.9295c1.74,-11.37 12.82,-19.11 24.75,-17.28l178.53,27.36c11.93,1.83 20.18,12.53 18.44,23.9z"></path><path id="路径 47" fill-rule="evenodd" style="fill:#FF988C" opacity="0.39" d="M241.788,73.1479zM241.788,73.1479l-20.07,130.9401l-37.33,-5.72l23.22,-151.5301l15.74,2.41c11.93,1.83 20.18,12.53 18.44,23.9z"></path><path  id="直线 1" style="fill:#3D2929; opacity:1;" d="M9.62796,90.3057l224.82604,34.4583l-0.124,0.811l-224.82636,-34.4581z"></path><g opacity="1"  transform="translate(81.01904296875 81.6573486328125)  rotate(0)"><path id="路径 48" fill-rule="evenodd" style="fill:#B0D8E4" opacity="1" d="M53.45,29.75zM53.45,29.75c-2.14,14 -15.78,23.52 -30.47,21.27c-14.68,-2.25 -24.84,-15.42 -22.69,-29.42c2.14,-14 15.78,-23.52 30.46,-21.27c14.69,2.25 24.85,15.42 22.7,29.42z"></path><g opacity="1"  transform="translate(13.365966796875 12.841796875)  rotate(0)"><path id="路径 49" fill-rule="evenodd" style="fill:#FFFFFF" opacity="1" d="M14.6676,26.29zM14.6676,26.29l-5.41003,-0.76l3.57003,-25.53l5.4,0.76z"></path><path id="路径 50" fill-rule="evenodd" style="fill:#FFFFFF" opacity="1" d="M0,13.8291zM0,13.8291l0.72,-5.15002l26.77,3.78002l-0.72,5.15z"></path></g></g></g><path id="路径 51" fill-rule="evenodd" style="fill:#4EBCF7" opacity="1" d="M89.4017,0zM87.9017,13.78l1.5,-13.78l86.5703,12.28l-2.99,14.08z"></path></g><g opacity="1"  transform="translate(14.25439453125 0.21295166015625)  rotate(0)"><path id="路径 52" fill-rule="evenodd" style="fill:#4EBCF7" opacity="1" d="M235.449,296.064zM14.9594,84.5743c0,0 -5.99999,-29.96 4.19,-35.96c10.19,-5.99 19.78,4.21 23.97,11.38c4.19,7.2 92.8596,131.2097 92.8596,131.2097l99.47,104.86c0,0 -22.17,59.31 -75.5,59.92c0,0 -85.6796,-60.78 -110.2096,-88.46c-0.44,-0.48 -0.85,-0.95 -1.24,-1.41c-22.75,-26.97 -28.16,-54.53 -28.16,-54.53c0,0 -22.14999,-7.2 -19.15999,-34.76c2.9,-26.69 7.48,-33.7 7.76,-34.12l0.02,-0.02c0,0 -17.37,-47.9297 5.99999,-58.1097z"></path><path  id="路径 53" style="fill:#3D2929; opacity:1;" d="M135.928,157.64c0.40933,2.488 0.54,5.08267 0.392,7.784c-0.13133,2.402 -0.48867,4.962 -1.072,7.68c-0.48533,2.26 -1.16567,4.79433 -2.041,7.603c-0.52467,1.68133 -1.365,4.2 -2.521,7.556c-0.95667,2.77733 -1.65867,4.86133 -2.106,6.252c-0.74533,2.31267 -1.35533,4.398 -1.83,6.256c-0.928,3.61467 -1.58167,7.29933 -1.961,11.054c-0.37667,3.726 -0.47733,7.468 -0.302,11.226c0.17533,3.75667 0.62367,7.474 1.345,11.152c0.726,3.70333 1.718,7.31367 2.976,10.831c0.01,0.02667 0.017,0.05433 0.021,0.083c0.00467,0.02867 0.00633,0.05733 0.005,0.086c-0.002,0.02933 -0.00633,0.058 -0.013,0.086c-0.00733,0.028 -0.017,0.055 -0.029,0.081c-0.01267,0.026 -0.02767,0.05067 -0.045,0.074c-0.01667,0.02333 -0.03567,0.04467 -0.057,0.064c-0.022,0.01933 -0.04533,0.03633 -0.07,0.051c-0.02467,0.01467 -0.05067,0.027 -0.078,0.037c-0.02667,0.01 -0.05433,0.017 -0.083,0.021c-0.02867,0.004 -0.05767,0.00533 -0.087,0.004c-0.02867,-0.00133 -0.057,-0.00533 -0.085,-0.012c-0.028,-0.00733 -0.055,-0.017 -0.081,-0.029c-0.026,-0.01267 -0.05067,-0.02767 -0.074,-0.045c-0.02333,-0.01733 -0.04467,-0.03667 -0.064,-0.058c-0.01933,-0.02133 -0.03633,-0.04433 -0.051,-0.069c-0.01533,-0.02467 -0.02767,-0.05067 -0.037,-0.078c-1.27333,-3.55867 -2.27733,-7.211 -3.012,-10.957c-0.72933,-3.72133 -1.18267,-7.48167 -1.36,-11.281c-0.17733,-3.80133 -0.07567,-7.58667 0.305,-11.356c0.384,-3.798 1.04567,-7.52567 1.985,-11.183c0.47867,-1.87467 1.09333,-3.97733 1.844,-6.308c0.44933,-1.396 1.15333,-3.48533 2.112,-6.268c1.15333,-3.348 1.99067,-5.85867 2.512,-7.532c0.868,-2.78333 1.54167,-5.29167 2.021,-7.525c0.574,-2.67333 0.92567,-5.188 1.055,-7.544c0.144,-2.63733 0.01667,-5.16833 -0.382,-7.593c-0.00467,-0.02867 -0.00667,-0.05733 -0.006,-0.086c0.00133,-0.02867 0.00533,-0.057 0.012,-0.085c0.00667,-0.02867 0.01567,-0.056 0.027,-0.082c0.012,-0.02667 0.02667,-0.05167 0.044,-0.075c0.01667,-0.02333 0.03533,-0.045 0.056,-0.065c0.02133,-0.01933 0.04433,-0.03667 0.069,-0.052c0.02467,-0.01533 0.05033,-0.028 0.077,-0.038c0.02733,-0.01 0.05533,-0.01733 0.084,-0.022c0.028,-0.00467 0.05667,-0.00667 0.086,-0.006c0.02867,0.00067 0.057,0.00433 0.085,0.011c0.028,0.00667 0.05533,0.016 0.082,0.028c0.026,0.012 0.051,0.02633 0.075,0.043c0.02333,0.01733 0.04467,0.03633 0.064,0.057c0.02,0.02133 0.03767,0.04433 0.053,0.069c0.01533,0.024 0.028,0.04967 0.038,0.077c0.01,0.02733 0.01733,0.055 0.022,0.083z"></path><path  id="路径 54" style="fill:#3D2929; opacity:1;" d="M14.0204,83.8258c0.1186,-0.01033 0.28033,-0.01563 0.4852,-0.0159c0.39993,-0.00047 0.82303,0.0227 1.2693,0.0695c1.42087,0.149 2.8139,0.505 4.1791,1.068c1.9094,0.78747 3.62743,1.9317 5.1541,3.4327c1.89973,1.86773 3.4454,4.23617 4.637,7.1053c0.01107,0.02667 0.01943,0.05417 0.0251,0.0825c0.00567,0.02833 0.0085,0.05693 0.0085,0.0858c0.00007,0.02893 -0.00273,0.05757 -0.0084,0.0859c-0.0056,0.02833 -0.0139,0.05583 -0.0249,0.0825c-0.01107,0.02673 -0.0246,0.0521 -0.0406,0.0761c-0.01607,0.02407 -0.0343,0.04633 -0.0547,0.0668c-0.0204,0.0204 -0.0426,0.03867 -0.0666,0.0548c-0.024,0.01607 -0.04933,0.02963 -0.076,0.0407c-0.02667,0.01107 -0.05417,0.01943 -0.0825,0.0251c-0.02833,0.00567 -0.05697,0.0085 -0.0859,0.0085c-0.02887,0.00007 -0.05747,-0.0027 -0.0858,-0.0083c-0.02833,-0.0056 -0.05587,-0.01393 -0.0826,-0.025c-0.02667,-0.011 -0.05203,-0.02453 -0.0761,-0.0406c-0.02407,-0.016 -0.0463,-0.0342 -0.0667,-0.0546c-0.02047,-0.02047 -0.03873,-0.0427 -0.0548,-0.0667c-0.01607,-0.024 -0.02963,-0.04933 -0.0407,-0.076c-1.14593,-2.7592 -2.62633,-5.03097 -4.4412,-6.8153c-1.445,-1.42067 -3.06923,-2.5029 -4.8727,-3.2467c-1.28693,-0.53073 -2.59873,-0.86617 -3.9354,-1.0063c-0.4154,-0.0436 -0.80757,-0.06517 -1.1765,-0.0647c-0.1796,0.0002 -0.31613,0.0044 -0.4096,0.0126c-0.02873,0.00247 -0.05747,0.00213 -0.0862,-0.001c-0.02873,-0.00313 -0.05687,-0.00903 -0.0844,-0.0177c-0.0276,-0.00873 -0.05403,-0.02003 -0.0793,-0.0339c-0.02533,-0.01393 -0.04907,-0.03017 -0.0712,-0.0487c-0.02213,-0.0186 -0.04227,-0.03917 -0.0604,-0.0617c-0.01807,-0.02253 -0.03377,-0.0466 -0.0471,-0.0722c-0.01333,-0.02567 -0.02403,-0.05237 -0.0321,-0.0801c-0.00807,-0.02773 -0.01337,-0.05597 -0.0159,-0.0847c-0.00253,-0.0288 -0.00223,-0.05757 0.0009,-0.0863c0.0032,-0.02873 0.00913,-0.05687 0.0178,-0.0844c0.00867,-0.02753 0.01997,-0.05397 0.0339,-0.0793c0.01387,-0.02533 0.0301,-0.04907 0.0487,-0.0712c0.01853,-0.02213 0.03907,-0.04223 0.0616,-0.0603c0.02253,-0.01807 0.04663,-0.0338 0.0723,-0.0472c0.0256,-0.01333 0.05227,-0.02403 0.08,-0.0321c0.02773,-0.00807 0.056,-0.01337 0.0848,-0.0159z"></path><path id="路径 55" fill-rule="evenodd" style="fill:#4EBCF7" opacity="1" d="M129.094,189.12zM129.094,189.12c0,0 -5.39,-101.2604 17.97,-106.0504c23.37,-4.79 28.16,88.0704 43.14,115.0404c14.98,26.96 57.52,78.48 57.52,78.48l-24.57,41.35z"></path><g opacity="1"  transform="translate(28.250732421875 0)  rotate(0)"><path id="路径 56" fill-rule="evenodd" style="fill:#FFA255" opacity="1" d="M120.98,169.326zM120.98,169.326c-0.73,11.41 -1.38,20.52 -1.69,24.91c-0.14,1.86 -1.25,3.48 -2.93,4.33c-6.21,3.09 -23.28,9.91 -53.57,10.15v0.02h-1.69v-0.02c-9.38,-0.07 -17.49,-0.77 -24.39,-1.81c-15.42,-2.29 -24.89,-6.21 -29.17,-8.34c-1.67,-0.85 -2.78,-2.47 -2.92,-4.33c-0.28,-3.73 -0.79,-10.88 -1.37,-19.96c-1.48,-22.81 -3.41,-57.76 -3.24,-81.0696c0.05,-6.91 0.28,-12.79 0.78,-17.03c3.15,-26.97 20.22,-31 20.22,-31v-13.48l15.89,-3.59l24.2,-5.47v-0.39l0.85,0.19l0.84,-0.19v0.39l40.11,9.06v13.48c0,0 17.07,4.03 20.21,31c0.31,2.65 0.52,5.96 0.65,9.78c0.7,21.2596 -1.2,57.9896 -2.78,83.3696z"></path><path id="路径 57" fill-rule="evenodd" style="fill:#FAEDDC" opacity="1" d="M120.98,169.334zM120.98,169.334c-39.2,-2.1 -79.19,-1.91 -117.73,4.94c-1.48,-22.81 -3.41,-57.76 -3.24,-81.06c5.81,-2.49 12,-4.12 18.18,-5.57c31.86,-7.49 65.32,-10.66 97.31,-3.8c2.78,0.6 5.55,1.27 8.26,2.11c0.7,21.27 -1.2,58 -2.78,83.38z"></path><g opacity="1"  transform="translate(41.0145263671875 95.02069091796875)  rotate(0)"><path id="矩形 14" fill-rule="evenodd" style="fill:#FE6963" opacity="1" d="M20.8555 55.9324L30.6355 55.4885L28.0968 -0.443887L18.3169 0L20.8555 55.9324Z"></path><path id="矩形 15" fill-rule="evenodd" style="fill:#FE6963" opacity="1" d="M0.00130081 23.1731L0.503563 34.462L48.9556 32.3062L48.4534 21.0174L0.00130081 23.1731Z"></path></g><path id="路径 58" fill-rule="evenodd" style="fill:#3D2929" opacity="0.2" d="M27.98,184.197zM27.98,184.197c2.27,7.8 5.37,15.32 8.73,22.71c-15.42,-2.29 -24.89,-6.21 -29.17,-8.34c-1.67,-0.85 -2.78,-2.47 -2.92,-4.33c-0.28,-3.73 -0.79,-10.88 -1.37,-19.96c-1.48,-22.81 -3.41,-57.77 -3.24,-81.0698c0.05,-6.91 0.28,-12.79 0.78,-17.03c3.15,-26.97 20.22,-31 20.22,-31v-13.48l15.89,-3.59c0.04,1 0.04,1.99 0.04,2.99c-0.04,7.02 -0.57,14.12 -2.78,20.82c-1.84,5.58 -4.79,10.7 -7.12,16.11c-9.96,23.16 -7.93,49.4898 -5.63,74.5998c1.31,14 2.64,28.09 6.57,41.57z"></path><g opacity="1"  transform="translate(14.349609375 0)  rotate(0)"><g opacity="1"  transform="translate(0 0.15594482421875)  rotate(0)"><path id="路径 59" fill-rule="evenodd" style="fill:#FAEDDC" opacity="1" d="M90.93,17.43zM71.25,31.93c-0.14,-0.02 -0.3,-0.04 -0.44,-0.04c-2.32,-0.19 -4.66,-0.33 -6.99,-0.44c-0.16,0 -0.3,0 -0.44,-0.01c-2.34,-0.11 -4.66,-0.18 -6.98,-0.22h-0.44c-2.34,-0.03 -4.67,-0.03 -6.97,-0.01h-0.44c-2.36,0.01 -4.7,0.07 -6.97,0.16c-0.16,-0.02 -0.3,0 -0.44,0c-2.4,0.07 -4.72,0.17 -6.97,0.29c-0.14,0 -0.3,0.02 -0.44,0.02c-2.41,0.13 -4.74,0.28 -6.95,0.44c-0.16,0 -0.3,0.02 -0.44,0.02c-2.47,0.19 -4.79,0.37 -6.96,0.58c-0.14,0 -0.3,0.02 -0.44,0.04c-2.55,0.22 -4.89,0.45 -6.95,0.68c-0.16,0.02 -0.3,0.04 -0.44,0.06c-2.94,0.31 -5.3,0.61 -6.93,0.82c-0.16,0.02 -0.3,0.04 -0.44,0.06c-1.38,0.19 -2.13,0.29 -2.13,0.29c0.24,-0.24 -0.81,-7.26 -1.87,-13.85c-0.67,-4.13 0.55,-8.18 3.05,-11.21c0.14,-0.17 0.28,-0.33 0.4,-0.51c1.78,-1.93 4.1,-3.41 6.81,-4.12c0.14,-0.03 0.3,-0.07 0.44,-0.1c2.04,-0.53 4.35,-1.06 6.94,-1.57c0.14,-0.02 0.28,-0.05 0.42,-0.07c2.13,-0.42 4.43,-0.81 6.93,-1.18c0.14,-0.03 0.3,-0.05 0.44,-0.07c2.17,-0.32 4.49,-0.61 6.94,-0.86c0.14,-0.04 0.3,-0.04 0.44,-0.05c2.2,-0.23 4.5,-0.44 6.95,-0.62c0.14,0 0.28,-0.02 0.42,-0.04c1.08,-0.07 2.17,-0.14 3.29,-0.19c1.25,-0.07 2.49,-0.12 3.68,-0.16c0.16,0 0.3,-0.01 0.44,-0.01c2.43,-0.08 4.75,-0.08 6.97,-0.02c0.16,0 0.3,0.02 0.44,0.02c2.47,0.07 4.79,0.19 6.99,0.38c0.14,0.02 0.3,0.02 0.44,0.04c2.52,0.23 4.86,0.53 7.02,0.88c0.16,0 0.3,0.03 0.44,0.07c2.59,0.4 4.95,0.9 7.04,1.41c0.14,0.03 0.3,0.07 0.44,0.1c1.29,0.32 2.47,0.65 3.56,0.99c1.26,0.38 2.44,0.95 3.52,1.65c0.15,0.09 0.3,0.2 0.44,0.3c3.64,2.61 5.89,6.9 5.86,11.55l-0.09,17.24c-1.53,-0.33 -3.1,-0.63 -4.68,-0.91c-0.14,-0.02 -0.28,-0.04 -0.44,-0.07c-2.29,-0.39 -4.65,-0.72 -7.02,-1.02c-0.15,-0.02 -0.3,-0.04 -0.44,-0.05c-2.31,-0.27 -4.65,-0.52 -7.01,-0.69z"></path></g><g opacity="0.41"  transform="translate(3.2264404296875 0)  rotate(0)"><g opacity="1"  transform="translate(0 9.25762939453125)  rotate(0)"><path id="路径 60" fill-rule="evenodd" style="fill:#AD8B96" opacity="1" d="M1.39,25.22zM1.39,25.22c-0.16,0.02 -0.3,0.04 -0.44,0.05l-0.95,-24.76c0.14,-0.18 0.28,-0.33 0.4,-0.51z"></path></g><g opacity="1"  transform="translate(7.216064453125 5.03363037109375)  rotate(0)"><path id="路径 61" fill-rule="evenodd" style="fill:#AD8B96" opacity="1" d="M1.55,28.56zM1.55,28.56c-0.16,0.02 -0.3,0.04 -0.44,0.06l-1.11,-28.51c0.14,-0.04 0.3,-0.07 0.44,-0.11z"></path></g><g opacity="1"  transform="translate(7.216064453125 5.03363037109375)  rotate(0)"><path id="路径 62" fill-rule="evenodd" style="fill:#AD8B96" opacity="1" d="M1.55,28.56zM1.55,28.56c-0.16,0.02 -0.3,0.04 -0.44,0.06l-1.11,-28.51c0.14,-0.04 0.3,-0.07 0.44,-0.11z"></path></g><g opacity="1"  transform="translate(14.5904541015625 3.39678955078125)  rotate(0)"><path id="路径 63" fill-rule="evenodd" style="fill:#AD8B96" opacity="1" d="M1.57,29.48zM1.57,29.48c-0.14,0 -0.3,0.02 -0.44,0.04l-1.13,-29.45c0.14,-0.02 0.28,-0.05 0.42,-0.07z"></path></g><g opacity="1"  transform="translate(14.5904541015625 3.39678955078125)  rotate(0)"><path id="路径 64" fill-rule="evenodd" style="fill:#AD8B96" opacity="1" d="M1.57,29.48zM1.57,29.48c-0.14,0 -0.3,0.02 -0.44,0.04l-1.13,-29.45c0.14,-0.02 0.28,-0.05 0.42,-0.07z"></path></g><g opacity="1"  transform="translate(21.9471435546875 2.147216796875)  rotate(0)"><path id="路径 65" fill-rule="evenodd" style="fill:#AD8B96" opacity="1" d="M1.6,30.13zM1.6,30.13c-0.16,0 -0.3,0.02 -0.44,0.02l-1.16,-30.08c0.14,-0.03 0.3,-0.05 0.44,-0.07z"></path></g><g opacity="1"  transform="translate(21.9471435546875 2.147216796875)  rotate(0)"><path id="路径 66" fill-rule="evenodd" style="fill:#AD8B96" opacity="1" d="M1.6,30.13zM1.6,30.13c-0.16,0 -0.3,0.02 -0.44,0.02l-1.16,-30.08c0.14,-0.03 0.3,-0.05 0.44,-0.07z"></path></g><g opacity="1"  transform="translate(29.3216552734375 1.23199462890625)  rotate(0)"><path id="路径 67" fill-rule="evenodd" style="fill:#AD8B96" opacity="1" d="M1.62,30.59zM1.62,30.59c-0.14,0 -0.3,0.02 -0.44,0.02l-1.18,-30.56c0.14,-0.03 0.3,-0.03 0.44,-0.05z"></path></g><g opacity="1"  transform="translate(29.3216552734375 1.23199462890625)  rotate(0)"><path id="路径 68" fill-rule="evenodd" style="fill:#AD8B96" opacity="1" d="M1.62,30.59zM1.62,30.59c-0.14,0 -0.3,0.02 -0.44,0.02l-1.18,-30.56c0.14,-0.03 0.3,-0.03 0.44,-0.05z"></path></g><g opacity="1"  transform="translate(36.696044921875 0)  rotate(0)"><path id="路径 69" fill-rule="evenodd" style="fill:#AD8B96" opacity="1" d="M1.65,31.52zM1.65,31.52c-0.15,-0.02 -0.29,0 -0.44,0l-1.19,-30.9l-0.02,-0.6l0.42,-0.02l0.02,0.58z"></path></g><g opacity="1"  transform="translate(36.696044921875 0)  rotate(0)"><path id="路径 70" fill-rule="evenodd" style="fill:#AD8B96" opacity="1" d="M1.65,31.52zM1.65,31.52c-0.15,-0.02 -0.29,0 -0.44,0l-1.19,-30.9l-0.02,-0.6l0.42,-0.02l0.02,0.58z"></path></g><g opacity="1"  transform="translate(44.1055908203125 0.00054931640625)  rotate(0)"><path id="路径 71" fill-rule="evenodd" style="fill:#AD8B96" opacity="1" d="M1.65,31.36zM1.65,31.36h-0.44l-1.21,-31.13v-0.21l0.44,-0.02v0.21z"></path></g><g opacity="1"  transform="translate(44.1055908203125 0.00054931640625)  rotate(0)"><path id="路径 72" fill-rule="evenodd" style="fill:#AD8B96" opacity="1" d="M1.65,31.36zM1.65,31.36h-0.44l-1.21,-31.13v-0.21l0.44,-0.02v0.21z"></path></g><g opacity="1"  transform="translate(51.5150146484375 0.00054931640625)  rotate(0)"><path id="路径 73" fill-rule="evenodd" style="fill:#AD8B96" opacity="1" d="M1.65,31.38zM1.65,31.38h-0.44l-1.21,-31.19v-0.17l0.44,-0.02v0.21z"></path></g><g opacity="1"  transform="translate(51.5150146484375 0.00054931640625)  rotate(0)"><path id="路径 74" fill-rule="evenodd" style="fill:#AD8B96" opacity="1" d="M1.65,31.38zM1.65,31.38h-0.44l-1.21,-31.19v-0.17l0.44,-0.02v0.21z"></path></g><g opacity="1"  transform="translate(58.9248046875 0)  rotate(0)"><path id="路径 75" fill-rule="evenodd" style="fill:#AD8B96" opacity="1" d="M1.67,31.61zM1.67,31.61c-0.16,0 -0.3,0 -0.44,-0.02l-1.21,-30.99l-0.02,-0.58l0.44,-0.02l0.02,0.63z"></path></g><g opacity="1"  transform="translate(58.9248046875 0)  rotate(0)"><path id="路径 76" fill-rule="evenodd" style="fill:#AD8B96" opacity="1" d="M1.67,31.61zM1.67,31.61c-0.16,0 -0.3,0 -0.44,-0.02l-1.21,-30.99l-0.02,-0.58l0.44,-0.02l0.02,0.63z"></path></g><g opacity="1"  transform="translate(66.40478515625 1.51361083984375)  rotate(0)"><path id="路径 77" fill-rule="evenodd" style="fill:#AD8B96" opacity="1" d="M1.62,30.57zM1.62,30.57c-0.14,-0.02 -0.3,-0.03 -0.44,-0.03l-1.18,-30.54c0.16,0 0.3,0.04 0.44,0.07z"></path></g><g opacity="1"  transform="translate(66.40478515625 1.51361083984375)  rotate(0)"><path id="路径 78" fill-rule="evenodd" style="fill:#AD8B96" opacity="1" d="M1.62,30.57zM1.62,30.57c-0.14,-0.02 -0.3,-0.03 -0.44,-0.03l-1.18,-30.54c0.16,0 0.3,0.04 0.44,0.07z"></path></g><g opacity="1"  transform="translate(73.884765625 2.99200439453125)  rotate(0)"><path id="路径 79" fill-rule="evenodd" style="fill:#AD8B96" opacity="1" d="M1.58,29.83zM1.58,29.83c-0.14,-0.02 -0.3,-0.03 -0.44,-0.05l-1.14,-29.78c0.14,0.04 0.3,0.07 0.44,0.11z"></path></g><g opacity="1"  transform="translate(73.884765625 2.99200439453125)  rotate(0)"><path id="路径 80" fill-rule="evenodd" style="fill:#AD8B96" opacity="1" d="M1.58,29.83zM1.58,29.83c-0.14,-0.02 -0.3,-0.03 -0.44,-0.05l-1.14,-29.78c0.14,0.04 0.3,0.07 0.44,0.11z"></path></g><g opacity="1"  transform="translate(81.4000244140625 5.73760986328125)  rotate(0)"><path id="路径 81" fill-rule="evenodd" style="fill:#AD8B96" opacity="1" d="M1.53,28.18zM1.53,28.18c-0.14,-0.02 -0.28,-0.04 -0.44,-0.07l-1.09,-28.11c0.16,0.09 0.3,0.19 0.44,0.3z"></path></g></g></g></g><g opacity="1"  transform="translate(0 116.90576171875)  rotate(0)"><path id="路径 82" fill-rule="evenodd" style="fill:#4EBCF7" opacity="1" d="M78.16,119.55zM47.6,148.91c-22.75,-26.97 -28.16,-54.53 -28.16,-54.53c0,0 -22.15,-7.2 -19.16,-34.76c2.9,-26.7 7.48,-33.7 7.76,-34.12l0.02,-0.02c0,0 12.58,-28.76 26.36,-25.17c13.78,3.59 3.01,41.94 3.01,41.94c0,0 12.57,-10.19 15.58,3.59c2.99,13.78 0.6,46.75 0.6,46.75l24.55,26.96l-29.32,30.77c-0.44,-0.48 -0.85,-0.96 -1.24,-1.41z"></path><path  id="路径 83" style="fill:#3D2929; opacity:1;" d="M25.082,111.118c-0.0854,-0.118 -0.1999,-0.28767 -0.3435,-0.509c-0.28393,-0.43733 -0.5743,-0.91633 -0.8711,-1.437c-0.94713,-1.66067 -1.7835,-3.43 -2.5091,-5.308c-1.016,-2.62913 -1.7385,-5.28857 -2.1675,-7.9783c-0.53687,-3.3656 -0.59637,-6.68263 -0.1785,-9.9511c0.23587,-1.8452 0.5831,-3.88197 1.0417,-6.1103c0.49113,-2.3866 1.07487,-4.8181 1.7512,-7.2945c1.57387,-5.76273 3.42547,-11.0094 5.5548,-15.74c2.534,-5.62973 5.26443,-10.0509 8.1913,-13.2635c3.4544,-3.79173 7.0679,-5.76023 10.8405,-5.9055c0.02393,-0.00093 0.0478,0.00007 0.0716,0.003c0.09313,0.01167 0.21437,0.03657 0.3637,0.0747c0.28487,0.07273 0.57913,0.17403 0.8828,0.3039c0.95847,0.41 1.84033,1.02587 2.6456,1.8476c1.11427,1.13707 2.0006,2.59627 2.659,4.3776c0.81287,2.19907 1.25423,4.83333 1.3241,7.9028c0.12507,5.494 0.11263,13.23543 -0.0373,23.2243c-0.07493,4.99193 -0.1625,9.44093 -0.2627,13.347v0l-0.4399,-0.0113l0.3396,-0.2797l16.78,20.3703c0.0184,0.022 0.03443,0.04567 0.0481,0.071c0.01367,0.02533 0.0247,0.052 0.0331,0.08c0.00847,0.02733 0.01413,0.05533 0.017,0.084c0.00287,0.02933 0.00293,0.05833 0.0002,0.087c-0.0028,0.02867 -0.00837,0.05667 -0.0167,0.084c-0.00833,0.028 -0.0193,0.05467 -0.0329,0.08c-0.01353,0.02533 -0.02947,0.04933 -0.0478,0.072c-0.01827,0.022 -0.03853,0.04233 -0.0608,0.061c-0.02233,0.01867 -0.04623,0.03467 -0.0717,0.048c-0.0254,0.014 -0.05193,0.025 -0.0796,0.033c-0.0276,0.00867 -0.0558,0.01433 -0.0846,0.017c-0.02873,0.00333 -0.05747,0.00333 -0.0862,0c-0.02873,-0.00267 -0.05693,-0.008 -0.0846,-0.016c-0.02767,-0.00867 -0.05427,-0.01967 -0.0798,-0.033c-0.02553,-0.014 -0.04947,-0.03 -0.0718,-0.048c-0.02233,-0.018 -0.0427,-0.03833 -0.0611,-0.061l-16.78,-20.3698c-0.06967,-0.08453 -0.10307,-0.18157 -0.1002,-0.2911v0c0.10013,-3.90287 0.18763,-8.34873 0.2625,-13.3376c0.1498,-9.9778 0.16227,-17.70817 0.0374,-23.1911c-0.0676,-2.9714 -0.49083,-5.51063 -1.2697,-7.6177c-0.61493,-1.66373 -1.43563,-3.01933 -2.4621,-4.0668c-0.72393,-0.73867 -1.51167,-1.29013 -2.3632,-1.6544c-0.262,-0.112 -0.51347,-0.19877 -0.7544,-0.2603c-0.1136,-0.02907 -0.1987,-0.04713 -0.2553,-0.0542l0.0546,-0.4366l0.0169,0.4397c-3.52693,0.1358 -6.93487,2.00873 -10.2238,5.6188c-2.86393,3.1436 -5.54373,7.48763 -8.0394,13.0321c-2.1104,4.68867 -3.9465,9.89223 -5.5083,15.6107c-0.6714,2.45833 -1.2508,4.87167 -1.7382,7.24c-0.45407,2.20653 -0.79763,4.22137 -1.0307,6.0445c-0.4072,3.18487 -0.349,6.41847 0.1746,9.7008c0.41927,2.6286 1.1257,5.2286 2.1193,7.8c0.70987,1.83667 1.52747,3.56667 2.4528,5.19c0.2884,0.50533 0.56993,0.96967 0.8446,1.393c0.13573,0.20867 0.24207,0.36633 0.319,0.473c0.01687,0.02333 0.0313,0.048 0.0433,0.074c0.01207,0.02667 0.02143,0.054 0.0281,0.082c0.0066,0.028 0.01043,0.05633 0.0115,0.085c0.00107,0.02933 -0.0007,0.05833 -0.0053,0.087c-0.0046,0.028 -0.01193,0.05567 -0.022,0.083c-0.01013,0.02733 -0.02277,0.053 -0.0379,0.077c-0.0152,0.02467 -0.03263,0.04767 -0.0523,0.069c-0.01967,0.02133 -0.0412,0.04033 -0.0646,0.057c-0.02347,0.01733 -0.04833,0.032 -0.0746,0.044c-0.02627,0.012 -0.05347,0.02133 -0.0816,0.028c-0.02807,0.00667 -0.05653,0.01033 -0.0854,0.011c-0.02887,0.00133 -0.05757,-0.00033 -0.0861,-0.005c-0.02853,-0.00467 -0.05633,-0.012 -0.0834,-0.022c-0.02707,-0.01 -0.0529,-0.02267 -0.0775,-0.038c-0.0246,-0.01533 -0.04747,-0.03267 -0.0686,-0.052c-0.0212,-0.02 -0.04023,-0.04167 -0.0571,-0.065z"></path><path  id="路径 84" style="fill:#3D2929; opacity:1;" d="M7.66654,25.271c0.15366,-0.2962 0.37199,-0.7003 0.655,-1.2123c0.5647,-1.0216 1.17149,-2.07403 1.82036,-3.1573c2.0766,-3.4668 4.18623,-6.59417 6.3289,-9.3821c3.01053,-3.91733 5.87633,-6.87519 8.5974,-8.87359c3.47053,-2.5488 6.62247,-3.46843 9.4558,-2.7589c1.68353,0.42119 3.07193,1.39369 4.1652,2.9175c0.97207,1.35481 1.70237,3.13904 2.1909,5.3527c0.81073,3.67386 0.95343,8.46902 0.4281,14.38549c-0.37393,4.21213 -1.0611,8.77567 -2.0615,13.6906c-0.31287,1.53733 -0.63843,3.01817 -0.9767,4.4425c-0.1696,0.71413 -0.30873,1.27747 -0.4174,1.69v0.0001c-0.00733,0.02793 -0.01733,0.0549 -0.03,0.0809c-0.01267,0.02593 -0.02777,0.0504 -0.0453,0.0734c-0.01747,0.023 -0.03703,0.04407 -0.0587,0.0632c-0.0216,0.01913 -0.0449,0.036 -0.0699,0.0506c-0.02493,0.01453 -0.05107,0.0265 -0.0784,0.0359c-0.02733,0.0094 -0.0553,0.01603 -0.0839,0.0199c-0.02867,0.00393 -0.0574,0.005 -0.0862,0.0032c-0.02887,-0.0018 -0.05727,-0.00637 -0.0852,-0.0137c-0.02793,-0.00733 -0.05487,-0.01733 -0.0808,-0.03c-0.026,-0.01267 -0.0505,-0.02777 -0.0735,-0.0453c-0.023,-0.01747 -0.04407,-0.03703 -0.0632,-0.0587c-0.01913,-0.0216 -0.03597,-0.0449 -0.0505,-0.0699c-0.01453,-0.02493 -0.0265,-0.05107 -0.0359,-0.0784c-0.0094,-0.02733 -0.01607,-0.0553 -0.02,-0.0839c-0.00387,-0.0286 -0.0049,-0.05733 -0.0031,-0.0862c0.00173,-0.02887 0.0063,-0.05727 0.0137,-0.0852l-0.0001,0.0001c0.1068,-0.40573 0.2442,-0.9622 0.4122,-1.6694c0.33607,-1.41507 0.6596,-2.8866 0.9706,-4.4146c0.9938,-4.88267 1.67623,-9.41363 2.0473,-13.5929c0.51727,-5.8264 0.38027,-10.53242 -0.411,-14.11805c-0.96187,-4.35899 -2.86537,-6.89439 -5.7105,-7.6062c-2.5658,-0.64254 -5.47283,0.22896 -8.7211,2.61453c-2.65393,1.94909 -5.4608,4.84926 -8.4206,8.70052c-2.122,2.76107 -4.21257,5.86043 -6.2717,9.2981c-0.64363,1.07453 -1.24532,2.11813 -1.80509,3.1308c-0.27924,0.5052 -0.4939,0.90247 -0.64399,1.1918c-0.01331,0.02567 -0.02898,0.04977 -0.04703,0.0723c-0.01805,0.0226 -0.03813,0.0432 -0.06023,0.0618c-0.02211,0.0186 -0.04581,0.03487 -0.07112,0.0488c-0.02531,0.01393 -0.05174,0.02527 -0.07928,0.034c-0.02754,0.00873 -0.05567,0.01467 -0.08438,0.0178c-0.02871,0.0032 -0.05746,0.00357 -0.08625,0.0011c-0.02878,-0.00247 -0.05705,-0.00773 -0.0848,-0.0158c-0.02775,-0.008 -0.05444,-0.01867 -0.08009,-0.032c-0.02565,-0.01327 -0.04975,-0.02893 -0.07231,-0.047c-0.02255,-0.01807 -0.04313,-0.03813 -0.06174,-0.0602c-0.01861,-0.02213 -0.03488,-0.04587 -0.04881,-0.0712c-0.01393,-0.02527 -0.02526,-0.05167 -0.03399,-0.0792c-0.00873,-0.0276 -0.01468,-0.05573 -0.01787,-0.0844c-0.00319,-0.02873 -0.00355,-0.0575 -0.00107,-0.0863c0.00247,-0.0288 0.00773,-0.05707 0.01577,-0.0848c0.00805,-0.02773 0.01872,-0.05443 0.03202,-0.0801z"></path></g></g><g opacity="1"  transform="translate(49.5614013671875 256.09442138671875)  rotate(0)"><g opacity="1"  transform="translate(0 0)  rotate(0)"><path id="路径 85" fill-rule="evenodd" style="fill:#FAEDDC" opacity="1" d="M68.63,6.44zM67.27,34.29l-34.33,31.13c-7.46,6.77 -18.81,6.73 -26.21,0.23c-0.57,-0.47 -1.12,-1.01 -1.64,-1.58c-3.63,-4.01 -5.3,-9.14 -5.07,-14.2c0.26,-5.05 2.42,-10 6.44,-13.64l34.33,-31.14c7.74,-7.02 19.63,-6.71 27.01,0.49c0.28,0.28 0.56,0.56 0.83,0.86c3.64,4.01 5.31,9.15 5.05,14.2c-0.23,5.06 -2.39,10 -6.41,13.65z"></path><path id="路径 86" fill-rule="evenodd" style="fill:#FFA255" opacity="1" d="M26.97,17.6261zM26.97,17.6261l26.48,29.2l-20.51,18.6c-8.03,7.29 -20.56,6.68 -27.85,-1.36c-3.63,-4 -5.3,-9.14 -5.07,-14.19c0.26,-5.06 2.42,-10 6.44,-13.65z"></path><g opacity="1"  transform="translate(8.27490234375 15.7528076171875)  rotate(0)"><path id="路径 87" fill-rule="evenodd" style="fill:#FFFFFF" opacity="1" d="M9.28,19.1638zM9.28,19.1638l-5.2,4.71c-1,0.9 -2.55,0.83 -3.45,-0.17c-0.9,-0.99 -0.83,-2.54 0.17,-3.45l5.2,-4.71c0.99,-0.9 2.54,-0.83 3.44,0.17c0.91,0.99 0.83,2.54 -0.16,3.45z"></path><path id="路径 88" fill-rule="evenodd" style="fill:#FFFFFF" opacity="1" d="M25.7159,4.25zM25.7159,4.25l-11.31,10.26c-1,0.9 -2.55,0.83 -3.45,-0.17c-0.9,-1 -0.83,-2.55 0.17,-3.45l11.31,-10.26c1,-0.9 2.55,-0.83 3.45,0.17c0.9,0.99 0.83,2.55 -0.17,3.45z"></path></g></g><g opacity="1"  transform="translate(40.6864013671875 51.943359375)  rotate(0)"><path id="椭圆 10" fill-rule="evenodd" style="fill:#AD8B96" opacity="1" d="M22.0221 2.02222C10.9721 2.02222 2.02209 10.9722 2.02209 22.0222C2.02209 33.0622 10.9721 42.0122 22.0221 42.0122C33.0621 42.0122 42.0121 33.0622 42.0121 22.0222C42.0121 10.9722 33.0621 2.02222 22.0221 2.02222Z"></path><path id="椭圆 11" fill-rule="evenodd" style="fill:#E7D8DD" opacity="1" d="M20 0C8.95 0 0 8.95 0 20C0 31.04 8.95 39.99 20 39.99C31.04 39.99 39.99 31.04 39.99 20C39.99 8.95 31.04 0 20 0Z"></path><path  id="直线 2" style="fill:#FFFFFF; opacity:1;" d="M9.56481,3.33217l23.59159,31.68003c0.01727,0.0232 0.0321,0.04783 0.0445,0.0739c0.0124,0.02613 0.02213,0.0532 0.0292,0.0812c0.00707,0.028 0.01133,0.05643 0.0128,0.0853c0.00147,0.02887 0.0001,0.05757 -0.0041,0.0861c-0.0042,0.0286 -0.01113,0.0565 -0.0208,0.0837c-0.00967,0.02727 -0.0219,0.0533 -0.0367,0.0781c-0.0148,0.0248 -0.03187,0.04793 -0.0512,0.0694c-0.0194,0.0214 -0.04067,0.04073 -0.0638,0.058c-0.0232,0.01727 -0.04783,0.0321 -0.0739,0.0445c-0.02613,0.0124 -0.0532,0.02213 -0.0812,0.0292c-0.028,0.00707 -0.05643,0.01133 -0.0853,0.0128c-0.02887,0.00153 -0.0576,0.0002 -0.0862,-0.004c-0.02853,-0.0042 -0.05643,-0.01113 -0.0837,-0.0208c-0.0272,-0.00967 -0.0532,-0.0219 -0.078,-0.0367c-0.0248,-0.0148 -0.04793,-0.0319 -0.0694,-0.0513c-0.0214,-0.01933 -0.04073,-0.0406 -0.058,-0.0638l-23.59158,-31.68003c-0.01726,-0.02317 -0.03209,-0.04781 -0.04449,-0.0739c-0.01241,-0.02609 -0.02215,-0.05315 -0.02922,-0.08116c-0.00707,-0.02801 -0.01135,-0.05644 -0.01282,-0.08529c-0.00147,-0.02885 -0.00012,-0.05757 0.00406,-0.08616c0.00419,-0.02859 0.01112,-0.05649 0.0208,-0.08371c0.00968,-0.02722 0.02192,-0.05324 0.03672,-0.07805c0.01481,-0.02481 0.03189,-0.04793 0.05125,-0.06938c0.01936,-0.02145 0.04063,-0.0408 0.0638,-0.05805c0.02317,-0.01725 0.0478,-0.03208 0.07389,-0.04449c0.02609,-0.0124 0.05315,-0.02214 0.08116,-0.02921c0.02801,-0.00708 0.05644,-0.01136 0.08529,-0.01283c0.02885,-0.00147 0.05757,-0.00012 0.08616,0.00407c0.02859,0.00418 0.05649,0.01111 0.08371,0.02079c0.02723,0.00968 0.05324,0.02192 0.07805,0.03673c0.02481,0.01481 0.04794,0.03189 0.06938,0.05125c0.02145,0.01936 0.0408,0.04062 0.05805,0.06379z"></path></g><g opacity="1"  transform="translate(92.9468994140625 45.9676513671875)  rotate(0)"><path id="椭圆 12" fill-rule="evenodd" style="fill:#AD8B96" opacity="1" d="M18.7268 1.03713C7.68235 1.38614 -0.980499 10.6144 -0.631486 21.6588C-0.282789 32.6933 8.94543 41.3562 19.9899 41.0072C31.0244 40.6585 39.6873 31.4303 39.3386 20.3958C38.9895 9.35128 29.7613 0.688429 18.7268 1.03713Z"></path><path id="椭圆 13" fill-rule="evenodd" style="fill:#E7D8DD" opacity="1" d="M7.52629 1.46659C-1.92032 7.1993 -4.92842 19.4939 0.804287 28.9405C6.53181 38.3785 18.8264 41.3866 28.273 35.6539C37.7111 29.9264 40.7192 17.6318 34.9916 8.19378C29.2589 -1.25284 16.9644 -4.26093 7.52629 1.46659Z"></path><path  id="直线 3" style="fill:#FFFFFF; opacity:1;" d="M11.9234,-0.16709l14.9998,36.53999c0.01093,0.02673 0.01917,0.0543 0.0247,0.0827c0.00553,0.02833 0.00827,0.05693 0.0082,0.0858c-0.00007,0.02893 -0.00297,0.05753 -0.0087,0.0858c-0.00573,0.02833 -0.01417,0.05583 -0.0253,0.0825c-0.01113,0.02667 -0.02477,0.05197 -0.0409,0.0759c-0.01613,0.024 -0.03443,0.04617 -0.0549,0.0665c-0.02053,0.0204 -0.04283,0.0386 -0.0669,0.0546c-0.02407,0.01593 -0.04947,0.0294 -0.0762,0.0404c-0.02673,0.01093 -0.05427,0.01917 -0.0826,0.0247c-0.0284,0.0056 -0.05703,0.00833 -0.0859,0.0082c-0.02887,-0.00007 -0.05747,-0.00297 -0.0858,-0.0087c-0.02833,-0.00573 -0.05583,-0.01417 -0.0825,-0.0253c-0.0266,-0.01113 -0.0519,-0.02477 -0.0759,-0.0409c-0.024,-0.01613 -0.04617,-0.03443 -0.0665,-0.0549c-0.02033,-0.02053 -0.0385,-0.04283 -0.0545,-0.0669c-0.016,-0.02407 -0.02947,-0.04947 -0.0404,-0.0762l-14.9998,-36.54001c-0.01093,-0.02673 -0.0192,-0.05427 -0.0248,-0.08262c-0.00553,-0.02835 -0.00823,-0.05698 -0.0081,-0.08587c0.00007,-0.02889 0.00297,-0.05749 0.0087,-0.08581c0.00573,-0.02832 0.01417,-0.0558 0.0253,-0.08246c0.01113,-0.02666 0.02477,-0.05197 0.0409,-0.07594c0.01613,-0.02397 0.03443,-0.04614 0.0549,-0.0665c0.02053,-0.02036 0.04283,-0.03853 0.0669,-0.05451c0.02407,-0.01597 0.04947,-0.02945 0.0762,-0.04042c0.02673,-0.01097 0.05427,-0.01923 0.0826,-0.02478c0.02833,-0.00555 0.05697,-0.00827 0.0859,-0.00818c0.02887,0.00009 0.05747,0.003 0.0858,0.00873c0.02827,0.00573 0.05573,0.01416 0.0824,0.0253c0.02667,0.01114 0.052,0.02477 0.076,0.0409c0.02393,0.01613 0.0461,0.03444 0.0665,0.05493c0.02033,0.02049 0.0385,0.04278 0.0545,0.06685c0.01593,0.02407 0.0294,0.04947 0.0404,0.0762z"></path></g></g><g opacity="1"  transform="translate(22.394287109375 19.50958251953125)  rotate(0)"><g opacity="1"  transform="translate(0 0)  rotate(0)"><path id="路径 89" fill-rule="evenodd" style="fill:#FFFFFF" opacity="1" d="M167.683,5.62zM167.683,5.62c0,3.1 -2.51,5.61 -5.61,5.61c-3.11,0 -5.62,-2.51 -5.62,-5.61c0,-3.1 2.51,-5.62 5.62,-5.62c3.1,0 5.61,2.52 5.61,5.62z"></path><path id="路径 90" fill-rule="evenodd" style="fill:#FFFFFF" opacity="1" d="M190.375,37.3zM190.375,37.3c0,3.1 -2.51,5.61 -5.61,5.61c-3.1,0 -5.62,-2.51 -5.62,-5.61c0,-3.1 2.52,-5.62 5.62,-5.62c3.1,0 5.61,2.52 5.61,5.62z"></path><path id="路径 91" fill-rule="evenodd" style="fill:#FFFFFF" opacity="1" d="M273.958,53.4022zM273.958,53.4022c0,3.1 -2.51,5.61 -5.61,5.61c-3.11,0 -5.62,-2.51 -5.62,-5.61c0,-3.1 2.51,-5.62 5.62,-5.62c3.1,0 5.61,2.52 5.61,5.62z"></path><path id="椭圆 14" fill-rule="evenodd" style="fill:#FFFFFF" opacity="1" d="M255.166 266.659C252.056 266.659 249.546 269.169 249.546 272.279C249.546 275.379 252.056 277.889 255.166 277.889C258.266 277.889 260.776 275.379 260.776 272.279C260.776 269.169 258.266 266.659 255.166 266.659Z"></path><path id="椭圆 15" fill-rule="evenodd" style="fill:#FFFFFF" opacity="1" d="M5.62 212.474C2.51 212.474 0 214.984 0 218.094C0 221.194 2.51 223.704 5.62 223.704C8.72 223.704 11.23 221.194 11.23 218.094C11.23 214.984 8.72 212.474 5.62 212.474Z"></path></g><g opacity="1"  transform="translate(145.375244140625 27.8505859375)  rotate(0)"><path id="路径 92" fill-rule="evenodd" style="fill:#FAEDDC" opacity="1" d="M14.35,9.44zM9.44,9.61l2.3,-9.61l2.61,9.44l9.61,2.3l-9.44,2.61l-2.3,9.61l-2.61,-9.44l-9.61,-2.3z"></path></g><g opacity="1"  transform="translate(8.9393310546875 236.476806640625)  rotate(0)"><path id="路径 93" fill-rule="evenodd" style="fill:#FAEDDC" opacity="1" d="M14.35,9.44zM11.74,0l2.61,9.44l9.61,2.3l-9.44,2.61l-2.3,9.61l-2.61,-9.44l-9.61,-2.3l9.44,-2.61z"></path></g><g opacity="1"  transform="translate(212.0509033203125 273.6240234375)  rotate(0)"><path id="路径 94" fill-rule="evenodd" style="fill:#FAEDDC" opacity="1" d="M14.35,9.44zM11.74,0l2.61,9.44l9.61,2.3l-9.44,2.61l-2.3,9.61l-2.61,-9.44l-9.61,-2.3l9.44,-2.61z"></path></g></g><g opacity="1"  transform="translate(226.1717529296875 28.69976806640625)  rotate(0)"><path id="椭圆 16" fill-rule="evenodd" style="fill:#AD8B96" opacity="1" d="M10.0673 4.2166C0.594028 9.90523 -2.47133 22.1856 3.2173 31.6589C8.90078 41.1235 21.1812 44.1889 30.6544 38.5003C40.1191 32.8168 43.1844 20.5364 37.501 11.0717C31.8123 1.59847 19.5319 -1.46688 10.0673 4.2166Z"></path><path id="椭圆 17" fill-rule="evenodd" style="fill:#E7D8DD" opacity="1" d="M17.8376 -1.06715C6.80334 -0.477548 -1.65636 8.93725 -1.06677 19.9715C-0.477701 30.9958 8.9371 39.4555 19.9714 38.8659C30.9956 38.2768 39.4553 28.862 38.8663 17.8378C38.2767 6.80349 28.8619 -1.65621 17.8376 -1.06715Z"></path><path  id="直线 4" style="fill:#FFFFFF; opacity:1;" d="M12.9271,0.1705l14.9998,36.5403c0.011,0.02673 0.01927,0.05427 0.0248,0.0826c0.00553,0.02833 0.00827,0.05697 0.0082,0.0859c-0.00007,0.02887 -0.00297,0.05747 -0.0087,0.0858c-0.00573,0.02827 -0.01417,0.05573 -0.0253,0.0824c-0.01113,0.02667 -0.02477,0.052 -0.0409,0.076c-0.01613,0.02393 -0.03447,0.0461 -0.055,0.0665c-0.02047,0.02033 -0.04273,0.0385 -0.0668,0.0545c-0.02407,0.01593 -0.04947,0.0294 -0.0762,0.0404c-0.02673,0.011 -0.05427,0.01927 -0.0826,0.0248c-0.0284,0.00553 -0.05703,0.00827 -0.0859,0.0082c-0.02887,-0.00013 -0.05747,-0.00307 -0.0858,-0.0088c-0.02833,-0.00573 -0.05583,-0.01417 -0.0825,-0.0253c-0.02667,-0.01113 -0.05197,-0.02477 -0.0759,-0.0409c-0.024,-0.01613 -0.04617,-0.03443 -0.0665,-0.0549c-0.0204,-0.02047 -0.03857,-0.04273 -0.0545,-0.0668c-0.016,-0.02413 -0.02947,-0.04953 -0.0404,-0.0762l-14.9999,-36.54032c-0.011,-0.02673 -0.01927,-0.05427 -0.0248,-0.08262c-0.00553,-0.02835 -0.00827,-0.05698 -0.0082,-0.08587c0.00013,-0.02889 0.00303,-0.05749 0.0087,-0.08581c0.00573,-0.02832 0.01417,-0.0558 0.0253,-0.08246c0.0112,-0.02666 0.02483,-0.05197 0.0409,-0.07594c0.01613,-0.02397 0.03447,-0.04614 0.055,-0.0665c0.02047,-0.02036 0.04273,-0.03853 0.0668,-0.05451c0.02407,-0.01597 0.04947,-0.02945 0.0762,-0.04042c0.02673,-0.01097 0.05427,-0.01923 0.0826,-0.02478c0.0284,-0.00555 0.05703,-0.00827 0.0859,-0.00818c0.02887,0.00009 0.05747,0.003 0.0858,0.00873c0.02833,0.00573 0.05583,0.01416 0.0825,0.0253c0.02667,0.01114 0.05197,0.02477 0.0759,0.0409c0.024,0.01613 0.04617,0.03444 0.0665,0.05493c0.0204,0.02049 0.03857,0.04278 0.0545,0.06685c0.016,0.02407 0.0295,0.04947 0.0405,0.0762z"></path></g></g></g></svg>