<?xml version="1.0" standalone="no"?><!DOCTYPE svg PUBLIC "-//W3C//DTD SVG 1.1//EN" "http://www.w3.org/Graphics/SVG/1.1/DTD/svg11.dtd"><svg t="1689302867317" class="icon" viewBox="0 0 1024 1024" version="1.1" xmlns="http://www.w3.org/2000/svg" p-id="2771" xmlns:xlink="http://www.w3.org/1999/xlink" width="200" height="200"><path d="M509.99296 336.33792c104.6272 0 163.15904 40.31488 167.02464 43.06432q0.21504-4.03456 0.22016-8.1152V205.44s-60.61056-44.89216-165.20704-44.89216-169.28256 44.89216-169.28256 44.89216v165.84192q0 4.096 0.22016 8.1152c3.87072-2.74432 62.40256-43.0592 167.02464-43.0592z m108.27776 356.51072H407.20384a187.13088 187.13088 0 0 0-187.18208 187.07456 33.28 33.28 0 0 0 33.28 33.28h518.8608a33.28 33.28 0 0 0 33.28-33.28 187.13088 187.13088 0 0 0-187.17184-187.07968z" fill="#B0D8E4" p-id="2772" data-spm-anchor-id="a313x.7781069.0.i0" class="selected"></path><path d="M481.84832 307.712h61.2352v-37.376h37.26336V208.94208h-37.26336v-37.376h-61.2352v37.376h-37.25824V270.336h37.25824v37.376z m190.40256 299.1616a254.07488 254.07488 0 0 0 91.01312-194.95424V161.47968l-11.67872-9.216C747.94496 149.38624 660.76672 81.92 512.46592 81.92c-147.76832 0-239.9232 66.90816-243.77344 69.75488l-12.44672 9.216v251.0336a254.07488 254.07488 0 0 0 91.59168 195.45088A273.408 273.408 0 0 0 112.64 878.08 64 64 0 0 0 176.47616 942.08h671.0528A64 64 0 0 0 911.36 878.08a273.37216 273.37216 0 0 0-239.104-271.20128z m-159.78496-463.5392c97.28 0 163.94752 33.792 189.56288 49.4336v178.34496c-40.6016-18.62144-105.472-39.53152-192.27648-39.53152s-151.66464 20.90496-192.27136 39.53152V193.17248c26.96704-15.83104 96.38912-49.83808 194.98496-49.83808z m-193.024 295.80288c26.91584-15.55456 92.3136-46.14144 190.32064-46.14144s163.50208 30.62784 190.33088 46.1312a192.72192 192.72192 0 0 1-190.32576 165.62176 192.72192 192.72192 0 0 1-190.336-165.61152z m40.03328 344.0896a13.51168 13.51168 0 1 1-13.51168-13.55264 13.54752 13.54752 0 0 1 13.50144 13.55264z m488.064 97.43872H176.47616a2.60608 2.60608 0 0 1-2.60096-2.60608 212.19328 212.19328 0 0 1 147.21536-201.91232 189.85472 189.85472 0 0 0-5.56032 38.67136 74.752 74.752 0 1 0 61.2608 0.19968 129.024 129.024 0 0 1 12.71808-48.86016h230.4a128.27136 128.27136 0 0 1 12.58496 48.9216 75.01312 75.01312 0 0 0-43.79136 68.1472v56.00768h61.2352v-56.00768a13.51168 13.51168 0 1 1 27.02336 0v56.00768h61.2352v-56.00768a75.04384 75.04384 0 0 0-44.30336-68.39808 190.464 190.464 0 0 0-6.6304-43.008A212.10112 212.10112 0 0 1 850.1248 878.08a2.60096 2.60096 0 0 1-2.59584 2.5856z" fill="#242F44" p-id="2773"></path></svg>