<?xml version="1.0" standalone="no"?><!DOCTYPE svg PUBLIC "-//W3C//DTD SVG 1.1//EN" "http://www.w3.org/Graphics/SVG/1.1/DTD/svg11.dtd"><svg t="1689303503481" class="icon" viewBox="0 0 1024 1024" version="1.1" xmlns="http://www.w3.org/2000/svg" p-id="5005" xmlns:xlink="http://www.w3.org/1999/xlink" width="200" height="200"><path d="M517.69856 220.21632H286.08c-39.2704 0-71.11168 33.97632-71.11168 75.88864v431.8976c0 41.91232 31.83616 75.88864 71.11168 75.88864H588.8V296.10496c0-41.91232-31.83104-75.88864-71.10144-75.88864z" fill="#B0D8E4" p-id="5006" data-spm-anchor-id="a313x.7781069.0.i25" class="selected"></path><path d="M844.47232 420.864h-150.528V204.55424A102.4 102.4 0 0 0 591.50848 102.4H215.07072A102.4 102.4 0 0 0 112.64 204.55424v614.912A102.4 102.4 0 0 0 215.07072 921.6h629.4016A66.87232 66.87232 0 0 0 911.36 854.89152v-367.3088A66.87232 66.87232 0 0 0 844.47232 420.864z m-213.2224 438.20032H215.07072a39.7312 39.7312 0 0 1-39.74144-39.63392V204.55424a39.7312 39.7312 0 0 1 39.74144-39.6288h376.43776a39.7312 39.7312 0 0 1 39.74144 39.6288v654.52032z m217.41568-4.18304a4.18816 4.18816 0 0 1-4.19328 4.18304h-150.528V483.39968h150.528a4.19328 4.19328 0 0 1 4.19328 4.18304v367.3088zM438.24128 300.0832H375.54688V420.864H254.43328v62.53568h121.1136v120.79616h62.6944V483.39968h121.1136V420.864H438.24128V300.0832z" fill="#242F44" p-id="5007"></path></svg>