<?xml version="1.0" standalone="no"?><!DOCTYPE svg PUBLIC "-//W3C//DTD SVG 1.1//EN" "http://www.w3.org/Graphics/SVG/1.1/DTD/svg11.dtd"><svg t="1689303229138" class="icon" viewBox="0 0 1024 1024" version="1.1" xmlns="http://www.w3.org/2000/svg" p-id="3887" xmlns:xlink="http://www.w3.org/1999/xlink" width="200" height="200"><path d="M799.232 272.04608H227.84a18.176 18.176 0 0 0-18.19136 18.16064v474.30656a18.176 18.176 0 0 0 18.19136 18.16064h571.392a18.17088 18.17088 0 0 0 18.18624-18.16064V290.20672a18.17088 18.17088 0 0 0-18.18624-18.16064z" fill="#B0D8E4" p-id="3888" data-spm-anchor-id="a313x.7781069.0.i13" class="selected"></path><path d="M837.32992 150.08256h-100.27008V122.88h-64.10752v27.20256H343.04V122.88H278.92736v27.20256H186.65984A104.84736 104.84736 0 0 0 81.92 254.80192v541.59872A104.85248 104.85248 0 0 0 186.65984 901.12h650.67008A104.85248 104.85248 0 0 0 942.08 796.40064V254.80192a104.84736 104.84736 0 0 0-104.75008-104.71936zM186.65984 214.17472h92.2624v28.80512H343.04v-28.80512h329.91744v28.80512h64.10752v-28.80512h100.27008a40.68352 40.68352 0 0 1 40.64256 40.6272v61.81376H146.02752V254.80192a40.67328 40.67328 0 0 1 40.63232-40.6272z m650.67008 622.85312H186.65984a40.67328 40.67328 0 0 1-40.63232-40.6272v-415.6928h731.94496v415.6928a40.68352 40.68352 0 0 1-40.64256 40.6272zM293.376 473.9584a51.64032 51.64032 0 1 0 51.65568 51.64032A51.65056 51.65056 0 0 0 293.376 473.9584z m204.22144 0a51.64032 51.64032 0 1 0 51.65056 51.64032 51.65056 51.65056 0 0 0-51.6608-51.64032zM293.376 638.09024a51.64032 51.64032 0 1 0 51.65568 51.64032A51.65056 51.65056 0 0 0 293.376 638.09024z m204.22144 0a51.64032 51.64032 0 1 0 51.65056 51.64032 51.65056 51.65056 0 0 0-51.6608-51.64032z m203.14112-95.02208l-38.8608-31.50848-40.38144 49.77664 88.64768 71.87968 103.07584-127.0528-49.78176-40.37632z" fill="#242F44" p-id="3889"></path></svg>