<?xml version="1.0" standalone="no"?><!DOCTYPE svg PUBLIC "-//W3C//DTD SVG 1.1//EN" "http://www.w3.org/Graphics/SVG/1.1/DTD/svg11.dtd"><svg t="1689303441437" class="icon" viewBox="0 0 1024 1024" version="1.1" xmlns="http://www.w3.org/2000/svg" p-id="4724" xmlns:xlink="http://www.w3.org/1999/xlink" width="200" height="200"><path d="M510.94528 373.31456A100.63872 100.63872 0 1 0 410.31168 474.9312a101.12512 101.12512 0 0 0 100.6336-101.61664z m131.85536 465.62304a232.4992 232.4992 0 1 0-464.97792 0h464.97792z m-27.44832-573.44a206.40768 206.40768 0 0 1 27.44832 101.32992c0 71.87456-27.44832 108.10368-27.44832 108.10368s98.04288-11.264 98.04288-107.70944c0-95.52384-98.04288-101.72416-98.04288-101.72416z m78.43328 343.2704s89.02656 99.47136 82.46784 223.7952h66.97472s0-147.76832-149.44256-223.7952z" fill="#B0D8E4" p-id="4725" data-spm-anchor-id="a313x.7781069.0.i22" class="selected"></path><path d="M528.44544 522.752a189.34272 189.34272 0 1 0-232.30976 0A333.5424 333.5424 0 0 0 81.92 834.56h61.50656c0-149.504 120.61696-271.11424 268.86656-271.11424S681.15456 685.056 681.15456 834.56h61.50144a333.5424 333.5424 0 0 0-214.21056-311.808zM412.288 243.2256a128.91136 128.91136 0 1 1-127.83104 128.91136 128.512 128.512 0 0 1 127.83104-128.91136z m315.5712 277.504A191.13472 191.13472 0 0 0 611.712 179.2v62.01856a128.90624 128.90624 0 0 1 0 257.80736v62.40768c148.2496 0 268.86656 121.62048 268.86656 271.11424H942.08a333.55776 333.55776 0 0 0-214.2208-311.81824z" fill="#242F44" p-id="4726"></path></svg>