<?xml version="1.0" standalone="no"?><!DOCTYPE svg PUBLIC "-//W3C//DTD SVG 1.1//EN" "http://www.w3.org/Graphics/SVG/1.1/DTD/svg11.dtd"><svg t="1689303301100" class="icon" viewBox="0 0 1024 1024" version="1.1" xmlns="http://www.w3.org/2000/svg" p-id="4168" xmlns:xlink="http://www.w3.org/1999/xlink" width="200" height="200"><path d="M810.5216 476.57472h-248.2688L443.80672 347.19744H213.4784c-16.75264 0-16.03584 12.8-16.03584 28.57472v415.80544c0 15.78496-0.7168 28.57984 16.03584 28.57984h597.0432c16.75264 0 16.03584-12.8 16.03584-28.57984V505.15456c0-15.78496 0.7168-28.57984-16.03584-28.57984z" fill="#B0D8E4" p-id="4169" data-spm-anchor-id="a313x.7781069.0.i16" class="selected"></path><path d="M885.56032 367.19616V165.91872A73.83552 73.83552 0 0 0 811.81696 92.16H209.61792a73.83552 73.83552 0 0 0-73.728 73.75872v67.76832A73.8304 73.8304 0 0 0 81.92 304.64v553.472A73.8304 73.8304 0 0 0 155.648 931.84h712.704a73.83552 73.83552 0 0 0 73.728-73.728V438.84032a73.82528 73.82528 0 0 0-56.51968-71.64416zM209.61792 163.59424h602.19904a2.31936 2.31936 0 0 1 2.31424 2.32448v199.168H608.768L487.15264 230.912h-279.8592V165.91872a2.32448 2.32448 0 0 1 2.32448-2.32448zM870.65088 858.112a2.31936 2.31936 0 0 1-2.31424 2.31424H155.648a2.31936 2.31936 0 0 1-2.31424-2.31424V304.64a2.31936 2.31936 0 0 1 2.31424-2.31936h299.84768l121.61024 134.17472H868.352a2.31936 2.31936 0 0 1 2.31424 2.32448V858.112zM774.76864 230.912H592.384v71.42912h182.41024V230.912zM488.77056 453.56032H417.34144v127.44192H289.90976v71.43424h127.43168v127.44192h71.42912v-127.44192h127.43168v-71.43424H488.77056V453.56032z" fill="#242F44" p-id="4170"></path></svg>