<?xml version="1.0" standalone="no"?><!DOCTYPE svg PUBLIC "-//W3C//DTD SVG 1.1//EN" "http://www.w3.org/Graphics/SVG/1.1/DTD/svg11.dtd"><svg t="1689303094496" class="icon" viewBox="0 0 1024 1024" version="1.1" xmlns="http://www.w3.org/2000/svg" p-id="3325" xmlns:xlink="http://www.w3.org/1999/xlink" width="200" height="200"><path d="M277.7344 218.5984a59.25888 59.25888 0 0 0-59.14624 59.392v470.82496a59.25888 59.25888 0 0 0 59.14624 59.392h469.0432a59.25888 59.25888 0 0 0 59.14624-59.392V277.9648a59.25888 59.25888 0 0 0-59.14624-59.392h-469.0432z" fill="#B0D8E4" p-id="3326" data-spm-anchor-id="a313x.7781069.0.i7" class="selected"></path><path d="M845.71136 830.90944a43.11552 43.11552 0 0 1-43.008 43.13088H192.74752a43.1104 43.1104 0 0 1-43.008-43.13088V219.136a43.10528 43.10528 0 0 1 43.008-43.12576h378.58816V107.95008H192.74752A111.104 111.104 0 0 0 81.92 219.136v611.77344A111.104 111.104 0 0 0 192.74752 942.08h609.96096a111.104 111.104 0 0 0 110.83776-111.17056V463.36h-67.83488v367.5648z m80.16896-640.89088L834.28864 98.1504a55.35232 55.35232 0 0 0-78.336 0L368.9728 486.32832a55.808 55.808 0 0 0-13.91104 23.38304l-40.41728 135.72096a55.37792 55.37792 0 0 0 70.4256 68.6592l131.75296-43.64288a55.47008 55.47008 0 0 0 21.82144-13.47584l387.24096-388.4032a55.74656 55.74656 0 0 0-0.00512-78.55104z m-515.4816 371.6096l54.272 54.44608-78.20288 25.90208z m111.65696 15.77984L448.08192 503.20384l268.63104-269.44512 73.96864 74.20416zM838.656 259.85024L764.672 185.6512l30.45888-30.55104 73.97888 74.19904z" fill="#242F44" p-id="3327"></path></svg>