<?xml version="1.0" standalone="no"?><!DOCTYPE svg PUBLIC "-//W3C//DTD SVG 1.1//EN" "http://www.w3.org/Graphics/SVG/1.1/DTD/svg11.dtd"><svg t="1689303007099" class="icon" viewBox="0 0 1024 1024" version="1.1" xmlns="http://www.w3.org/2000/svg" p-id="3044" xmlns:xlink="http://www.w3.org/1999/xlink" width="200" height="200"><path d="M626.7648 819.90656H228.27008a19.456 19.456 0 0 1-19.456-19.4816V225.22368a19.456 19.456 0 0 1 19.456-19.4816h398.49472a19.456 19.456 0 0 1 19.456 19.4816v575.20128a19.456 19.456 0 0 1-19.456 19.4816z" fill="#B0D8E4" p-id="3045" data-spm-anchor-id="a313x.7781069.0.i4" class="selected"></path><path d="M863.91808 381.50144h-98.2528V194.30912A112.25088 112.25088 0 0 0 653.824 81.92H193.77664A112.25088 112.25088 0 0 0 81.92 194.30912v635.29984a112.24576 112.24576 0 0 0 111.86176 112.38912h621.71136c0.512 0 1.024 0.08192 1.5872 0.08192s1.024-0.07168 1.58208-0.08192h1.77152v-0.08704A120.24832 120.24832 0 0 0 936.96 821.62688V454.89664a73.30304 73.30304 0 0 0-73.04192-73.3952zM150.37952 829.60896V194.30912a43.55072 43.55072 0 0 1 43.39712-43.60192H653.824a43.55072 43.55072 0 0 1 43.39712 43.60192v627.38432a119.85408 119.85408 0 0 0 11.70944 51.51744H193.77664a43.55072 43.55072 0 0 1-43.39712-43.60192z m718.12096-7.98208a51.56864 51.56864 0 0 1-49.83808 51.584h-3.16928a51.56864 51.56864 0 0 1-49.82784-51.584V450.28864h98.2528a4.608 4.608 0 0 1 4.5824 4.608v366.73024zM288.1792 455.51104h68.46464V370.91328H440.832V302.12608H356.64384V217.53344H288.1792v84.59264H203.98592v68.7872h84.19328v84.59776z m22.016 196.84352h319.87712v-68.7872h-319.8976v68.7872zM440.832 497.87904h189.21984V429.09184H440.832v68.7872zM203.98592 803.84h426.06592v-68.79232H203.98592V803.84z" fill="#242F44" p-id="3046"></path></svg>