<?xml version="1.0" standalone="no"?><!DOCTYPE svg PUBLIC "-//W3C//DTD SVG 1.1//EN" "http://www.w3.org/Graphics/SVG/1.1/DTD/svg11.dtd"><svg t="1689303370477" class="icon" viewBox="0 0 1024 1024" version="1.1" xmlns="http://www.w3.org/2000/svg" p-id="4443" xmlns:xlink="http://www.w3.org/1999/xlink" width="200" height="200"><path d="M750.11072 827.49952H270.6688a38.07232 38.07232 0 0 1-38.016-38.13376V236.24704a38.07232 38.07232 0 0 1 38.016-38.13376h479.44192a38.07232 38.07232 0 0 1 38.016 38.13376v553.11872a38.07232 38.07232 0 0 1-38.016 38.13376z" fill="#B0D8E4" p-id="4444" data-spm-anchor-id="a313x.7781069.0.i19" class="selected"></path><path d="M786.33472 942.08H237.66528A109.8752 109.8752 0 0 1 128 832.24576V191.75424A109.87008 109.87008 0 0 1 237.66528 81.92h548.66944A109.8752 109.8752 0 0 1 896 191.75424v640.512A109.8752 109.8752 0 0 1 786.33472 942.08zM237.66528 149.14048a42.62912 42.62912 0 0 0-42.54208 42.60864v640.512a42.62912 42.62912 0 0 0 42.5472 42.61376h548.66432a42.62912 42.62912 0 0 0 42.5472-42.61376V191.75424a42.62912 42.62912 0 0 0-42.5472-42.60864H237.66528z m534.38464 362.5728h-199.20896V444.4928h199.20896v67.22048z m0 142.87872H449.44896v-67.22048h322.60096v67.22048z m0 142.88896H287.51872v-67.22048h484.5312v67.22048z m-361.03168-281.088L354.08896 459.36128 272.64512 378.76224A101.26336 101.26336 0 0 1 410.92608 230.912a101.05856 101.05856 0 0 1 138.41408 4.38272 101.42208 101.42208 0 0 1 0 143.29856l-114.59584 114.7904zM344.064 272.896a34.10944 34.10944 0 0 0-24.064 58.2144l91.4432 90.624 90.48576-90.624a34.13504 34.13504 0 0 0 0-48.2304 34.01728 34.01728 0 0 0-48.16384 0l-42.79808 42.8544-42.83904-42.88512a33.93024 33.93024 0 0 0-24.064-9.95328z" fill="#242F44" p-id="4445"></path></svg>